<?xml version="1.0" encoding="UTF-8"?><svg id="a" xmlns="http://www.w3.org/2000/svg" viewBox="0 0 16 16"><path d="m.5474,13.3313c.4481.181.9581-.0355,1.1391-.4835l.5869-1.4526h4.509l.5869,1.4526c.181.4481.691.6646,1.1391.4835s.6645-.691.4835-1.1391L5.3394,3.1522c-.0012-.0029-.0037-.0046-.0049-.0075-.031-.0746-.0825-.1379-.1331-.2017-.0206-.0258-.0325-.0594-.0556-.0824-.0057-.0057-.0145-.0082-.0204-.0138-.0781-.0734-.1662-.1339-.264-.1741-.0023-.001-.0037-.0031-.006-.004-.0349-.0141-.0708-.0105-.1062-.0198-.0729-.0195-.1447-.0414-.2213-.0414s-.1484.0219-.2213.0414c-.0354.0093-.0714.0057-.1062.0198-.0023.0009-.0037.003-.006.004-.0978.0403-.1859.1007-.264.1741-.0059.0056-.0147.0081-.0204.0138-.0231.023-.035.0566-.0556.0824-.0506.0638-.1021.127-.1331.2017-.0012.0029-.0038.0046-.0049.0075L.064,12.1922c-.181.4481.0354.9581.4835,1.1391Zm3.9805-7.5162l1.5474,3.8301h-3.0948l1.5474-3.8301Z" style="fill:#231f20;"/><path d="m15.125,5.8953c-.3706,0-.6833.2321-.8109.5574-.5305-.3468-1.1473-.5574-1.8141-.5574-1.933,0-3.5,1.6789-3.5,3.75s1.567,3.75,3.5,3.75c.6669,0,1.2837-.2106,1.8141-.5574.1276.3254.4402.5574.8109.5574.4833,0,.875-.3918.875-.875v-5.75c0-.4833-.3917-.875-.875-.875Zm-2.625,5.75c-.9665,0-1.75-.8954-1.75-2s.7835-2,1.75-2,1.75.8954,1.75,2-.7835,2-1.75,2Z" style="fill:#231f20;"/></svg>