<?xml version="1.0" encoding="UTF-8"?><svg id="a" xmlns="http://www.w3.org/2000/svg" viewBox="0 0 16 16"><path d="m4.2678.9822C3.2914.0059,1.7086.0059.7322.9822S-.2441,3.5414.7322,4.5178L4.2678.9822Z" style="fill:#231f20;"/><path d="m11.7322.9822l3.5355,3.5355c.9763-.9763.9763-2.5592,0-3.5355S12.7086.0059,11.7322.9822Z" style="fill:#231f20;"/><path d="m8,.75C3.8578.75.5,4.1078.5,8.25c0,1.7556.6077,3.3666,1.6182,4.6444l-1.3619,1.3619c-.3417.3417-.3417.8957,0,1.2374s.8958.3417,1.2374,0l1.3619-1.3619c1.2778,1.0104,2.8889,1.6182,4.6444,1.6182s3.3666-.6077,4.6444-1.6182l1.3619,1.3619c.3417.3417.8958.3417,1.2374,0s.3417-.8958,0-1.2374l-1.3619-1.3619c1.0104-1.2778,1.6182-2.8889,1.6182-4.6444,0-4.1422-3.3578-7.5-7.5-7.5Zm0,13.25c-3.1757,0-5.75-2.5744-5.75-5.75s2.5743-5.75,5.75-5.75,5.75,2.5743,5.75,5.75-2.5743,5.75-5.75,5.75Z" style="fill:#231f20;"/><path d="m10.4944,8.6799l-1.6194-.935v-3.2449c0-.4833-.3917-.875-.875-.875s-.875.3917-.875.875v3.75c0,.038.017.0704.0217.1072.0076.0601.0156.1175.0353.1747.0185.0537.0446.1005.0726.1489.0277.0483.0551.0941.0922.1368.0399.046.0859.0818.1345.1186.0293.0223.0488.0529.0814.0718l2.0568,1.1875c.4185.2416.9537.0983,1.1953-.3203.2416-.4185.0982-.9536-.3203-1.1953Z" style="fill:#231f20;"/></svg>