<?xml version="1.0" encoding="UTF-8"?><svg id="a" xmlns="http://www.w3.org/2000/svg" viewBox="0 0 16 16"><path d="m15.6337,7.116L10.3306,1.8128c-.4882-.4882-1.2796-.4882-1.7678,0s-.4882,1.2796,0,1.7678l3.1694,3.1694H1.25c-.6904,0-1.25.5596-1.25,1.25s.5596,1.25,1.25,1.25h10.4822l-3.1694,3.1694c-.4882.4882-.4882,1.2796,0,1.7678.4882.4882,1.2796.4882,1.7678,0l5.303-5.303c.1154-.1153.2067-.2535.2701-.4065.063-.1523.0959-.3138.0961-.476,0-.0006.0003-.001.0003-.0016,0-.1628-.0332-.3249-.0964-.4777-.0634-.1529-.1547-.2911-.2698-.4063Z" style="fill:#231f20;"/></svg>