<?xml version="1.0" encoding="UTF-8"?><svg id="a" xmlns="http://www.w3.org/2000/svg" viewBox="0 0 16 16"><path d="m14.75,6.75H4.2678l3.1694-3.1694c.4882-.4882.4882-1.2796,0-1.7678s-1.2796-.4882-1.7678,0L.3663,7.116c-.1152.1152-.2065.2534-.2698.4063-.0632.1528-.0965.3149-.0964.4777,0,.0006.0003.001.0003.0016.0002.1622.0331.3237.0961.476.0634.153.1547.2912.2701.4065l5.303,5.303c.4882.4882,1.2796.4882,1.7678,0,.4882-.4882.4882-1.2796,0-1.7678l-3.1694-3.1694h10.4822c.6904,0,1.25-.5596,1.25-1.25s-.5596-1.25-1.25-1.25Z" style="fill:#231f20;"/></svg>