<?xml version="1.0" encoding="UTF-8"?><svg id="a" xmlns="http://www.w3.org/2000/svg" viewBox="0 0 16 16"><path d="m14.5063,9.7946l-2.2186,2.2186V1.8755c0-.4832-.3917-.875-.875-.875s-.875.3918-.875.875v10.1376l-2.2186-2.2186c-.3417-.3417-.8958-.3417-1.2374,0-.3417.3417-.3417.8957,0,1.2374l3.7123,3.7123c.0806.0806.1774.1444.2843.1887.2139.0886.455.0886.6689,0,.1069-.0443.2036-.1082.2842-.1887l3.7123-3.7123c.3417-.3417.3417-.8958,0-1.2374-.3417-.3417-.8958-.3417-1.2374,0Z" style="fill:#231f20;"/><path d="m.2563,6.2054c.3417.3417.8957.3417,1.2374,0l2.2186-2.2186v10.1376c0,.4832.3918.875.875.875s.875-.3918.875-.875V3.9868l2.2186,2.2186c.3417.3417.8957.3417,1.2374,0,.3417-.3417.3417-.8957,0-1.2374l-3.7123-3.7123c-.0806-.0806-.1772-.1444-.2842-.1887-.2139-.0886-.455-.0886-.6689,0-.1069.0443-.2037.1082-.2843.1887L.2563,4.968c-.3417.3417-.3417.8958,0,1.2374Z" style="fill:#231f20;"/></svg>