<?xml version="1.0" encoding="UTF-8"?><svg id="a" xmlns="http://www.w3.org/2000/svg" viewBox="0 0 16 16"><path d="m14.5063.2563l-3.6328,3.6328V1.7515c0-.4833-.3917-.875-.875-.875s-.875.3917-.875.875v4.25c0,.114.0233.2274.0676.3344.0887.2139.259.3843.4729.473.1044.0432.2151.0649.3264.0659.0029,0,.0052.0016.0081.0016h4.25c.4833,0,.875-.3918.875-.875s-.3917-.875-.875-.875h-2.1376l3.6328-3.6328c.3417-.3417.3417-.8958,0-1.2374-.3417-.3417-.8958-.3417-1.2374,0Z" style="fill:#231f20;"/><path d="m1.4937,15.7437l3.6328-3.6328v2.1376c0,.4832.3917.875.875.875s.875-.3918.875-.875v-4.25c0-.114-.0233-.2276-.0676-.3345-.0887-.2139-.2591-.3842-.473-.4729-.1069-.0443-.2204-.0676-.3344-.0676H1.7515c-.4833,0-.875.3917-.875.875s.3917.875.875.875h2.1376L.2563,14.5063c-.3417.3417-.3417.8957,0,1.2374s.8958.3417,1.2374,0Z" style="fill:#231f20;"/><path d="m12.1109,10.8735h2.1376c.4833,0,.875-.3918.875-.875s-.3917-.875-.875-.875h-4.25c-.114,0-.2274.0233-.3344.0676-.2139.0887-.3843.259-.473.4729-.0443.1069-.0676.2205-.0676.3345v4.25c0,.4832.3917.875.875.875s.875-.3918.875-.875v-2.1376l3.6328,3.6328c.3417.3417.8958.3417,1.2374,0s.3417-.8958,0-1.2374l-3.6328-3.6328Z" style="fill:#231f20;"/><path d="m3.8891,5.1265H1.7515c-.4833,0-.875.3917-.875.875s.3917.875.875.875h4.25c.0029,0,.0052-.0016.0081-.0016.1113-.001.222-.0228.3264-.0659.2139-.0887.3842-.2592.4729-.473.0443-.107.0676-.2204.0676-.3344V1.7515c0-.4833-.3917-.875-.875-.875s-.875.3917-.875.875v2.1376L1.4937.2563C1.152-.0854.598-.0854.2563.2563-.0854.598-.0854,1.152.2563,1.4937l3.6328,3.6328Z" style="fill:#231f20;"/></svg>