<?xml version="1.0" encoding="UTF-8"?><svg id="a" xmlns="http://www.w3.org/2000/svg" viewBox="0 0 16 16"><path d="m15.125,1c-.4833,0-.875.3917-.875.875v12.25c0,.4832.3917.875.875.875s.875-.3918.875-.875V1.875c0-.4833-.3917-.875-.875-.875Z" style="fill:#231f20;"/><path d="m.875,8.875h9.1376l-2.5721,2.5721c-.3417.3417-.3417.8957,0,1.2374s.8957.3417,1.2374,0l4.0659-4.0659c.0806-.0806.1444-.1774.1887-.2843.0886-.2139.0886-.455,0-.6689-.0443-.1069-.1082-.2036-.1887-.2842l-4.0659-4.0659c-.3417-.3417-.8958-.3417-1.2374,0-.3417.3417-.3417.8957,0,1.2374l2.5721,2.5721H.875c-.4833,0-.875.3917-.875.875s.3917.875.875.875Z" style="fill:#231f20;"/></svg>