<?xml version="1.0" encoding="UTF-8"?><svg id="a" xmlns="http://www.w3.org/2000/svg" viewBox="0 0 16 16"><path d="m.5405,15.9324c.1044.0432.2151.0649.3264.0659.0029,0,.0052.0016.0081.0016h4.25c.4833,0,.875-.3918.875-.875s-.3917-.875-.875-.875h-2.1376l3.6328-3.6328c.3417-.3417.3417-.8958,0-1.2374-.3417-.3417-.8958-.3417-1.2374,0l-3.6328,3.6328v-2.1376c0-.4833-.3917-.875-.875-.875s-.875.3917-.875.875v4.25c0,.114.0233.2274.0676.3344.0887.2139.259.3843.4729.473Z" style="fill:#231f20;"/><path d="m15.4595.0676c-.1069-.0443-.2205-.0676-.3345-.0676h-4.25c-.4833,0-.875.3917-.875.875s.3917.875.875.875h2.1376l-3.6328,3.6328c-.3417.3417-.3417.8957,0,1.2374s.8958.3417,1.2374,0l3.6328-3.6328v2.1376c0,.4832.3917.875.875.875s.875-.3918.875-.875V.875c0-.114-.0233-.2276-.0676-.3345-.0887-.2138-.2591-.3842-.4729-.4729Z" style="fill:#231f20;"/><path d="m.875,6c.4833,0,.875-.3918.875-.875v-2.1376l3.6328,3.6328c.3417.3417.8958.3417,1.2374,0s.3417-.8958,0-1.2374L2.9874,1.75h2.1376c.4833,0,.875-.3918.875-.875s-.3917-.875-.875-.875H.875c-.114,0-.2274.0233-.3344.0676-.2139.0887-.3843.259-.473.4729-.0443.1069-.0676.2205-.0676.3345v4.25c0,.4832.3917.875.875.875Z" style="fill:#231f20;"/><path d="m15.125,10c-.4833,0-.875.3917-.875.875v2.1376l-3.6328-3.6328c-.3417-.3417-.8957-.3417-1.2374,0-.3417.3417-.3417.8957,0,1.2374l3.6328,3.6328h-2.1376c-.4833,0-.875.3917-.875.875s.3917.875.875.875h4.25c.0029,0,.0052-.0016.0081-.0016.1113-.001.222-.0228.3264-.0659.2139-.0887.3842-.2592.4729-.473.0443-.107.0676-.2204.0676-.3344v-4.25c0-.4833-.3917-.875-.875-.875Z" style="fill:#231f20;"/></svg>