<?xml version="1.0" encoding="UTF-8"?><svg id="a" xmlns="http://www.w3.org/2000/svg" viewBox="0 0 16 16"><path d="m15,.875c0-.4832-.3918-.875-.875-.875H1.875c-.4833,0-.875.3918-.875.875s.3917.875.875.875h12.25c.4832,0,.875-.3917.875-.875Z" style="fill:#231f20;"/><path d="m8,16c.4832,0,.875-.3917.875-.875V5.9875l2.5721,2.5721c.3417.3417.8957.3417,1.2374,0,.3417-.3417.3417-.8958,0-1.2374l-4.0659-4.0659c-.0806-.0806-.1774-.1444-.2843-.1887-.2139-.0885-.455-.0885-.6689,0-.1069.0444-.2036.1082-.2842.1887L3.3154,7.3221c-.3417.3417-.3417.8958,0,1.2375s.8957.3417,1.2374,0l2.5721-2.5722v9.1376c0,.4833.3917.875.875.875Z" style="fill:#231f20;"/></svg>