<?xml version="1.0" encoding="UTF-8"?><svg id="a" xmlns="http://www.w3.org/2000/svg" viewBox="0 0 16 16"><path d="m1.0005,4.5873c0,.4832.3918.875.875.875h10.1376l-2.2186,2.2186c-.3417.3417-.3417.8958,0,1.2374.3417.3417.8957.3417,1.2374,0l3.7123-3.7123c.0806-.0806.1444-.1774.1887-.2843.0886-.2139.0886-.455,0-.6689-.0443-.1069-.1082-.2036-.1887-.2842L11.032.2563c-.3417-.3417-.8958-.3417-1.2374,0-.3417.3417-.3417.8958,0,1.2374l2.2186,2.2186H1.8755c-.4832,0-.875.3917-.875.875Z" style="fill:#231f20;"/><path d="m14.9995,11.4127c0-.4833-.3918-.875-.875-.875H3.9869l2.2186-2.2186c.3417-.3417.3417-.8957,0-1.2374-.3417-.3417-.8957-.3417-1.2374,0l-3.7123,3.7123c-.0806.0806-.1444.1772-.1887.2842-.0886.2139-.0886.455,0,.6689.0443.1069.1082.2037.1887.2843l3.7123,3.7123c.3417.3417.8958.3417,1.2374,0,.3417-.3417.3417-.8957,0-1.2374l-2.2186-2.2186h10.1376c.4832,0,.875-.3918.875-.875Z" style="fill:#231f20;"/></svg>