<?xml version="1.0" encoding="UTF-8"?><svg id="a" xmlns="http://www.w3.org/2000/svg" viewBox="0 0 16 16"><path d="m.875,15c.4833,0,.875-.3917.875-.875V1.875c0-.4833-.3917-.875-.875-.875s-.875.3917-.875.875v12.25c0,.4833.3918.875.875.875Z" style="fill:#231f20;"/><path d="m15.125,7.125H5.9874l2.5721-2.5721c.3417-.3417.3417-.8958,0-1.2374-.3417-.3417-.8957-.3417-1.2374,0L3.2563,7.3813c-.0806.0806-.1443.1772-.1887.2842-.0432.1044-.0649.2152-.0659.3264,0,.0029-.0016.0052-.0016.0081s.0016.0052.0016.0081c.0011.1112.0228.2219.0659.3263.0444.107.1081.2037.1887.2843l4.0659,4.0659c.3417.3417.8958.3417,1.2374,0,.3417-.3417.3417-.8957,0-1.2374l-2.5721-2.5721h9.1376c.4833,0,.875-.3917.875-.875s-.3917-.875-.875-.875Z" style="fill:#231f20;"/></svg>