<?xml version="1.0" encoding="UTF-8"?><svg id="a" xmlns="http://www.w3.org/2000/svg" viewBox="0 0 16 16"><path d="m8,0c-.6904,0-1.25.5596-1.25,1.25v10.4822l-3.1694-3.1694c-.4882-.4882-1.2796-.4882-1.7678,0s-.4882,1.2796,0,1.7678l5.3032,5.3032c.1152.1152.2534.2065.4063.2698.1501.0621.3094.0936.4694.0947.0029,0,.0054.0017.0083.0017s.0054-.0017.0083-.0017c.16-.0011.3193-.0326.4694-.0947.1529-.0634.2911-.1547.4063-.2698l5.3032-5.3032c.4882-.4882.4882-1.2796,0-1.7678s-1.2796-.4882-1.7678,0l-3.1694,3.1694V1.25c0-.6904-.5596-1.25-1.25-1.25Z" style="fill:#231f20;"/></svg>