<?xml version="1.0" encoding="UTF-8"?><svg id="a" xmlns="http://www.w3.org/2000/svg" viewBox="0 0 16 16"><path d="m4.023,12.7729c0,.6904.5596,1.25,1.25,1.25h7.4998c.163,0,.3253-.0332.4781-.0965.1495-.062.2839-.1522.3975-.264.0024-.0024.0059-.0031.0084-.0056.0016-.0016.0021-.004.0038-.0057.1129-.1141.2034-.2496.2658-.4003.0633-.1529.0965-.3152.0965-.4781v-7.4998c0-.6904-.5596-1.25-1.25-1.25s-1.25.5596-1.25,1.25v4.4823L4.1109,2.3431c-.4882-.4882-1.2796-.4882-1.7678,0-.4881.4882-.4882,1.2796,0,1.7678l7.412,7.4121h-4.4822c-.6904,0-1.25.5596-1.25,1.2499Z" style="fill:#231f20;"/></svg>