<?xml version="1.0" encoding="UTF-8"?><svg id="a" xmlns="http://www.w3.org/2000/svg" viewBox="0 0 16 16"><path d="m10.9994,4.5026H2.9868l1.5115-1.5115c.3417-.3417.3417-.8958,0-1.2374s-.8957-.3417-1.2374,0L.2557,4.7589c-.0806.0806-.1444.1773-.1887.2842-.0885.2139-.0886.455,0,.6689.0443.107.1082.2037.1887.2843l3.0052,3.0052c.3417.3417.8958.3417,1.2374,0,.3417-.3417.3417-.8958,0-1.2374l-1.5115-1.5115h8.0126c1.7949,0,3.25,1.4551,3.25,3.25s-1.4551,3.25-3.25,3.25h-4.625c-.4833,0-.875.3917-.875.875s.3917.875.875.875h4.625c2.7614,0,5-2.2386,5-5s-2.2386-5-5-5Z" style="fill:#231f20;"/></svg>