<?xml version="1.0" encoding="UTF-8"?><svg id="a" xmlns="http://www.w3.org/2000/svg" viewBox="0 0 16 16"><path d="m13.6569,2.3431c-.4882-.4882-1.2796-.4882-1.7678,0l-7.412,7.412v-4.4822c0-.6904-.5597-1.25-1.25-1.25s-1.25.5596-1.25,1.25v7.4999c0,.1628.0333.325.0964.4778.0625.1507.153.2864.2659.4005.0016.0016.0021.004.0037.0056.0024.0024.0058.0031.0083.0055.1136.1119.2481.202.3978.2641.1529.0633.3152.0964.4781.0964h7.4998c.6904,0,1.25-.5596,1.25-1.2499,0-.6904-.5596-1.25-1.2501-1.25h-4.4822l7.412-7.412c.4882-.4882.4882-1.2796,0-1.7678Z" style="fill:#231f20;"/></svg>