<?xml version="1.0" encoding="UTF-8"?><svg id="a" xmlns="http://www.w3.org/2000/svg" viewBox="0 0 16 16"><path d="m4.25,3.75c0,2.071,1.679,3.75,3.75,3.75s3.75-1.679,3.75-3.75-1.6789-3.75-3.75-3.75-3.75,1.679-3.75,3.75Zm3.75-2c1.1046,0,2,.8954,2,2s-.8954,2-2,2-2-.8954-2-2,.8954-2,2-2Z" style="fill:#231f20;"/><path d="m8,8.25c-3.866,0-6.9999,2.6863-6.9999,6h0c0,.9665.7835,1.75,1.75,1.75h10.5c.9665,0,1.75-.7835,1.75-1.75,0-3.3137-3.134-6-7-6Zm-5.2499,6c0-2.3472,2.3505-4.25,5.2499-4.25s5.25,1.9028,5.25,4.25H2.7501Z" style="fill:#231f20;"/></svg>