<?xml version="1.0" encoding="UTF-8"?><svg id="a" xmlns="http://www.w3.org/2000/svg" viewBox="0 0 16 16"><path d="m8,0C3.5817,0,0,3.5817,0,8s3.5817,8,8,8,8-3.5817,8-8S12.4183,0,8,0Zm0,14.25c-3.4518,0-6.25-2.7982-6.25-6.25S4.5482,1.75,8,1.75s6.25,2.7982,6.25,6.25-2.7982,6.25-6.25,6.25Z" style="fill:#231f20;"/><path d="m11.7308,6.1539c-.0156-.0581-.0296-.1143-.0562-.167-.008-.016-.0076-.0336-.0166-.0493-.0186-.0322-.0488-.0513-.0707-.0801-.0372-.0493-.0735-.0959-.1202-.1362-.0423-.0366-.0875-.0636-.1353-.0911-.0488-.0284-.0959-.0546-.1501-.0733-.057-.0197-.1143-.0276-.1742-.0352-.0367-.0047-.0692-.0217-.1072-.0217-.0185,0-.0339.0093-.0521.0105-.058.0034-.1128.0192-.17.0344-.0576.0154-.1133.0294-.1656.0557-.0162.0081-.0341.0076-.05.0168l-2.4373,1.4072v-.6495c0-.0185-.0094-.0339-.0106-.0522-.0034-.0576-.019-.1121-.0341-.1689-.0156-.0581-.0296-.1143-.0562-.167-.008-.016-.0076-.0336-.0166-.0493-.0186-.0322-.0488-.0513-.0707-.0801-.0372-.0493-.0735-.0959-.1202-.1362-.0423-.0366-.0875-.0636-.1353-.0911-.0488-.0284-.0959-.0546-.1501-.0733-.057-.0197-.1143-.0276-.1742-.0352-.0367-.0047-.0692-.0217-.1072-.0217-.0185,0-.0339.0093-.0521.0105-.058.0034-.1128.0192-.17.0344-.0576.0154-.1133.0294-.1656.0557-.0162.0081-.0341.0076-.05.0168l-2.8146,1.625c-.0156.009-.0239.0244-.0388.0342-.0494.0324-.0898.0742-.1324.1168-.0414.0417-.0823.0809-.114.1292-.0101.0152-.0259.0238-.0351.0398-.019.0328-.0204.0693-.0347.1033-.0236.056-.0454.1099-.057.1694-.0107.0556-.0116.1091-.0115.1649-.0001.0558.0007.1093.0115.1649.0116.0596.0334.1134.057.1694.0143.0341.0157.0705.0347.1033.0092.016.025.0246.0351.0398.0317.0482.0725.0875.114.1292.0426.0427.083.0844.1324.1168.0148.0098.0232.0252.0388.0342l2.8146,1.625c.0158.0092.0337.0087.0498.0167.0524.0264.1084.0405.1662.056.057.0151.1116.0308.1694.0342.0182.0012.0338.0106.0523.0106.0381,0,.0706-.017.1074-.0217.0599-.0076.1169-.0156.174-.0352.0543-.0187.1016-.0449.1505-.0734.0476-.0274.0927-.0544.1349-.0909.0468-.0405.0832-.0871.1205-.1365.0218-.0288.0519-.0479.0705-.08.009-.0156.0086-.0333.0165-.0492.0266-.0528.0407-.1091.0562-.1672.015-.0568.0307-.1112.0341-.1687.0012-.0182.0106-.0337.0106-.0522v-.6496l2.4373,1.4072c.0158.0092.0337.0087.0498.0167.0524.0264.1084.0405.1662.056.057.0151.1116.0308.1694.0342.0182.0012.0338.0106.0523.0106.0381,0,.0706-.017.1074-.0217.0599-.0076.1169-.0156.174-.0352.0543-.0187.1016-.0449.1505-.0734.0476-.0274.0927-.0544.1349-.0909.0468-.0405.0832-.0871.1205-.1365.0218-.0288.0519-.0479.0705-.08.009-.0156.0086-.0333.0165-.0492.0266-.0528.0407-.1091.0562-.1672.015-.0568.0307-.1112.0341-.1687.0012-.0182.0106-.0337.0106-.0522v-3.25c0-.0185-.0094-.0339-.0106-.0522-.0034-.0576-.019-.1121-.0341-.1689Z" style="fill:#231f20;"/></svg>