<?xml version="1.0" encoding="UTF-8"?><svg id="a" xmlns="http://www.w3.org/2000/svg" viewBox="0 0 16 16"><path d="m15.125,7.125H.875c-.4833,0-.875.3917-.875.875s.3917.875.875.875h14.25c.4833,0,.875-.3918.875-.875s-.3917-.875-.875-.875Z" style="fill:#231f20;"/><path d="m8.6875,4.125v2h1.75v-2c0-.4833-.3917-.875-.875-.875s-.875.3917-.875.875Z" style="fill:#231f20;"/><path d="m10.4375,11.875v-2h-1.75v2c0,.4832.3917.875.875.875s.875-.3918.875-.875Z" style="fill:#231f20;"/><path d="m5.5625,4.125v2h1.75v-2c0-.4833-.3917-.875-.875-.875s-.875.3917-.875.875Z" style="fill:#231f20;"/><path d="m7.3125,11.875v-2h-1.75v2c0,.4832.3917.875.875.875s.875-.3918.875-.875Z" style="fill:#231f20;"/><path d="m2.375,2.75c-.4833,0-.875.3917-.875.875v2.5h2.5v-2.5c0-.4833-.3917-.875-.875-.875h-.75Z" style="fill:#231f20;"/><path d="m3.125,13.25c.4833,0,.875-.3918.875-.875v-2.5H1.5v2.5c0,.4832.3917.875.875.875h.75Z" style="fill:#231f20;"/><path d="m13.625,2.75h-.75c-.4833,0-.875.3917-.875.875v2.5h2.5v-2.5c0-.4833-.3917-.875-.875-.875Z" style="fill:#231f20;"/><path d="m13.625,13.25c.4833,0,.875-.3918.875-.875v-2.5h-2.5v2.5c0,.4832.3917.875.875.875h.75Z" style="fill:#231f20;"/></svg>