<?xml version="1.0" encoding="UTF-8"?><svg id="a" xmlns="http://www.w3.org/2000/svg" viewBox="0 0 16 16"><rect y="2" width="2.5" height="12" rx=".875" ry=".875" style="fill:#231f20;"/><rect x="13.5" y="2" width="2.5" height="12" rx=".875" ry=".875" style="fill:#231f20;"/><path d="m8.875,12.625V3.375c0-.4833-.3917-.875-.875-.875s-.875.3917-.875.875v9.25c0,.4832.3917.875.875.875s.875-.3918.875-.875Z" style="fill:#231f20;"/><path d="m11.125,2.5c-.4833,0-.875.3917-.875.875v9.25c0,.4832.3917.875.875.875s.875-.3918.875-.875V3.375c0-.4833-.3917-.875-.875-.875Z" style="fill:#231f20;"/><path d="m4.875,2.5c-.4833,0-.875.3917-.875.875v9.25c0,.4832.3917.875.875.875s.875-.3918.875-.875V3.375c0-.4833-.3917-.875-.875-.875Z" style="fill:#231f20;"/></svg>