<?xml version="1.0" encoding="UTF-8"?><svg id="a" xmlns="http://www.w3.org/2000/svg" viewBox="0 0 16 16"><path d="m4.625,4.5c-.4833,0-.875.3917-.875.875v5.25c0,.4832.3917.875.875.875s.875-.3918.875-.875v-5.25c0-.4833-.3917-.875-.875-.875Z" style="fill:#231f20;"/><path d="m10.5,10.625c0,.4832.3917.875.875.875s.875-.3918.875-.875v-5.25c0-.4833-.3917-.875-.875-.875s-.875.3917-.875.875v5.25Z" style="fill:#231f20;"/><path d="m8.5,5.5v5c0,.2761.2239.5.5.5s.5-.2239.5-.5v-5c0-.2762-.2239-.5-.5-.5s-.5.2238-.5.5Z" style="fill:#231f20;"/><path d="m6.5,5.5v5c0,.2761.2239.5.5.5s.5-.2239.5-.5v-5c0-.2762-.2239-.5-.5-.5s-.5.2238-.5.5Z" style="fill:#231f20;"/><path d="m2.5,15h1.5c.4833,0,.875-.3918.875-.875s-.3917-.875-.875-.875h-1.5c-.4142,0-.75-.3358-.75-.75v-1.5c0-.4833-.3917-.875-.875-.875s-.875.3917-.875.875v1.5c0,1.3807,1.1193,2.5,2.5,2.5Z" style="fill:#231f20;"/><path d="m15.125,10.125c-.4833,0-.875.3917-.875.875v1.5c0,.4142-.3358.75-.75.75h-1.5c-.4833,0-.875.3917-.875.875s.3917.875.875.875h1.5c1.3807,0,2.5-1.1193,2.5-2.5v-1.5c0-.4833-.3917-.875-.875-.875Z" style="fill:#231f20;"/><path d="m.875,5.875c.4833,0,.875-.3917.875-.875v-1.5c0-.4142.3358-.75.75-.75h1.5c.4833,0,.875-.3917.875-.875s-.3917-.875-.875-.875h-1.5C1.1193,1,0,2.1193,0,3.5v1.5c0,.4833.3917.875.875.875Z" style="fill:#231f20;"/><path d="m13.5,1h-1.5c-.4833,0-.875.3918-.875.875s.3917.875.875.875h1.5c.4142,0,.75.3358.75.75v1.5c0,.4833.3917.875.875.875s.875-.3917.875-.875v-1.5c0-1.3807-1.1193-2.5-2.5-2.5Z" style="fill:#231f20;"/></svg>