<?xml version="1.0" encoding="UTF-8"?><svg id="a" xmlns="http://www.w3.org/2000/svg" viewBox="0 0 16 16"><path d="m15.125,5.0884h-2.9155l-1.4028-3.3865c-.1849-.4465-.6968-.6585-1.1432-.4736s-.6584.6968-.4736,1.1432l1.1254,2.7169h-4.6306l1.1254-2.7169c.1849-.4465-.0271-.9583-.4736-1.1432s-.9583.0271-1.1432.4736l-1.4028,3.3865H.875c-.4833,0-.875.3918-.875.875s.3917.875.875.875h.8751v5.5c0,1.3807,1.1192,2.5,2.4999,2.5h7.5c1.3807,0,2.5-1.1193,2.5-2.5v-5.5h.875c.4833,0,.875-.3917.875-.875s-.3917-.875-.875-.875Zm-2.625,7.25c0,.4142-.3358.75-.75.75h-7.5c-.4142,0-.75-.3358-.75-.75v-5.5h9v5.5Z" style="fill:#231f20;"/><path d="m8,12.2134c.4833,0,.875-.3917.875-.875v-2.75c0-.4832-.3917-.875-.875-.875s-.875.3918-.875.875v2.75c0,.4833.3917.875.875.875Z" style="fill:#231f20;"/><path d="m5.25,12.2134c.4833,0,.875-.3917.875-.875v-2.75c0-.4832-.3917-.875-.875-.875s-.875.3918-.875.875v2.75c0,.4833.3917.875.875.875Z" style="fill:#231f20;"/><path d="m10.75,12.2134c.4833,0,.875-.3917.875-.875v-2.75c0-.4832-.3917-.875-.875-.875s-.875.3918-.875.875v2.75c0,.4833.3917.875.875.875Z" style="fill:#231f20;"/></svg>