<?xml version="1.0" encoding="UTF-8"?><svg id="a" xmlns="http://www.w3.org/2000/svg" viewBox="0 0 16 16"><path d="m2.5,12h8.75c1.3807,0,2.5-1.1193,2.5-2.5v-3c0-1.3807-1.1193-2.5-2.5-2.5H2.5c-1.3807,0-2.5,1.1193-2.5,2.5v3c0,1.3807,1.1193,2.5,2.5,2.5Zm-.75-5.5c0-.4142.3358-.75.75-.75h8.75c.4142,0,.75.3358.75.75v3c0,.4142-.3358.75-.75.75H2.5c-.4142,0-.75-.3358-.75-.75v-3Z" style="fill:#231f20;"/><path d="m15.125,6c-.4833,0-.875.3918-.875.875v2.25c0,.4833.3917.875.875.875s.875-.3917.875-.875v-2.25c0-.4832-.3917-.875-.875-.875Z" style="fill:#231f20;"/><rect x="2.25" y="6.25" width="9.25" height="3.5" rx=".25" ry=".25" style="fill:#231f20;"/></svg>