<?xml version="1.0" encoding="UTF-8"?><svg id="a" xmlns="http://www.w3.org/2000/svg" viewBox="0 0 16 16"><path d="m8.875,1.9132v-.4632c0-.4833-.3917-.875-.875-.875s-.875.3917-.875.875v.4632c-2.3425.4152-4.125,2.4501-4.125,4.9118v2.5c0,.8795-.3527,1.6745-.9201,2.2596-.3365.1219-.5799.4368-.5799.8154,0,.4833.3917.875.875.875h11.25c.4833,0,.875-.3917.875-.875,0-.3785-.2434-.6934-.5799-.8154-.5674-.5851-.9201-1.3801-.9201-2.2596v-2.5c0-2.4617-1.7825-4.4966-4.125-4.9118Zm-4.6556,9.6118c.329-.6664.5306-1.4064.5306-2.2v-2.5c0-1.7949,1.4551-3.25,3.25-3.25s3.25,1.4551,3.25,3.25v2.5c0,.7935.2017,1.5336.5306,2.2h-7.5613Z" style="fill:#231f20;"/><path d="m9.75,13.675h-3.5c0,.9665.7835,1.75,1.75,1.75s1.75-.7835,1.75-1.75Z" style="fill:#231f20;"/></svg>