<?xml version="1.0" encoding="UTF-8"?><svg id="a" xmlns="http://www.w3.org/2000/svg" viewBox="0 0 16 16"><path d="m8,15.6c.9665,0,1.75-.7835,1.75-1.75h-3.5c0,.9665.7835,1.75,1.75,1.75Z" style="fill:#231f20;"/><path d="m4.75,7.4016l-1.5895-1.5895c-.0941.3825-.1605.7759-.1605,1.1879v2.5c0,.8795-.3527,1.6746-.9202,2.2596-.3364.1219-.5798.4368-.5798.8154,0,.4832.3917.875.875.875h8.4234l-1.75-1.75h-4.8291c.329-.6664.5307-1.4065.5307-2.2v-2.0984Z" style="fill:#231f20;"/><path d="m6.6844,4.0328c.4029-.179.8463-.2828,1.3156-.2828,1.7949,0,3.25,1.4551,3.25,3.25v1.5984l1.9334,1.9334c-.1105-.3256-.1834-.6686-.1834-1.0318v-2.5c0-2.4617-1.7825-4.4966-4.125-4.9118v-.4632c0-.4833-.3917-.875-.875-.875s-.875.3917-.875.875v.4632c-.6239.1106-1.2031.3428-1.7245.6606l1.2839,1.2839Z" style="fill:#231f20;"/><path d="m.929.9289c-.3417.3417-.3417.8958,0,1.2375l.7071.7071,11.4905,11.4905.7071.7071c.3417.3417.8958.3417,1.2374,0,.3417-.3417.3417-.8957,0-1.2374L2.1664.9289c-.3417-.3417-.8958-.3417-1.2374,0Z" style="fill:#231f20;"/></svg>