<?xml version="1.0" encoding="UTF-8"?><svg id="a" xmlns="http://www.w3.org/2000/svg" viewBox="0 0 16 16"><path d="m9.8143,12.4659l-.9327.7827v-1.7154l-2.9308-2.9307-2.7199,2.2823c-.3702.3106-.4185.8625-.1078,1.2327.3106.3702.8625.4185,1.2327.1078l2.7758-2.3292v5.2289c0,.0417.0181.0775.0237.1177.0084.0611.0148.1202.0362.179.0214.0588.0546.1084.0875.1605.0215.0344.0305.0733.0573.1052.0084.01.0206.0139.0294.0235.0422.0462.0935.0792.1447.1155.043.0303.0818.0649.1287.0867.0469.022.0986.0294.1496.0429.0605.0157.1185.0339.1808.0365.013.0005.0239.0075.037.0075.0419,0,.0777-.0181.118-.0238.0609-.0084.1199-.0148.1786-.0361.0589-.0214.1085-.0546.1608-.0876.0343-.0214.0732-.0305.1051-.0573l2.4874-2.0872-1.2421-1.2422Z" style="fill:#231f20;"/><path d="m13.0417,4.6945c.0075-.0218.0129-.0427.0187-.0649.0148-.0676.0226-.1328.0212-.2019.0013-.0692-.0064-.1344-.0212-.202-.0057-.0221-.0111-.043-.0186-.0648-.0475-.1575-.1241-.3073-.2595-.4208L8.569.2047c-.032-.0269-.0711-.0359-.1055-.0575-.0521-.0328-.1015-.0659-.1602-.0873-.0588-.0214-.118-.0278-.1791-.0362-.0402-.0056-.0759-.0237-.1176-.0237-.0131,0-.024.007-.037.0075-.0623.0027-.1204.0208-.1808.0365-.051.0135-.1027.0209-.1496.0429-.0469.0218-.0858.0565-.1288.0869-.0511.0362-.1024.0692-.1445.1152-.0088.0096-.0211.0135-.0295.0236-.0269.032-.0359.0711-.0575.1055-.0328.0521-.0659.1015-.0873.1602-.0214.0588-.0278.118-.0362.1791-.0056.0402-.0237.0759-.0237.1176v3.6049l2.9236,2.9236,2.7271-2.2882c.1354-.1136.212-.2634.2595-.4208Zm-4.1602,1.4094v-3.3524l1.9977,1.6762-1.9977,1.6762Z" style="fill:#231f20;"/><path d="m.929.9289c-.3417.3417-.3417.8958,0,1.2375l.7071.7071,11.4905,11.4905.7071.7071c.3417.3417.8958.3417,1.2374,0,.3417-.3417.3417-.8957,0-1.2374L2.1664.9289c-.3417-.3417-.8958-.3417-1.2374,0Z" style="fill:#231f20;"/></svg>