<?xml version="1.0" encoding="UTF-8"?><svg id="a" xmlns="http://www.w3.org/2000/svg" viewBox="0 0 16 16"><path d="m15.5623,2.577c-1.1769-.681-2.5393-1.0771-3.9969-1.077-1.2859,0-2.4896.3221-3.5654.8624-1.0758-.5403-2.2795-.8625-3.5654-.8624-1.4576,0-2.8199.396-3.9969,1.077-.2658.1534-.4046.427-.4203.7122-.0031.0297-.0173.0554-.0173.0858v10.25c0,.0184.0094.0338.0105.052.0034.0577.0191.1122.0342.1692.0156.0581.0297.1143.0562.1669.0079.0159.0075.0336.0165.0493.0186.0321.0487.0511.0705.08.0373.0494.0737.0961.1205.1365.0421.0365.0872.0635.1348.0909.0489.0285.0964.0548.1508.0735.0568.0195.1137.0274.1733.035.0369.0048.0695.0218.1078.0218.0186,0,.0342-.0095.0525-.0106.0576-.0034.112-.019.1689-.0341.058-.0155.114-.0295.1666-.056.0161-.0081.0339-.0076.0497-.0167.0016-.0009.0023-.0025.0038-.0034.9185-.5305,1.9811-.8392,3.1181-.8392s2.1995.3087,3.1179.8392c.0016.0009.0023.0024.0039.0034.0195.0113.0414.0111.0615.0207.0358.0177.0725.0293.1109.042.0325.011.0635.0208.0971.028.0406.0081.0794.0137.1203.0159.0188.0012.0347.0109.0538.0109.0192,0,.0352-.0097.054-.0109.0407-.0021.0792-.0078.1196-.0158.0338-.0071.0649-.017.0977-.0281.0383-.0128.075-.0244.1107-.042.02-.0096.0419-.0093.0615-.0206.0016-.0009.0023-.0025.0038-.0034.9185-.5305,1.9811-.8392,3.1181-.8392s2.1995.3087,3.118.8392c.0016.0009.0023.0024.0038.0034.0158.0092.0337.0087.0498.0167.0524.0264.1084.0405.1662.056.057.0151.1116.0308.1694.0342.0182.0012.0338.0106.0523.0106.0381,0,.0706-.017.1074-.0217.0599-.0076.1171-.0155.174-.0352.0542-.0187.1014-.0449.1501-.0733.0477-.0275.093-.0546.1353-.0911.0467-.0405.0831-.087.1203-.1364.0218-.0288.0519-.0479.0705-.08.009-.0156.0086-.0333.0165-.0492.0266-.0528.0407-.1091.0563-.1674.015-.0567.0307-.1111.0341-.1686.0012-.0182.0106-.0337.0106-.0522V3.375c0-.0305-.0143-.0564-.0174-.0861-.0158-.285-.1545-.5584-.4203-.7119ZM7.125,12.2762c-.8423-.3043-1.7429-.4863-2.6904-.4862-.9454,0-1.8439.1813-2.6846.4843V3.874c.815-.3914,1.72-.624,2.6846-.624.9669,0,1.8739.2338,2.6904.6269v8.3993Zm7.125-.002c-.8406-.3029-1.7391-.4843-2.6846-.4842-.9476,0-1.8481.182-2.6904.4863V3.8768c.8165-.3931,1.7236-.6269,2.6905-.6268.9645,0,1.8695.2327,2.6845.624v8.4002Z" style="fill:#231f20;"/></svg>