<?xml version="1.0" encoding="UTF-8"?><svg id="a" xmlns="http://www.w3.org/2000/svg" viewBox="0 0 16 16"><path d="m5,0c-1.3807,0-2.5,1.1193-2.5,2.5v12.625c0,.2239.0854.4478.2563.6187.3417.3417.8958.3417,1.2374,0l4.0063-4.0063,4.0063,4.0063c.3417.3417.8958.3417,1.2374,0,.1709-.1709.2563-.3948.2563-.6187V2.5c0-1.3807-1.1193-2.5-2.5-2.5h-6Zm6.75,2.5v10.5126l-3.1025-3.1025c-.1783-.1783-.4139-.2585-.6475-.2507-.2336-.0078-.4692.0723-.6475.2507l-3.1025,3.1025V2.5c0-.4142.3358-.75.75-.75h6c.4142,0,.75.3358.75.75Z" style="fill:#231f20;"/></svg>