<?xml version="1.0" encoding="UTF-8"?><svg id="a" xmlns="http://www.w3.org/2000/svg" viewBox="0 0 16 16"><path d="m8,1C3.5817,1,0,3.6863,0,7c0,1.892,1.1746,3.572,3,4.6699v3.4551c0,.114.0233.2274.0676.3344.0887.2139.259.3843.4729.473.1044.0432.2151.0649.3264.0659.0029,0,.0052.0016.0081.0016s.0052-.0016.0081-.0016c.1113-.001.222-.0228.3264-.0659.1069-.0444.2036-.1081.2842-.1887l2.7715-2.7715c.2422.0165.4867.0278.7347.0278,4.4183,0,8-2.6863,8-6S12.4183,1,8,1Zm0,10.25c-.3282,0-.6479-.0223-.9625-.0555v.0176c-.2579-.0314-.5251.038-.723.236l-1.5645,1.5645v-1.8226c0-.3318-.1917-.6104-.4639-.7587v-.0187c-1.5361-.7743-2.5361-2.0125-2.5361-3.4126,0-2.3472,2.7982-4.25,6.25-4.25s6.25,1.9028,6.25,4.25-2.7983,4.25-6.25,4.25Z" style="fill:#231f20;"/></svg>