<?xml version="1.0" encoding="UTF-8"?><svg id="a" xmlns="http://www.w3.org/2000/svg" viewBox="0 0 16 16"><path d="m13.5.9948H2.5C1.1193.9948,0,2.1141,0,3.4948v7c0,1.3807,1.1193,2.5,2.5,2.5h.5v2.1302c0,.114.0233.2274.0676.3344.0887.2139.259.3843.4729.473.1044.0432.2151.0649.3264.0659.0029,0,.0052.0016.0081.0016s.0052-.0016.0081-.0016c.1113-.001.222-.0228.3264-.0659.1069-.0444.2036-.1081.2842-.1887l2.7489-2.7489h6.2574c1.3807,0,2.5-1.1193,2.5-2.5V3.4948c0-1.3807-1.1193-2.5-2.5-2.5Zm.75,9.5c0,.4142-.3358.75-.75.75h-6.6195c-.2241-.0001-.4481.0853-.619.2562l-1.5115,1.5115v-.8928c0-.4833-.3917-.875-.875-.875h-1.375c-.4142,0-.75-.3358-.75-.75V3.4948c0-.4142.3358-.75.75-.75h11c.4142,0,.75.3358.75.75v7Z" style="fill:#231f20;"/></svg>