<?xml version="1.0" encoding="UTF-8"?><svg id="a" xmlns="http://www.w3.org/2000/svg" viewBox="0 0 16 16"><path d="m11.8891,1.9859C9.7412-.162,6.2588-.162,4.1109,1.9859s-2.1479,5.6303,0,7.7782l1.2374-1.2375c-1.4644-1.4644-1.4644-3.8388,0-5.3033,1.4645-1.4645,3.8389-1.4644,5.3033,0,1.4645,1.4645,1.4645,3.8388,0,5.3033l1.2375,1.2375c2.1479-2.1479,2.1479-5.6303,0-7.7782Z" style="fill:#231f20;"/><path d="m11.8883,9.7634l-1.2374-1.2375c-.6212.6212-1.041,1.3593-1.3029,2.1391h-2.6959c-.2619-.7798-.6818-1.5179-1.3029-2.1391l-1.2374,1.2375c.7322.7322,1.0983,1.6919,1.0983,2.6516h5.58c0-.9597.3661-1.9194,1.0983-2.6516Z" style="fill:#231f20;"/><path d="m5.21,13.875c0,.9665.7835,1.75,1.75,1.75h2.08c.9665,0,1.75-.7835,1.75-1.75v-.5h-5.58v.5Z" style="fill:#231f20;"/><path d="m6,5.875c0-1.1046.8954-2,2-2,.2761,0,.5-.2239.5-.5s-.2239-.5-.5-.5c-1.6569,0-3,1.3431-3,3,0,.2761.2239.5.5.5s.5-.2239.5-.5Z" style="fill:#231f20;"/></svg>