<?xml version="1.0" encoding="UTF-8"?><svg id="a" xmlns="http://www.w3.org/2000/svg" viewBox="0 0 16 16"><path d="m10.875,0h-5.75c-1.3807,0-2.5,1.1193-2.5,2.5v11c0,1.3807,1.1193,2.5,2.5,2.5h5.75c1.3807,0,2.5-1.1193,2.5-2.5V2.5c0-1.3807-1.1193-2.5-2.5-2.5Zm-5.625,14.25c-.4833,0-.875-.3918-.875-.875s.3917-.875.875-.875.875.3917.875.875-.3917.875-.875.875Zm0-2.75c-.4833,0-.875-.3918-.875-.875s.3917-.875.875-.875.875.3917.875.875-.3917.875-.875.875Zm0-2.75c-.4833,0-.875-.3918-.875-.875s.3917-.875.875-.875.875.3917.875.875-.3917.875-.875.875Zm2.75,5.5c-.4833,0-.875-.3918-.875-.875s.3917-.875.875-.875.875.3917.875.875-.3917.875-.875.875Zm0-2.75c-.4833,0-.875-.3918-.875-.875s.3917-.875.875-.875.875.3917.875.875-.3917.875-.875.875Zm0-2.75c-.4833,0-.875-.3918-.875-.875s.3917-.875.875-.875.875.3917.875.875-.3917.875-.875.875Zm3.625,4.625c0,.4832-.3917.875-.875.875s-.875-.3918-.875-.875v-2.75c0-.4833.3917-.875.875-.875s.875.3917.875.875v2.75Zm-.875-4.625c-.4833,0-.875-.3918-.875-.875s.3917-.875.875-.875.875.3917.875.875-.3917.875-.875.875Zm.875-3.625c0,.4832-.3917.875-.875.875h-5.5c-.4833,0-.875-.3918-.875-.875v-2.5c0-.4833.3917-.875.875-.875h5.5c.4833,0,.875.3917.875.875v2.5Z" style="fill:#231f20;"/></svg>