<?xml version="1.0" encoding="UTF-8"?><svg id="a" xmlns="http://www.w3.org/2000/svg" viewBox="0 0 16 16"><path d="m13.5,2h-.625V.875c0-.4833-.3917-.875-.875-.875s-.875.3917-.875.875v1.125h-6.25V.875c0-.4833-.3917-.875-.875-.875s-.875.3917-.875.875v1.125h-.625c-1.3807,0-2.5,1.1193-2.5,2.5v9c0,1.3807,1.1193,2.5,2.5,2.5h11c1.3807,0,2.5-1.1193,2.5-2.5V4.5c0-1.3807-1.1193-2.5-2.5-2.5Zm.75,11.5c0,.4142-.3358.75-.75.75H2.5c-.4142,0-.75-.3358-.75-.75v-6.75h12.5v6.75Zm0-8.5H1.75v-.5c0-.4142.3358-.75.75-.75h11c.4142,0,.75.3358.75.75v.5Z" style="fill:#231f20;"/><circle cx="12.5" cy="8.25" r=".875" style="fill:#231f20;"/><circle cx="12.5" cy="10.5" r=".875" style="fill:#231f20;"/><circle cx="3.5" cy="12.75" r=".875" style="fill:#231f20;"/><circle cx="3.5" cy="10.5" r=".875" style="fill:#231f20;"/><circle cx="6.5" cy="8.25" r=".875" style="fill:#231f20;"/><circle cx="6.5" cy="12.75" r=".875" style="fill:#231f20;"/><circle cx="6.5" cy="10.5" r=".875" style="fill:#231f20;"/><circle cx="9.5" cy="8.25" r=".875" style="fill:#231f20;"/><circle cx="9.5" cy="12.75" r=".875" style="fill:#231f20;"/><circle cx="9.5" cy="10.5" r=".875" style="fill:#231f20;"/></svg>