<?xml version="1.0" encoding="UTF-8"?><svg id="a" xmlns="http://www.w3.org/2000/svg" viewBox="0 0 16 16"><path d="m11.5,8.7365c0-1.933-1.567-3.5-3.5-3.5-.0348,0-.067.0092-.1016.0103l3.5913,3.5913c.001-.0345.0103-.0668.0103-.1016Z" style="fill:#231f20;"/><path d="m6.2686,8.9202l-1.506-1.5059c-.167.4084-.2626.8538-.2626,1.3223,0,1.933,1.567,3.5,3.5,3.5.4685,0,.9139-.0956,1.3223-.2626l-1.5059-1.5059c-.8177-.0865-1.4613-.7301-1.5479-1.5479Z" style="fill:#231f20;"/><path d="m13.5,2.9759h-1.7429l-.8742-1.5142c-.0189-.0328-.0497-.0522-.072-.0816-.0367-.0485-.0725-.0943-.1184-.1342-.0427-.0371-.0885-.0645-.1369-.0923-.0483-.028-.095-.0541-.1486-.0726-.0574-.0198-.1151-.0278-.1754-.0354-.0366-.0046-.0688-.0215-.1067-.0215h-4.25c-.0378,0-.0701.0169-.1067.0215-.0603.0076-.1179.0156-.1754.0354-.0536.0185-.1002.0446-.1486.0726-.0484.0278-.0942.0552-.1369.0923-.0459.0399-.0817.0857-.1184.1342-.0223.0294-.0531.0488-.072.0816l-.3674.6363,1.2811,1.2811.3493-.605h3.2397l.8725,1.5112c.1649.2856.4677.4304.7757.4247-.0059,0-.0118.0017-.0178.0017v.0142h2.2497c.4142,0,.75.3358.75.75v6.1224l1.6239,1.6239c.0746-.2371.1261-.4846.1261-.7463v-7c0-1.3807-1.1193-2.5-2.5-2.5Zm-1.8124,1.6326c-.0853.0493-.1755.0727-.2667.0867.0909-.0182.182-.0408.2667-.0897.3131-.1808.4717-.5259.4308-.8635.0422.3386-.1168.6851-.4308.8665Z" style="fill:#231f20;"/><path d="m2.5,14.9759h9.8243l-1.75-1.75H2.5c-.4142,0-.75-.3358-.75-.75v-7c0-.2913.1708-.5367.4133-.6609l-1.2589-1.2589c-.5513.4584-.9045,1.1467-.9045,1.9198v7c0,1.3807,1.1193,2.5,2.5,2.5Z" style="fill:#231f20;"/><path d="m1.5477.3102C1.2059-.0315.6519-.0315.3102.3102S-.0315,1.2059.3102,1.5476l.6186.6186s0,.0001.0001.0002l12.9047,12.9047.6187.6187c.3417.3417.8958.3417,1.2374,0,.3417-.3417.3417-.8957,0-1.2374l-7.071-7.0711L2.1664.9289l-.6187-.6187Z" style="fill:#231f20;"/></svg>