<?xml version="1.0" encoding="UTF-8"?><svg id="a" xmlns="http://www.w3.org/2000/svg" viewBox="0 0 16 16"><path d="m8,5.2365c-1.933,0-3.5,1.567-3.5,3.5s1.567,3.5,3.5,3.5,3.5-1.567,3.5-3.5-1.567-3.5-3.5-3.5Zm0,5.25c-.9665,0-1.75-.7834-1.75-1.75s.7835-1.75,1.75-1.75,1.75.7835,1.75,1.75-.7835,1.75-1.75,1.75Z" style="fill:#231f20;"/><path d="m13.5,2.9759h-1.7429l-.8742-1.5142c-.0189-.0328-.0497-.0522-.072-.0816-.0367-.0485-.0725-.0943-.1184-.1342-.0427-.0371-.0885-.0645-.1369-.0923-.0483-.028-.095-.0541-.1486-.0726-.0574-.0198-.1151-.0278-.1754-.0354-.0366-.0046-.0688-.0215-.1067-.0215h-4.25c-.0378,0-.0701.0169-.1067.0215-.0603.0076-.1179.0156-.1754.0354-.0536.0185-.1002.0446-.1486.0726-.0484.0278-.0942.0552-.1369.0923-.0459.0399-.0817.0857-.1184.1342-.0223.0294-.0531.0488-.072.0816l-.8742,1.5142h-.4929v-.0029c0-.4142-.3358-.75-.75-.75h-.25c-.4142,0-.75.3358-.75.75v.0533c-1.1411.2317-2,1.2401-2,2.4496v7c0,1.3807,1.1193,2.5,2.5,2.5h11c1.3807,0,2.5-1.1193,2.5-2.5v-7c0-1.3807-1.1193-2.5-2.5-2.5Zm-1.8124,1.6297c.3131-.1808.4717-.5259.4308-.8635.0422.3386-.1168.6851-.4308.8665-.0853.0493-.1755.0727-.2667.0867.0909-.0182.182-.0408.2667-.0897Zm-7.3752,0c.0878.0507.1821.0751.2765.093-.0947-.015-.1882-.0391-.2765-.09-.314-.1813-.4731-.5279-.4308-.8665-.0409.3376.1177.6827.4308.8635Zm9.9376,7.8703c0,.4142-.3358.75-.75.75H2.5c-.4142,0-.75-.3358-.75-.75v-7c0-.4142.3358-.75.75-.75h2.2v-.0107c-.0045-.0002-.0088-.0016-.0132-.002.3235.0229.6478-.1281.8209-.4279l.8725-1.5112h3.2397l.8725,1.5112c.1649.2856.4677.4304.7757.4247-.0059,0-.0118.0017-.0178.0017v.0142h2.2497c.4142,0,.75.3358.75.75v7Z" style="fill:#231f20;"/></svg>