<?xml version="1.0" encoding="UTF-8"?><svg id="a" xmlns="http://www.w3.org/2000/svg" viewBox="0 0 16 16"><circle cx="11.875" cy="9.625" r="1.125" style="fill:#231f20;"/><circle cx="4.125" cy="9.625" r="1.125" style="fill:#231f20;"/><path d="m14.4409,5.8115l-.5746-3.3179c-.1871-1.0799-1.124-1.8685-2.22-1.8685h-7.2925c-1.0959,0-2.0329.7886-2.2199,1.8685l-.5746,3.3179c-.9138.372-1.5591,1.2662-1.5591,2.3135v4.625c0,.4832.3917.875.875.875v.875c0,.4832.3917.875.875.875h.5c.4833,0,.875-.3918.875-.875v-.875h9.75v.875c0,.4832.3917.875.875.875h.5c.4833,0,.875-.3918.875-.875v-.875c.4833,0,.875-.3918.875-.875v-4.625c0-1.0474-.6454-1.9415-1.5591-2.3135ZM3.8356,2.7834c.0394-.2357.2434-.4084.4824-.4084h7.3639c.239,0,.443.1727.4824.4084l.475,2.8416H3.3606l.475-2.8416Zm10.4144,9.0916H1.75v-3.75c0-.4142.3358-.75.75-.75h11c.4142,0,.75.3358.75.75v3.75Z" style="fill:#231f20;"/></svg>