<?xml version="1.0" encoding="UTF-8"?><svg id="a" xmlns="http://www.w3.org/2000/svg" viewBox="0 0 16 16"><path d="m8,0C3.5817,0,0,3.5817,0,8s3.5817,8,8,8,8-3.5817,8-8S12.4183,0,8,0Zm0,14.25c-3.4518,0-6.25-2.7982-6.25-6.25S4.5482,1.75,8,1.75s6.25,2.7982,6.25,6.25-2.7982,6.25-6.25,6.25Z" style="fill:#231f20;"/><path d="m10.5273,6.6267h-5.0547c-.6896,0-1.0137.8524-.4983,1.3105l2.5273,2.2466c.2842.2526.7124.2526.9966,0l2.5273-2.2466c.5154-.4581.1913-1.3105-.4983-1.3105Z" style="fill:#231f20;"/></svg>