<?xml version="1.0" encoding="UTF-8"?><svg id="a" xmlns="http://www.w3.org/2000/svg" viewBox="0 0 16 16"><path d="m8,0C3.5817,0,0,3.5817,0,8s3.5817,8,8,8,8-3.5817,8-8S12.4183,0,8,0Zm0,14.25c-3.4518,0-6.25-2.7982-6.25-6.25S4.5482,1.75,8,1.75s6.25,2.7982,6.25,6.25-2.7982,6.25-6.25,6.25Z" style="fill:#231f20;"/><path d="m8.0627,4.9744l-2.2465,2.5273c-.2526.2842-.2526.7124,0,.9965l2.2465,2.5274c.4582.5154,1.3106.1913,1.3106-.4983v-5.0547c0-.6896-.8524-1.0137-1.3106-.4983Z" style="fill:#231f20;"/></svg>