<?xml version="1.0" encoding="UTF-8"?><svg id="a" xmlns="http://www.w3.org/2000/svg" viewBox="0 0 16 16"><path d="m14.6131,10.9199c.062-.0651.1196-.1332.1736-.2055.0147-.0198.0286-.0401.0426-.0605.0566-.0813.1086-.1652.1544-.2542.0065-.0128.012-.0261.0183-.039.0482-.0981.0907-.1989.1246-.3048,0,0,0,0,0-.0001.0312-.0977.0619-.1958.0798-.2993l.6052-3.494c.2386-1.3775-.8219-2.6375-2.2199-2.6375H4.1609l-.2692-1.5268c-.006-.0339-.0266-.0599-.0361-.0922-.0169-.0571-.0359-.1103-.0635-.1619-.0266-.0499-.0569-.0935-.0921-.1367-.0355-.0438-.0718-.0828-.1149-.119-.0431-.0362-.0879-.0651-.1371-.0924-.0486-.0271-.0967-.0494-.1504-.067-.0557-.0183-.1116-.0278-.1709-.0345-.0333-.0038-.0624-.0195-.0967-.0195H1.0298c-.4833,0-.875.3917-.875.875s.3917.875.875.875h1.2659l.9685,5.4924c.0037.0211.0173.0368.0225.0573l.1874,1.0818c.0179.1035.0486.2016.0798.2993,0,0,0,0,0,.0001.0339.106.0764.2067.1246.3048.0063.0129.0118.0262.0183.039.0458.0889.0976.1727.1542.2538.0142.0206.0281.0411.043.0611.0538.072.1112.14.173.2048.0248.0262.0504.0514.0765.0764.058.0554.1175.1082.1811.157.0375.0291.0768.0552.1162.082.0588.0396.1175.0786.18.1126.0524.0287.1073.0521.162.0767.0557.0248.1101.0513.168.0715.0724.0255.1479.043.2234.0611.0457.0109.0897.0258.1364.0338.1249.0217.2527.0343.3834.0343h7.2925c.1307,0,.2584-.0126.3834-.0343.0467-.0081.0907-.0229.1364-.0338.0754-.0181.151-.0356.2234-.0611.0579-.0203.1123-.0468.168-.0715.0547-.0245.1097-.048.162-.0767.0627-.0341.1214-.0731.1804-.1129.0391-.0266.0782-.0526.1155-.0815.0638-.0491.1236-.1021.1818-.1577.0258-.0248.051-.0496.0756-.0756Zm-1.1085-1.4534c-.0394.2357-.2434.4084-.4824.4084h-7.3639c-.239,0-.443-.1727-.4824-.4084l-.1889-1.1299c-.0012-.0079.002-.0152.0005-.0231l-.0859-.4872-.0337-.2014h-.0018l-.3967-2.25h9.1279c.3094,0,.5448.278.4938.5831l-.5865,3.5084Z" style="fill:#231f20;"/><circle cx="5.5538" cy="13.375" r="1.25" style="fill:#231f20;"/><circle cx="13.1266" cy="13.375" r="1.25" style="fill:#231f20;"/></svg>