<?xml version="1.0" encoding="UTF-8"?><svg id="a" xmlns="http://www.w3.org/2000/svg" viewBox="0 0 16 16"><path d="m15.125,10h-3.25c-.4833,0-.875.3918-.875.875v4.25c0,.4833.3917.875.875.875h3.25c.4832,0,.875-.3917.875-.875v-4.25c0-.4832-.3918-.875-.875-.875Zm-.875,4.25h-1.5v-2.5h1.5v2.5Z" style="fill:#231f20;"/><path d="m.875,16h3.25c.4832,0,.875-.3917.875-.875V.875c0-.4832-.3918-.875-.875-.875H.875c-.4833,0-.875.3918-.875.875v14.25c0,.4833.3917.875.875.875ZM1.75,1.75h1.5v12.5h-1.5V1.75Z" style="fill:#231f20;"/><path d="m9.625,16c.4832,0,.875-.3917.875-.875V5.875c0-.4832-.3918-.875-.875-.875h-3.25c-.4833,0-.875.3918-.875.875v9.25c0,.4833.3917.875.875.875h3.25Zm-2.375-9.25h1.5v7.5h-1.5v-7.5Z" style="fill:#231f20;"/></svg>