<?xml version="1.0" encoding="UTF-8"?><svg id="a" xmlns="http://www.w3.org/2000/svg" viewBox="0 0 16 16"><path d="m13.375,4c0-.4833-.3917-.875-.875-.875s-.875.3917-.875.875v6.625c0,2.002-1.6229,3.625-3.625,3.625s-3.625-1.623-3.625-3.625v-6.625c0-1.2426,1.0074-2.25,2.25-2.25s2.25,1.0074,2.25,2.25v6.625c0,.4833-.3917.875-.875.875s-.875-.3917-.875-.875v-4.875c0-.4833-.3917-.875-.875-.875s-.875.3917-.875.875v4.875c0,1.4498,1.1752,2.625,2.625,2.625s2.625-1.1752,2.625-2.625v-6.625c0-2.2092-1.7908-4-4-4S2.625,1.7908,2.625,4v6.625c0,2.9685,2.4065,5.375,5.375,5.375s5.375-2.4065,5.375-5.375v-6.625Z" style="fill:#231f20;"/></svg>