<?xml version="1.0" encoding="UTF-8"?><svg id="a" xmlns="http://www.w3.org/2000/svg" viewBox="0 0 16 16"><path d="m11.5,1.625h-.166c-.3556-.9474-1.2623-1.625-2.334-1.625h-2c-1.0716,0-1.9784.6776-2.334,1.625h-.166c-1.3807,0-2.5,1.1193-2.5,2.5v9.375c0,1.3807,1.1193,2.5,2.5,2.5h7c1.3807,0,2.5-1.1193,2.5-2.5V4.125c0-1.3807-1.1193-2.5-2.5-2.5Zm-4.25.125h1.5c.4142,0,.75.3358.75.75s-.3358.75-.75.75h-1.5c-.4142,0-.75-.3358-.75-.75s.3358-.75.75-.75Zm5,11.75c0,.4142-.3358.75-.75.75h-7c-.4142,0-.75-.3358-.75-.75V4.125c0-.4142.3358-.75.75-.75h.166c.3556.9474,1.2624,1.625,2.334,1.625h2c1.0717,0,1.9784-.6776,2.334-1.625h.166c.4142,0,.75.3358.75.75v9.375Z" style="fill:#231f20;"/></svg>