<?xml version="1.0" encoding="UTF-8"?><svg id="a" xmlns="http://www.w3.org/2000/svg" viewBox="0 0 16 16"><path d="m9.1451,6.0751c.3417-.3417.3417-.8958,0-1.2375-.3417-.3417-.8957-.3417-1.2374,0l-3.4471,3.4471c-1.0251,1.0251-1.0251,2.6872,0,3.7123s2.6871,1.0251,3.7123,0l4.6846-4.6846c1.5621-1.5621,1.5621-4.0947,0-5.6569S8.7627.0935,7.2006,1.6556L2.516,6.3402c-2.0991,2.0991-2.0991,5.5023,0,7.6014s5.5024,2.0991,7.6014,0l4.6846-4.6846c.3417-.3417.3417-.8957,0-1.2374s-.8958-.3417-1.2374,0l-4.6846,4.6846c-1.4156,1.4156-3.7108,1.4157-5.1265,0-1.4156-1.4156-1.4156-3.7109,0-5.1265l4.6846-4.6846c.8787-.8787,2.3033-.8787,3.1819,0s.8787,2.3033,0,3.182l-4.6846,4.6846c-.3417.3417-.8957.3417-1.2374,0s-.3417-.8958,0-1.2374l3.4471-3.4471Z" style="fill:#231f20;"/></svg>