<?xml version="1.0" encoding="UTF-8"?><svg id="a" xmlns="http://www.w3.org/2000/svg" viewBox="0 0 16 16"><path d="m8,0C3.5817,0,0,3.5817,0,8s3.5817,8,8,8,8-3.5817,8-8S12.4183,0,8,0Zm0,14.25c-3.4518,0-6.25-2.7982-6.25-6.25S4.5482,1.75,8,1.75s6.25,2.7982,6.25,6.25-2.7982,6.25-6.25,6.25Z" style="fill:#231f20;"/><path d="m10.8192,8.6171l-1.9442-1.1225v-3.7446c0-.4833-.3917-.875-.875-.875s-.875.3917-.875.875v4.25c0,.0381.017.0706.0217.1074.0076.0599.0155.1171.0352.174.0187.0542.0449.1014.0733.1501.0275.0477.0545.093.0911.1353.0403.0466.087.0829.1362.1202.0289.0219.048.0521.0801.0707l2.3816,1.375c.4185.2416.9537.0982,1.1953-.3203.2416-.4185.0983-.9536-.3203-1.1953Z" style="fill:#231f20;"/></svg>