<?xml version="1.0" encoding="UTF-8"?><svg id="a" xmlns="http://www.w3.org/2000/svg" viewBox="0 0 16 16"><path d="m.8839,15.1161c.4882.4882,1.2796.4882,1.7678,0l5.3484-5.3484,5.3484,5.3484c.4882.4882,1.2796.4882,1.7678,0s.4882-1.2796,0-1.7678l-5.3484-5.3484,5.3484-5.3484c.4882-.4882.4882-1.2796,0-1.7678s-1.2796-.4882-1.7678,0l-5.3484,5.3484L2.6516.8839c-.4882-.4882-1.2796-.4882-1.7678,0s-.4882,1.2796,0,1.7678l5.3484,5.3484L.8839,13.3484c-.4882.4882-.4882,1.2796,0,1.7678Z" style="fill:#231f20;"/></svg>