<?xml version="1.0" encoding="UTF-8"?><svg id="a" xmlns="http://www.w3.org/2000/svg" viewBox="0 0 16 16"><path d="m8,0C3.5817,0,0,3.5817,0,8s3.5817,8,8,8,8-3.5817,8-8S12.4183,0,8,0Zm0,14.25c-3.4518,0-6.25-2.7982-6.25-6.25S4.5482,1.75,8,1.75s6.25,2.7982,6.25,6.25-2.7982,6.25-6.25,6.25Z" style="fill:#231f20;"/><path d="m10.8284,5.1716c-.3417-.3417-.8958-.3417-1.2374,0l-1.591,1.591-1.591-1.591c-.3417-.3417-.8957-.3417-1.2374,0-.3417.3417-.3417.8957,0,1.2374l1.591,1.591-1.591,1.591c-.3417.3417-.3417.8957,0,1.2374.3417.3417.8958.3417,1.2374,0l1.591-1.591,1.591,1.591c.3417.3417.8957.3417,1.2374,0,.3417-.3417.3417-.8958,0-1.2374l-1.591-1.591,1.591-1.591c.3417-.3417.3417-.8958,0-1.2374Z" style="fill:#231f20;"/></svg>