<?xml version="1.0" encoding="UTF-8"?><svg id="a" xmlns="http://www.w3.org/2000/svg" viewBox="0 0 16 16"><path d="m13.5375,8h0c0-2.72-2.205-4.925-4.925-4.925-1.8463,0-3.444,1.0214-4.2848,2.526-.2063-.0374-.4167-.0635-.634-.0635-2.04,0-3.6937,1.6537-3.6937,3.6937s1.6537,3.6938,3.6937,3.6938h9.8438c1.36,0,2.4625-1.1025,2.4625-2.4625s-1.1024-2.4625-2.4625-2.4625Zm0,3.175H3.6937c-1.0735,0-1.9437-.8702-1.9437-1.9438s.8702-1.9437,1.9437-1.9437c.2652,0,.5176.054.7479.1501-.0874-.0388-.1642-.0942-.2339-.1578.0774.071.1667.1292.2649.17-.0025-.0003-.005-.0005-.0073-.0015.0066.0029.0115.0082.0181.0112v-.0068c.0966.0388.2009.0622.3116.0622.3541,0,.6555-.2126.7932-.5151l.0334-.025c.428-1.2474,1.5983-2.1498,2.9908-2.1498,1.7535,0,3.175,1.4215,3.175,3.175h0c0,.9665.7835,1.75,1.75,1.75.3936,0,.7125.319.7125.7125s-.3189.7125-.7125.7125Z" style="fill:#231f20;"/></svg>