<?xml version="1.0" encoding="UTF-8"?><svg id="a" xmlns="http://www.w3.org/2000/svg" viewBox="0 0 16 16"><path d="m13.5375,5.925h0c0-2.72-2.205-4.925-4.925-4.925-1.8463,0-3.444,1.0214-4.2848,2.526-.2063-.0374-.4167-.0635-.634-.0635-2.04,0-3.6937,1.6537-3.6937,3.6937s1.6537,3.6938,3.6937,3.6938h1.5563c.4833,0,.875-.3918.875-.875s-.3917-.875-.875-.875h-1.5563c-1.0735,0-1.9437-.8702-1.9437-1.9438s.8702-1.9437,1.9437-1.9437c.2652,0,.5176.054.7479.1501-.0874-.0388-.1642-.0942-.2339-.1578.0774.071.1667.1292.2649.17.0037.0004.0074.0009.0108.0022v.0007c.0966.0388.2009.0622.3116.0622.3541,0,.6555-.2126.7932-.5151l.0334-.025c.428-1.2474,1.5983-2.1498,2.9908-2.1498,1.7535,0,3.175,1.4215,3.175,3.175h0c0,.9665.7835,1.75,1.75,1.75.3936,0,.7125.319.7125.7125s-.3189.7125-.7125.7125h-2.7875c-.4833,0-.875.3917-.875.875s.3917.875.875.875h2.7875c1.36,0,2.4625-1.1025,2.4625-2.4625s-1.1024-2.4625-2.4625-2.4625Z" style="fill:#231f20;"/><path d="m8.875,5.875c0-.4833-.3917-.875-.875-.875s-.875.3917-.875.875v7.1376l-.8044-.8044c-.3417-.3417-.8958-.3417-1.2374,0-.3417.3417-.3417.8957,0,1.2374l2.2981,2.2981c.0806.0806.1773.1443.2842.1887.0035.0015.0075.0009.011.0023.1004.0402.2087.0653.3235.0653s.2231-.0251.3235-.0653c.0035-.0014.0075-.0008.011-.0023.1069-.0444.2036-.1081.2842-.1887l2.2981-2.2981c.3417-.3417.3417-.8958,0-1.2374-.3417-.3417-.8958-.3417-1.2374,0l-.8044.8044v-7.1376Z" style="fill:#231f20;"/></svg>