<?xml version="1.0" encoding="UTF-8"?><svg id="a" xmlns="http://www.w3.org/2000/svg" viewBox="0 0 16 16"><path d="m.875,6h4.25c.4833,0,.875-.3918.875-.875V.875c0-.4833-.3917-.875-.875-.875s-.875.3917-.875.875v3.375H.875c-.4833,0-.875.3917-.875.875s.3917.875.875.875Z" style="fill:#231f20;"/><path d="m15.125,4.25h-3.375V.875c0-.4833-.3917-.875-.875-.875s-.875.3917-.875.875v4.25c0,.4832.3917.875.875.875h4.25c.4833,0,.875-.3918.875-.875s-.3917-.875-.875-.875Z" style="fill:#231f20;"/><path d="m15.125,10h-4.25c-.4833,0-.875.3917-.875.875v4.25c0,.4832.3917.875.875.875s.875-.3918.875-.875v-3.375h3.375c.4833,0,.875-.3918.875-.875s-.3917-.875-.875-.875Z" style="fill:#231f20;"/><path d="m.875,11.75h3.375v3.375c0,.4832.3917.875.875.875s.875-.3918.875-.875v-4.25c0-.4833-.3917-.875-.875-.875H.875c-.4833,0-.875.3917-.875.875s.3917.875.875.875Z" style="fill:#231f20;"/></svg>