<?xml version="1.0" encoding="UTF-8"?><svg id="a" xmlns="http://www.w3.org/2000/svg" viewBox="0 0 16 16"><path d="m8,0C3.5817,0,0,3.5817,0,8s3.5817,8,8,8,8-3.5817,8-8S12.4183,0,8,0Zm0,14.25c-3.4518,0-6.25-2.7982-6.25-6.25S4.5482,1.75,8,1.75s6.25,2.7982,6.25,6.25-2.7982,6.25-6.25,6.25Z" style="fill:#231f20;"/><path d="m11.912,4.5618c-.0011-.0027-.0035-.0042-.0046-.0069-.0436-.1023-.106-.1963-.1857-.2762-.1638-.1637-.3865-.2559-.618-.256-.1124,0-.2224.0224-.3251.0637-.0032.0012-.0065.0006-.0097.0019l-4.3884,1.8177s-.0004.0003-.0005.0004c-.1057.0436-.202.1088-.2841.191-.0583.0586-.0968.1309-.136.2023-.0159.0288-.0412.0493-.0541.0803l-1.8177,4.3885c-.0436.1053-.0656.219-.0656.3347,0,.113.0225.2237.064.3268.0011.0026.0005.0054.0016.0081.0011.0026.0035.0042.0046.0068.0436.1024.106.1964.1857.2762.1638.1637.3865.2559.618.256.1124,0,.2224-.0224.3251-.0636.0032-.0013.0065-.0006.0097-.002l4.3884-1.8177s.0004-.0002.0005-.0003c.1057-.0437.202-.1088.2841-.191.0583-.0586.0968-.1309.136-.2023.0159-.0287.0412-.0492.0541-.0803l1.8177-4.3884c.0436-.1053.0656-.219.0656-.3348,0-.1129-.0225-.2236-.064-.3268-.0011-.0026-.0005-.0055-.0016-.0081Zm-3.912,4.5632c-.6213,0-1.125-.5037-1.125-1.125s.5037-1.125,1.125-1.125,1.125.5037,1.125,1.125-.5037,1.125-1.125,1.125Z" style="fill:#231f20;"/></svg>