<?xml version="1.0" encoding="UTF-8"?><svg id="a" xmlns="http://www.w3.org/2000/svg" viewBox="0 0 16 16"><path d="m13.5,0H5.5c-1.3807,0-2.5,1.1193-2.5,2.5v.5h-.5c-1.3807,0-2.5,1.1193-2.5,2.5v8c0,1.3807,1.1193,2.5,2.5,2.5h8c1.3807,0,2.5-1.1193,2.5-2.5v-.5h.5c1.3807,0,2.5-1.1193,2.5-2.5V2.5c0-1.3807-1.1193-2.5-2.5-2.5Zm-2.25,13.5c0,.4142-.3358.75-.75.75H2.5c-.4142,0-.75-.3358-.75-.75V5.5c0-.4142.3358-.75.75-.75h8c.4142,0,.75.3358.75.75v8Zm3-3c0,.4142-.3358.75-.75.75h-.5v-5.75c0-1.3807-1.1193-2.5-2.5-2.5h-5.75v-.5c0-.4142.3358-.75.75-.75h8c.4142,0,.75.3358.75.75v8Z" style="fill:#231f20;"/></svg>