<?xml version="1.0" encoding="UTF-8"?><svg id="a" xmlns="http://www.w3.org/2000/svg" viewBox="0 0 16 16"><path d="m15.125,10.625H6.125c-.4142,0-.75-.3358-.75-.75V.875c0-.4832-.3917-.875-.875-.875s-.875.3918-.875.875v2.75H.875c-.4833,0-.875.3917-.875.875s.3917.875.875.875h2.75v4.5c0,1.3807,1.1193,2.5,2.5,2.5h4.5v2.75c0,.4832.3917.875.875.875s.875-.3918.875-.875v-2.75h2.75c.4833,0,.875-.3917.875-.875s-.3917-.875-.875-.875Z" style="fill:#231f20;"/><path d="m11.5,10c.4833,0,.875-.3918.875-.875v-3c0-1.3807-1.1193-2.5-2.5-2.5h-3c-.4833,0-.875.3917-.875.875s.3917.875.875.875h3c.4142,0,.75.3358.75.75v3c0,.4832.3917.875.875.875Z" style="fill:#231f20;"/></svg>