<?xml version="1.0" encoding="UTF-8"?><svg id="a" xmlns="http://www.w3.org/2000/svg" viewBox="0 0 16 16"><path d="m14.9282,10.5566v-5.1133c0-.8931-.4765-1.7184-1.25-2.165L9.25.7217c-.7735-.4466-1.7265-.4466-2.5,0L2.3218,3.2783c-.7735.4466-1.25,1.2719-1.25,2.165v5.1133c0,.8931.4765,1.7184,1.25,2.165l4.4282,2.5566c.7735.4466,1.7265.4466,2.5,0l4.4282-2.5566c.7735-.4466,1.25-1.2719,1.25-2.165Zm-7.8032,2.9175l-3.9282-2.2679c-.2321-.134-.375-.3816-.375-.6495v-4.536l4.3032,2.4845v4.969ZM3.6968,4.5051l3.9282-2.2679c.2321-.134.5179-.134.75,0l3.9282,2.2679-4.3032,2.4844-4.3032-2.4844Zm9.4814,6.0515c0,.2679-.143.5156-.375.6495l-3.9282,2.2679v-4.969l4.3032-2.4845v4.536Z" style="fill:#231f20;"/></svg>