<?xml version="1.0" encoding="UTF-8"?><svg id="a" xmlns="http://www.w3.org/2000/svg" viewBox="0 0 16 16"><path d="m.1837,5.6436c-.0146.0248-.0306.0475-.0425.0734-.0172.0367-.024.0764-.036.1155-.0134.0439-.0284.0856-.0346.1306-.004.0286-.0076.0556-.0088.0844-.0005.0129-.0074.0238-.0074.0369,0,.0284.0135.0524.0162.0801.0041.0442.0065.0864.0172.1294.0074.03.0159.0581.0266.0873.0142.0389.0334.0727.0527.1088.0204.0385.0404.0748.0667.1103.0108.0146.0135.0325.0254.0466l7.0707,8.4265c.0084.01.0206.0139.0294.0235.0179.0195.0355.0371.055.055.0095.0087.0134.0209.0234.0294.0043.0036.0098.0042.0142.0077.0192.0156.0427.0246.0634.0386.0234.0159.0433.0348.0682.0483.0163.0089.0324.0155.0492.0233.0232.0109.0467.0182.0709.027.0195.0071.0372.0176.057.0233.0049.0014.0083.0052.0133.0066.0175.0047.0345-.0004.0521.0032.0258.0054.0494.0141.0758.0171.0207.0024.0405.0013.0613.0022.013.0005.0239.0075.0371.0075.0131,0,.0241-.007.0371-.0075.0208-.0009.0406.0002.0613-.0022.0264-.003.05-.0117.0758-.0171.0175-.0036.0345.0015.0521-.0032.005-.0013.0084-.0052.0133-.0066.0198-.0057.0375-.0162.057-.0233.0242-.0089.0477-.0162.0709-.027.0167-.0078.0329-.0144.0492-.0233.0249-.0135.0448-.0324.0682-.0483.0206-.014.0441-.023.0634-.0386.0043-.0035.0099-.0041.0142-.0077.01-.0084.0139-.0206.0234-.0294.0195-.0179.0371-.0355.055-.055.0088-.0096.021-.0135.0294-.0235l7.0707-8.4265c.0107-.0128.0131-.0289.0229-.042.0295-.0392.052-.0794.0742-.1224.0175-.0336.0345-.0653.0477-.1013.0098-.027.0187-.0527.0258-.0804.0126-.0486.0159-.0965.02-.1466.002-.0243.0141-.0451.0141-.0699,0-.0131-.007-.024-.0075-.037-.0012-.0262-.0032-.0508-.0067-.0768-.0066-.0508-.0229-.098-.0386-.1477-.0115-.0359-.0184-.0722-.0342-.106-.011-.0237-.0248-.0448-.038-.0676-.0101-.0174-.0112-.0373-.0226-.0542L12.6946.9938c-.0143-.0213-.0367-.0322-.0526-.0518-.038-.0464-.0789-.086-.1255-.1237-.0477-.0392-.0955-.0729-.1494-.1007-.0389-.0199-.0781-.0346-.1202-.0486-.0729-.0248-.1448-.0397-.2216-.0448-.0176-.001-.0325-.0101-.0503-.0101h-7.95c-.0178,0-.0327.0091-.0503.0101-.0753.0051-.1458.0198-.2173.0439-.0447.0146-.0864.0302-.1276.0515-.0502.0264-.0948.0579-.1396.0942-.0511.0405-.0954.0836-.1364.1344-.0138.0174-.0336.0269-.0463.0456L.204,5.595c-.0103.0152-.0111.0331-.0203.0486Zm2.622,1.3157h2.2648l1.0625,3.9653-3.3273-3.9653Zm7.0612,3.9653l1.0625-3.9653h2.2648l-3.3273,3.9653Zm2.4606-7.3455l1.0995,1.6301h-2.0407l.9412-1.6301Zm-1.3192-1.2151l-.8737,1.5132-.8737-1.5132h1.7473Zm-3.0083,1.316l.8829,1.5293h-1.7659l.8829-1.5293Zm1.1177,3.2793l-1.1177,4.1714-1.1177-4.1714h2.2355Zm-2.3787-4.5953l-.8737,1.5132-.8737-1.5132h1.7473Zm-3.0656,1.2167l.9402,1.6285h-2.0387l1.0984-1.6285Z" style="fill:#231f20;"/></svg>