<?xml version="1.0" encoding="UTF-8"?><svg id="a" xmlns="http://www.w3.org/2000/svg" viewBox="0 0 16 16"><path d="m1.0697,6.8479c-.0554.0367-.1129.0688-.1585.1169-.039.0411-.0627.0905-.0928.1377-.0306.0477-.0658.0909-.0868.1443-.0239.0609-.0286.1257-.0385.1906-.0067.0435-.0258.0824-.0258.1277,0,.0055.003.01.0031.0155.0009.0554.0215.1092.0333.1645.0129.0595.018.121.0423.1753.0021.0046.0013.0096.0035.0143.0177.038.0493.0629.0715.097.0377.0582.0718.1176.1219.1652.0398.0377.0877.0605.1333.0898.0489.0317.0934.0677.1484.0893.0599.0235.1239.028.1877.0379.0442.0069.0839.0262.1299.0262h6.0176v6.0176c0,.0458.0193.0853.0261.1292.0099.0641.0144.1283.038.1885.0215.0548.0573.0991.0889.1479.0294.0458.0524.0939.0903.1339.0474.05.1069.084.165.1218.0341.0222.059.0538.097.0715.0046.0021.0096.0013.0142.0034.0547.0245.1166.0298.1766.0427.0549.0116.1082.032.1631.033.0056.0001.0101.0032.0157.0032.0456,0,.0848-.0193.1286-.026.0645-.0099.129-.0145.1896-.0383.0535-.021.0968-.0562.1446-.0869.0471-.03.0964-.0537.1375-.0927.048-.0457.0802-.1031.1169-.1585.0239-.036.0573-.0627.076-.1031L15.2505,1.9124c.0056-.0119.0039-.0248.0089-.0368.0239-.0576.032-.1178.0433-.1793.0093-.0519.0245-.102.0244-.1537.0001-.0518-.015-.1019-.0244-.1537-.0113-.0615-.0193-.1217-.0433-.1793-.005-.012-.0034-.0249-.0089-.0368-.0176-.0378-.0492-.0626-.0713-.0966-.0334-.0518-.0642-.1027-.1085-.147-.0442-.0441-.0951-.0749-.1468-.1082-.0341-.0222-.0588-.0537-.0967-.0714-.0119-.0056-.0247-.0039-.0367-.0089-.0576-.0239-.1178-.0321-.1793-.0433-.0519-.0093-.1019-.0244-.1537-.0244-.0518,0-.1019.015-.1537.0244-.0615.0113-.1217.0193-.1793.0433-.012.005-.0249.0034-.0368.0089L1.1728,6.7719c-.0403.0188-.0671.0522-.1031.076Zm11.5787-3.4963l-3.3385,7.1594v-2.9093c.0005-.0128.0074-.0236.0074-.0366,0-.2435-.1001-.463-.2606-.6216-.1586-.1606-.3782-.2608-.6218-.2608-.0131,0-.0239.0069-.0369.0074h-2.9091l7.1595-3.3385Z" style="fill:#231f20;"/></svg>