<?xml version="1.0" encoding="UTF-8"?><svg id="a" xmlns="http://www.w3.org/2000/svg" viewBox="0 0 16 16"><path d="m15.125,9.875c-.4833,0-.875.3917-.875.875v2.5c0,.4142-.3358.75-.75.75H2.5c-.4142,0-.75-.3358-.75-.75v-2.5c0-.4833-.3917-.875-.875-.875s-.875.3917-.875.875v2.5c0,1.3807,1.1193,2.5,2.5,2.5h11c1.3807,0,2.5-1.1193,2.5-2.5v-2.5c0-.4833-.3917-.875-.875-.875Z" style="fill:#231f20;"/><path d="m8,.25c-.4833,0-.875.3917-.875.875v8.1376l-1.5115-1.5115c-.3417-.3417-.8958-.3417-1.2374,0s-.3417.8958,0,1.2375l3.0052,3.0052c.0806.0806.1773.1443.2842.1887.1044.0432.2151.0649.3264.0659.0029,0,.0052.0016.0081.0016s.0052-.0016.0081-.0016c.1113-.001.222-.0228.3264-.0659.1069-.0444.2036-.1081.2842-.1887l3.0052-3.0052c.3417-.3417.3417-.8958,0-1.2375s-.8957-.3417-1.2374,0l-1.5115,1.5115V1.125c0-.4833-.3917-.875-.875-.875Z" style="fill:#231f20;"/></svg>