<?xml version="1.0" encoding="UTF-8"?><svg id="a" xmlns="http://www.w3.org/2000/svg" viewBox="0 0 16 16"><path d="m3.0917,7.6436c-.9274,1.6705-.9891,3.7678.0358,5.543,1.5533,2.6904,4.9935,3.6122,7.6839,2.0589,2.671-1.5421,3.5959-4.9432,2.0891-7.6248-.0084-.017-.008-.0357-.0176-.0524L8.7579.4235c-.0093-.0162-.0253-.0249-.0355-.0402-.0316-.0481-.0724-.0873-.1138-.129-.0425-.0425-.0826-.0842-.132-.1165-.015-.0099-.0236-.0256-.0393-.0347-.0323-.0187-.0683-.0201-.1019-.0342-.0565-.0239-.1109-.0458-.171-.0575-.0555-.0107-.1088-.0116-.1645-.0115-.0557-.0001-.109.0008-.1645.0115-.0601.0117-.1145.0336-.171.0575-.0336.0141-.0695.0156-.1019.0342-.0157.0091-.0243.0247-.0393.0347-.0493.0323-.0894.074-.132.1165-.0414.0416-.0822.0809-.1138.129-.0102.0153-.0261.024-.0355.0402L3.117,7.5682c-.0138.0239-.014.0507-.0253.0753Zm1.5464.7902l3.3619-5.8229,3.3613,5.822-.0066.0038c1.0701,1.8534.435,4.2233-1.4183,5.2933-1.8535,1.0701-4.2233.4351-5.2934-1.4183-.7169-1.2418-.6536-2.7078.014-3.8669l-.0189-.0109Z" style="fill:#231f20;"/><path d="m8,13.5c1.6569,0,3-1.3431,3-3,0-.2762-.2239-.5-.5-.5s-.5.2238-.5.5c0,1.1046-.8954,2-2,2-.2761,0-.5.2238-.5.5s.2239.5.5.5Z" style="fill:#231f20;"/></svg>