<?xml version="1.0" encoding="UTF-8"?><svg id="a" xmlns="http://www.w3.org/2000/svg" viewBox="0 0 16 16"><path d="m15.1616.2563c-.3417-.3417-.8958-.3417-1.2374,0l-.6187.6187,1.7678,1.7678.7071-.7071c.2929-.2929.2929-.7678,0-1.0607l-.6187-.6187Z" style="fill:#231f20;"/><path d="m6.3108,7.9652c-.0443.1069-.0675.2205-.0675.3344v.525c0,.243.0995.4623.2595.6208.1586.16.3779.2595.6208.2595h.525c.114,0,.2274-.0233.3344-.0675.1043-.0433.1981-.1063.2775-.1842.002-.0021.0049-.0026.0069-.0046l6.4523-6.4524-1.7678-1.7678-6.4523,6.4524c-.0806.0806-.1445.1773-.1888.2843Z" style="fill:#231f20;"/><path d="m2.5,16h9c1.3807,0,2.5-1.1193,2.5-2.5v-4.5c0-.4833-.3917-.875-.875-.875s-.875.3917-.875.875v4.5c0,.4142-.3358.75-.75.75H2.5c-.4142,0-.75-.3358-.75-.75V4.5c0-.4142.3358-.75.75-.75h4.5c.4833,0,.875-.3918.875-.875s-.3917-.875-.875-.875H2.5c-1.3807,0-2.5,1.1193-2.5,2.5v9c0,1.3807,1.1193,2.5,2.5,2.5Z" style="fill:#231f20;"/></svg>