<?xml version="1.0" encoding="UTF-8"?><svg id="a" xmlns="http://www.w3.org/2000/svg" viewBox="0 0 16 16"><path d="m2.5,14h4.5c.4833,0,.875-.3917.875-.875s-.3917-.875-.875-.875H2.5c-.4142,0-.75-.3358-.75-.75V2.5c0-.4142.3358-.75.75-.75h9c.4142,0,.75.3358.75.75v4.5c0,.4833.3918.875.875.875s.875-.3917.875-.875V2.5c0-1.3807-1.1193-2.5-2.5-2.5H2.5C1.1193,0,0,1.1193,0,2.5v9c0,1.3807,1.1193,2.5,2.5,2.5Z" style="fill:#231f20;"/><path d="m10.588,5.4629c0-.4832-.3918-.8749-.875-.8749h-4.25c-.114,0-.2274.0233-.3344.0675-.2139.0887-.3843.2592-.473.473-.0443.1069-.0676.2205-.0676.3345v4.25c0,.4832.3917.875.875.875s.875-.3917.875-.875v-2.1376l7.1683,7.1683c.3417.3417.8958.3417,1.2374,0,.3417-.3417.3417-.8958,0-1.2374l-7.1683-7.1683h2.1376c.4833,0,.875-.3917.875-.8751Z" style="fill:#231f20;"/></svg>