<?xml version="1.0" encoding="UTF-8"?><svg id="a" xmlns="http://www.w3.org/2000/svg" viewBox="0 0 16 16"><path d="m13.5,0H4.5c-1.3807,0-2.5,1.1193-2.5,2.5v4.5c0,.4833.3917.875.875.875s.875-.3917.875-.875V2.5c0-.4142.3358-.75.75-.75h9c.4142,0,.75.3358.75.75v9c0,.4142-.3358.75-.75.75h-4.5c-.4833,0-.875.3918-.875.875s.3917.875.875.875h4.5c1.3807,0,2.5-1.1193,2.5-2.5V2.5c0-1.3807-1.1193-2.5-2.5-2.5Z" style="fill:#231f20;"/><path d="m1.2563,14.7437c.3417.3417.8958.3417,1.2374,0l7.1683-7.1683v2.1376c0,.4833.3917.875.8751.875s.8749-.3918.8749-.875v-4.25c0-.114-.0233-.2274-.0675-.3344-.0887-.2139-.2592-.3843-.473-.473-.1069-.0443-.2205-.0676-.3345-.0676h-4.25c-.4832,0-.875.3917-.875.875s.3917.875.875.875h2.1376L1.2563,13.5063c-.3417.3417-.3417.8958,0,1.2374Z" style="fill:#231f20;"/></svg>