<?xml version="1.0" encoding="UTF-8"?><svg id="a" xmlns="http://www.w3.org/2000/svg" viewBox="0 0 16 16"><path d="m2.5,15.25h5.5c1.3807,0,2.5-1.1193,2.5-2.5v-1.75c0-.4833-.3917-.875-.875-.875s-.875.3917-.875.875v1.75c0,.4142-.3358.75-.75.75H2.5c-.4142,0-.75-.3358-.75-.75V3.25c0-.4142.3358-.75.75-.75h5.5c.4142,0,.75.3358.75.75v1.75c0,.4832.3917.875.875.875s.875-.3918.875-.875v-1.75c0-1.3807-1.1193-2.5-2.5-2.5H2.5C1.1193.75,0,1.8693,0,3.25v9.5c0,1.3807,1.1193,2.5,2.5,2.5Z" style="fill:#231f20;"/><path d="m15.9324,7.6655c-.0443-.1069-.1082-.2036-.1887-.2842l-2.2981-2.2981c-.3417-.3417-.8958-.3417-1.2374,0-.3417.3417-.3417.8958,0,1.2374l.8044.8044h-7.6376c-.4833,0-.875.3917-.875.875s.3917.875.875.875h7.6376l-.8044.8044c-.3417.3417-.3417.8958,0,1.2374.3417.3417.8957.3417,1.2374,0l2.2981-2.2981c.0806-.0806.1444-.1772.1887-.2842.0015-.0035.0009-.0075.0023-.011.0402-.1004.0653-.2087.0653-.3235s-.0251-.2231-.0653-.3235c-.0014-.0035-.0008-.0075-.0023-.011Z" style="fill:#231f20;"/></svg>