<?xml version="1.0" encoding="UTF-8"?><svg id="a" xmlns="http://www.w3.org/2000/svg" viewBox="0 0 16 16"><path d="m.75,8v5.5c0,1.3807,1.1193,2.5,2.5,2.5h9.5c1.3807,0,2.5-1.1193,2.5-2.5v-5.5c0-1.3807-1.1193-2.5-2.5-2.5h-1.75c-.4833,0-.875.3917-.875.875s.3917.875.875.875h1.75c.4142,0,.75.3358.75.75v5.5c0,.4142-.3358.75-.75.75H3.25c-.4142,0-.75-.3358-.75-.75v-5.5c0-.4142.3358-.75.75-.75h1.75c.4833,0,.875-.3918.875-.875s-.3917-.875-.875-.875h-1.75c-1.3807,0-2.5,1.1193-2.5,2.5Z" style="fill:#231f20;"/><path d="m7.125,10.625c0,.4832.3917.875.875.875s.875-.3918.875-.875V2.9874l.8044.8044c.3417.3417.8958.3417,1.2374,0,.3417-.3417.3417-.8957,0-1.2374L8.6187.2563c-.0806-.0806-.1772-.1444-.2842-.1887-.0035-.0015-.0075-.0009-.011-.0023-.1004-.0402-.2087-.0653-.3235-.0653s-.2231.0251-.3235.0653c-.0035.0014-.0075.0008-.011.0023-.1069.0443-.2036.1082-.2842.1887l-2.2981,2.2981c-.3417.3417-.3417.8958,0,1.2374.3417.3417.8958.3417,1.2374,0l.8044-.8044v7.6376Z" style="fill:#231f20;"/></svg>