<?xml version="1.0" encoding="UTF-8"?><svg id="a" xmlns="http://www.w3.org/2000/svg" viewBox="0 0 16 16"><path d="m13.5,2h-4.5c-.4833,0-.875.3917-.875.875s.3917.875.875.875h4.5c.4142,0,.75.3358.75.75v9c0,.4142-.3358.75-.75.75H4.5c-.4142,0-.75-.3358-.75-.75v-4.5c0-.4833-.3918-.875-.875-.875s-.875.3917-.875.875v4.5c0,1.3807,1.1193,2.5,2.5,2.5h9c1.3807,0,2.5-1.1193,2.5-2.5V4.5c0-1.3807-1.1193-2.5-2.5-2.5Z" style="fill:#231f20;"/><path d="m.875,6c.4832,0,.875-.3917.875-.875v-2.1376l7.1683,7.1684c.3417.3417.8958.3417,1.2374,0s.3417-.8958,0-1.2375L2.9874,1.75h2.1375c.4833,0,.8751-.3917.8751-.875,0-.4833-.3918-.875-.875-.875H.875c-.114,0-.2275.0233-.3344.0675-.2139.0887-.3844.2592-.473.473-.0443.1069-.0676.2206-.0676.3345v4.25c0,.4832.3917.875.875.875Z" style="fill:#231f20;"/></svg>