<?xml version="1.0" encoding="UTF-8"?><svg id="a" xmlns="http://www.w3.org/2000/svg" viewBox="0 0 16 16"><path d="m14.364,13.1265L2.8735,1.636c-.3417-.3417-.8958-.3417-1.2374,0-.3417.3417-.3417.8957,0,1.2374l11.4905,11.4905c.3417.3417.8958.3417,1.2374,0s.3417-.8958,0-1.2374Z" style="fill:#231f20;"/><path d="m15.945,8c-.304-.8046-.7241-1.5502-1.244-2.217-1.5554-1.9951-3.9753-3.283-6.701-3.283-.861,0-1.6859.1414-2.4682.3801l1.4496,1.4496c.3325-.0505.6719-.0797,1.0186-.0797,2.6488,0,4.9348,1.5294,6.04,3.75-.3643.7319-.8668,1.3783-1.4583,1.9301l1.2382,1.2382c.3144-.2974.6146-.6095.881-.9513.5198-.6668.94-1.4124,1.244-2.217Z" style="fill:#231f20;"/><path d="m2.1801,4.8317c-.3144.2974-.6146.6095-.881.9513-.5199.6668-.94,1.4124-1.244,2.217.304.8046.7242,1.5502,1.244,2.217,1.5555,1.995,3.9753,3.283,6.701,3.283.861,0,1.6859-.1415,2.4682-.3802l-1.4495-1.4495c-.3325.0505-.6719.0797-1.0187.0797-2.6488,0-4.9348-1.5294-6.04-3.75.3643-.7319.8668-1.3783,1.4583-1.9301l-1.2382-1.2382Z" style="fill:#231f20;"/><path d="m8,5c-.1084,0-.211.0207-.3164.0319l3.2845,3.2845c.0112-.1054.0319-.208.0319-.3164,0-1.6569-1.3431-3-3-3Z" style="fill:#231f20;"/><path d="m8.3165,10.9681l-3.2845-3.2845c-.0112.1054-.0319.2081-.0319.3165,0,1.6569,1.3431,3,3,3,.1084,0,.2111-.0207.3165-.0319Z" style="fill:#231f20;"/></svg>