<?xml version="1.0" encoding="UTF-8"?><svg id="a" xmlns="http://www.w3.org/2000/svg" viewBox="0 0 16 16"><path d="m8,13.5c2.7257,0,5.1455-1.288,6.701-3.283.5198-.6668.94-1.4124,1.244-2.217-.304-.8046-.7241-1.5502-1.244-2.217-1.5554-1.9951-3.9753-3.283-6.701-3.283S2.8544,3.788,1.299,5.783c-.5199.6668-.94,1.4124-1.244,2.217.304.8046.7242,1.5502,1.244,2.217,1.5555,1.995,3.9753,3.283,6.701,3.283Zm0-9.25c2.6488,0,4.9348,1.5294,6.04,3.75-1.1052,2.2206-3.3912,3.75-6.04,3.75s-4.9348-1.5294-6.04-3.75c1.1052-2.2206,3.3912-3.75,6.04-3.75Z" style="fill:#231f20;"/><path d="m8,11c1.6569,0,3-1.3431,3-3s-1.3431-3-3-3-3,1.3431-3,3,1.3431,3,3,3Zm0-4.25c.6904,0,1.25.5596,1.25,1.25s-.5596,1.25-1.25,1.25-1.25-.5596-1.25-1.25.5596-1.25,1.25-1.25Z" style="fill:#231f20;"/></svg>