<?xml version="1.0" encoding="UTF-8"?><svg id="a" xmlns="http://www.w3.org/2000/svg" viewBox="0 0 16 16"><path d="m4.5,16h7c1.3807,0,2.5-1.1193,2.5-2.5v-7.4907c.002-.2266-.0818-.4537-.2548-.6265L8.6187.2563c-.1708-.1709-.3948-.2563-.6187-.2563s-.4478.0854-.6187.2563c.1708-.1709.3948-.2563.6187-.2563h-3.5c-1.3807,0-2.5,1.1193-2.5,2.5v11c0,1.3807,1.1193,2.5,2.5,2.5ZM8.875,2.9874l2.1391,2.1391h-1.3891c-.4142,0-.75-.3358-.75-.75v-1.3891Zm-5.125-.4874c0-.4142.3358-.75.75-.75h2.625v2.6265c0,1.3807,1.1193,2.5,2.5,2.5h2.625v6.6235c0,.4142-.3358.75-.75.75h-7c-.4142,0-.75-.3358-.75-.75V2.5Z" style="fill:#231f20;"/></svg>