<?xml version="1.0" encoding="UTF-8"?><svg id="a" xmlns="http://www.w3.org/2000/svg" viewBox="0 0 16 16"><path d="m13.5,1.5H2.5C1.1193,1.5,0,2.6193,0,4v8c0,1.3807,1.1193,2.5,2.5,2.5h11c1.3807,0,2.5-1.1193,2.5-2.5V4c0-1.3807-1.1193-2.5-2.5-2.5ZM3.75,12.75h-1.25c-.4142,0-.75-.3358-.75-.75v-1.25h2v2Zm0-3.75H1.75v-2h2v2Zm0-3.75H1.75v-1.25c0-.4142.3358-.75.75-.75h1.25v2Zm6.75,7.5h-5v-3.875h5v3.875Zm0-5.625h-5v-3.875h5v3.875Zm3.75,4.875c0,.4142-.3358.75-.75.75h-1.25v-2h2v1.25Zm0-3h-2v-2h2v2Zm0-3.75h-2v-2h1.25c.4142,0,.75.3358.75.75v1.25Z" style="fill:#231f20;"/></svg>