<?xml version="1.0" encoding="UTF-8"?><svg id="a" xmlns="http://www.w3.org/2000/svg" viewBox="0 0 16 16"><path d="m5.875,13.25h4.25c.1374,0,.2631-.0381.3788-.0945l-1.6555-1.6555h-2.9733c-.4833,0-.875.3917-.875.875s.3917.875.875.875Z" style="fill:#231f20;"/><path d="m13.5,8c0-.4833-.3917-.875-.875-.875h-2.8483l1.75,1.75h1.0983c.4833,0,.875-.3918.875-.875Z" style="fill:#231f20;"/><path d="m4.4733,7.125h-1.0983c-.4833,0-.875.3917-.875.875s.3917.875.875.875h2.8483l-1.75-1.75Z" style="fill:#231f20;"/><path d="m15.125,2.75H5.4017l1.75,1.75h7.9733c.4833,0,.875-.3918.875-.875s-.3917-.875-.875-.875Z" style="fill:#231f20;"/><path d="m.875,4.5h.9733L.315,2.9667c-.1887.1605-.315.3912-.315.6583,0,.4832.3917.875.875.875Z" style="fill:#231f20;"/><path d="m.2563.2563C-.0854.598-.0854,1.152.2563,1.4937l12.9047,12.9047c.3417.3417.8957.3417,1.2374,0s.3417-.8957,0-1.2374L1.4937.2563C1.152-.0854.598-.0854.2563.2563Z" style="fill:#231f20;"/></svg>