<?xml version="1.0" encoding="UTF-8"?><svg id="a" xmlns="http://www.w3.org/2000/svg" viewBox="0 0 16 16"><path d="m.4,1.345v13.78c0,.4832.3917.875.875.875s.875-.3918.875-.875v-4.0919c1.8405-.3992,3.7968-.3893,5.7412.1317,2.4639.6602,4.9462.6078,7.2441-.0104l-.0114-.0426c.2794-.1461.4761-.4298.4761-.7669V1.345c0-.4832-.3918-.875-.875-.875-.0138,0-.0252.0073-.0389.0079l-.0034-.0125c-2.0107.5408-4.1827.5867-6.3386.0091C5.8803-.1857,3.3979-.1334,1.1.4849l.0052.0194c-.3989.0814-.7052.4177-.7052.8407Zm1.75.6882c1.8405-.3992,3.7968-.3893,5.7412.1317,2.0113.5389,4.0333.5962,5.9588.2652v7.2269c-1.7713.3482-3.6443.3163-5.5059-.1824-2.0933-.5609-4.1987-.603-6.1942-.2252V2.0331Z" style="fill:#231f20;"/></svg>