<?xml version="1.0" encoding="UTF-8"?><svg id="a" xmlns="http://www.w3.org/2000/svg" viewBox="0 0 16 16"><path d="m10.5886,1.113c.0029-.0605.0051-.1184-.0044-.1782-.009-.0565-.0266-.1074-.046-.1603-.0188-.0518-.0377-.1011-.0663-.1491-.0316-.0529-.0712-.0969-.1133-.142-.0247-.0266-.0382-.0596-.0667-.0835-.0139-.0117-.0314-.0143-.0458-.025-.0472-.0352-.0999-.0588-.1544-.0842-.0535-.0248-.1045-.0497-.1608-.063-.0177-.0042-.0312-.0162-.0494-.0194-.0373-.0065-.072.0045-.1088.0027-.0607-.0031-.1188-.0052-.1788.0044-.056.0089-.1065.0264-.1589.0457-.0524.019-.1023.038-.1508.0671-.0522.0313-.0955.0704-.1401.1118-.027.025-.0605.0388-.0848.0677L2.7921,7.9767c-.0118.014-.0145.0317-.0252.0462-.035.0469-.0584.0994-.0837.1535-.0249.0537-.05.1049-.0634.1614-.0043.0177-.0162.0312-.0193.0494-.0067.0375.0045.0723.0027.1093-.0029.0604-.0051.1181.0044.1777.009.0566.0266.1076.0461.1606.0188.0518.0375.101.0662.149.0316.053.0712.0969.1133.142.0247.0266.0382.0597.0667.0836.0139.0116.0313.0142.0457.0249.0472.0353.1002.0588.1547.0843.0533.0247.1042.0496.1604.0629.0178.0043.0314.0162.0496.0195l2.9547.521-.8563,4.856c-.0067.0377.0044.0726.0027.1097-.0029.0602-.0051.1176.0044.177.009.0568.0267.1082.0463.1612.0187.0516.0374.1007.0661.1485.0317.0531.0713.0971.1135.1424.0246.0264.0381.0594.0665.0833.0139.0116.0313.0142.0456.0248.0474.0353.1003.059.1549.0844.0533.0246.1042.0495.1603.0628.0178.0043.0313.0162.0496.0195.0374.0066.0723-.0045.1093-.0027.0605.003.1183.0051.1781-.0044.0562-.0089.1067-.0264.1592-.0457.0524-.0189.1022-.038.1507-.067.0522-.0314.0954-.0704.1401-.1119.027-.025.0607-.0388.085-.0677l6.2672-7.4689c.0117-.014.0144-.0317.0251-.0462.0351-.0469.0585-.0995.0837-.1536.0249-.0537.0499-.1048.0633-.1613.0042-.0178.0162-.0313.0193-.0495.0066-.0373-.0045-.0721-.0027-.1089.0029-.0605.0051-.1185-.0044-.1782-.009-.0565-.0266-.1075-.046-.1603-.0188-.0518-.0376-.1011-.0663-.1491-.0316-.0529-.0712-.0969-.1133-.142-.0247-.0265-.0382-.0596-.0667-.0835-.0139-.0116-.0314-.0143-.0458-.0249-.0472-.0353-.0999-.0588-.1544-.0842-.0535-.0248-.1045-.0497-.1608-.063-.0177-.0042-.0312-.0162-.0494-.0193l-2.9548-.521.8563-4.8561c.0066-.0373-.0045-.0721-.0027-.109Zm.3047,6.9463l-3.1943,3.8068.4412-2.5017s0-.0002,0-.0003c.042-.2379-.0165-.4703-.145-.6538s-.3268-.3179-.5648-.3599c-.0001,0-.0002,0-.0003,0l-2.3235-.4097,3.1943-3.8068-.4412,2.502c-.0839.4759.2339.9297.7097,1.0137l2.3239.4097Z" style="fill:#231f20;"/></svg>