<?xml version="1.0" encoding="UTF-8"?><svg id="a" xmlns="http://www.w3.org/2000/svg" viewBox="0 0 16 16"><path d="m14.9275,7.2505c.8975-1.5544.3648-3.5421-1.1896-4.4396-.8156-.4709-1.7474-.5392-2.5815-.2816-.1943-.8505-.7193-1.6227-1.5344-2.0933-1.5544-.8975-3.5421-.3649-4.4396,1.1895-.1667.2888-.2783.5923-.3475.9005-.8318-.2542-1.7601-.1843-2.5728.2849C.7077,3.7084.175,5.696,1.0725,7.2505c.1672.2896.3785.5331.6115.7475-.6404.5936-1.0475,1.4349-1.0474,2.377,0,1.7949,1.455,3.2501,3.2499,3.2501.3317,0,.6489-.0545.949-.1477.0693.307.1807.6095.3469.8972.8975,1.5544,2.8851,2.087,4.4396,1.1895.814-.47,1.3389-1.2407,1.5338-2.0898.3027.095.6227.1508.9577.1508,1.7949,0,3.2499-1.4551,3.2499-3.2501,0-.942-.407-1.7834-1.0474-2.377.233-.2144.4443-.4579.6115-.7475Zm-4.1136-2.375c.4142-.7175,1.3316-.9633,2.049-.5491.7175.4142.9633,1.3316.5491,2.0491-.2774.4805-.7808.7429-1.2985.7437v-.0073h-1.5229c-.1182-.3442-.2997-.6552-.5353-.9224l.7587-1.3141Zm-1.8138,3.1245c0,.5523-.4478,1-1,1s-1-.4477-1-1,.4477-1,1-1,1,.4478,1,1Zm-2.3021-5.4995c.4142-.7174,1.3316-.9633,2.0491-.549.7174.4142.9633,1.3316.549,2.049l-.7531,1.3043c-.1757-.0352-.3569-.0547-.543-.0547-.1829,0-.3611.0198-.534.0538l-.7566-1.3105-.0063.0036c-.2581-.4487-.2827-1.0159-.0052-1.4964Zm-3.5608,1.8259c.7174-.4142,1.6348-.1684,2.049.5491l.7587,1.3141c-.2356.2672-.4172.5782-.5353.9224h-1.5229v.0073c-.5177-.0009-1.0211-.2632-1.2985-.7437-.4142-.7175-.1684-1.6348.5491-2.0491Zm2.0364,6.7922l.0063.0037c-.2596.4479-.7385.7527-1.2933.7527-.8284,0-1.5-.6716-1.5-1.5001s.6716-1.5,1.5-1.4999h1.5189c.1163.3445.2962.6559.53.9241l-.7619,1.3196Zm3.5734,2.9298c-.7175.4142-1.6348.1685-2.0491-.549-.2775-.4805-.2529-1.0476.0052-1.4964l.0063.0037.7566-1.3105c.1729.0341.3511.0538.534.0538.186,0,.3674-.0195.543-.0547l.753,1.3042c.4142.7175.1684,1.6348-.549,2.049Zm3.3665-2.1735c-.5549,0-1.0338-.3048-1.2933-.7527l.0063-.0037-.7618-1.3196c.2338-.2681.4136-.5796.53-.9241h1.5189c.8284,0,1.5.6716,1.5,1.4999s-.6716,1.5-1.5,1.5001Z" style="fill:#231f20;"/></svg>