<?xml version="1.0" encoding="UTF-8"?><svg id="a" xmlns="http://www.w3.org/2000/svg" viewBox="0 0 16 16"><path d="m13.5,2.875h-6.5c0-.9665-.7835-1.75-1.75-1.75h-2.75C1.1193,1.125,0,2.2443,0,3.625v8.75c0,1.3807,1.1193,2.5,2.5,2.5h11c1.3807,0,2.5-1.1193,2.5-2.5v-7c0-1.3807-1.1193-2.5-2.5-2.5Zm.75,9.5c0,.4142-.3358.75-.75.75H2.5c-.4142,0-.75-.3358-.75-.75v-5h12.5v5Zm0-6.75H1.75v-2c0-.4142.3358-.75.75-.75h2.75c0,.9665.7835,1.75,1.75,1.75h6.5c.4142,0,.75.3358.75.75v.25Z" style="fill:#231f20;"/></svg>