<?xml version="1.0" encoding="UTF-8"?><svg id="a" xmlns="http://www.w3.org/2000/svg" viewBox="0 0 16 16"><path d="m8,0C3.5817,0,0,3.5817,0,8s3.5817,8,8,8,8-3.5817,8-8S12.4183,0,8,0Zm0,14.25c-3.4518,0-6.25-2.7982-6.25-6.25S4.5482,1.75,8,1.75s6.25,2.7982,6.25,6.25-2.7982,6.25-6.25,6.25Z" style="fill:#231f20;"/><path d="m12.2731,7.3934c-.0426-.0427-.083-.0844-.1324-.1168-.0148-.0098-.0232-.0252-.0388-.0342l-2.8146-1.625c-.0159-.0092-.0338-.0087-.05-.0168-.0522-.0263-.108-.0403-.1656-.0557-.0573-.0152-.1121-.031-.17-.0344-.0182-.0012-.0336-.0105-.0521-.0105-.038,0-.0704.017-.1072.0217-.0599.0076-.1172.0155-.1742.0352-.0542.0187-.1014.0449-.1501.0733-.0477.0275-.093.0545-.1353.0911-.0466.0403-.0829.087-.1202.1362-.0219.0289-.0521.048-.0707.0801-.009.0157-.0086.0333-.0166.0493-.0266.0527-.0406.1089-.0562.167-.015.0568-.0307.1113-.0341.1689-.0012.0182-.0106.0337-.0106.0522v.6495l-2.4373-1.4072c-.0159-.0092-.0338-.0087-.05-.0168-.0522-.0263-.108-.0403-.1656-.0557-.0573-.0152-.1121-.031-.17-.0344-.0182-.0012-.0336-.0105-.0521-.0105-.038,0-.0704.017-.1072.0217-.0599.0076-.1172.0155-.1742.0352-.0542.0187-.1014.0449-.1501.0733-.0477.0275-.093.0545-.1353.0911-.0466.0403-.0829.087-.1202.1362-.0219.0289-.0521.048-.0707.0801-.009.0157-.0086.0333-.0166.0493-.0266.0527-.0406.1089-.0562.167-.015.0568-.0307.1113-.0341.1689-.0012.0182-.0106.0337-.0106.0522v3.25c0,.0185.0094.0339.0106.0522.0034.0575.019.1119.0341.1687.0155.0582.0296.1144.0562.1672.0079.0159.0075.0336.0165.0492.0186.0321.0487.0511.0705.08.0373.0494.0737.0961.1205.1365.0422.0365.0873.0635.1349.0909.0488.0285.0962.0547.1505.0734.057.0196.1141.0276.174.0352.0368.0047.0693.0217.1074.0217.0186,0,.0341-.0094.0523-.0106.0577-.0034.1124-.019.1694-.0342.0578-.0155.1138-.0295.1662-.056.0161-.0081.034-.0076.0498-.0167l2.4373-1.4072v.6496c0,.0185.0094.0339.0106.0522.0034.0575.019.1119.0341.1687.0155.0582.0296.1144.0562.1672.0079.0159.0075.0336.0165.0492.0186.0321.0487.0511.0705.08.0373.0494.0737.0961.1205.1365.0422.0365.0873.0635.1349.0909.0488.0285.0962.0547.1505.0734.057.0196.1141.0276.174.0352.0368.0047.0693.0217.1074.0217.0186,0,.0341-.0094.0523-.0106.0577-.0034.1124-.019.1694-.0342.0578-.0155.1138-.0295.1662-.056.0161-.0081.034-.0076.0498-.0167l2.8146-1.625c.0156-.009.024-.0244.0388-.0342.0494-.0324.0898-.0742.1324-.1168.0414-.0417.0823-.0809.114-.1292.0101-.0152.0259-.0238.0351-.0398.019-.0328.0204-.0693.0347-.1033.0236-.056.0454-.1099.057-.1694.0107-.0556.0116-.109.0115-.1649.0001-.0558-.0007-.1093-.0115-.1649-.0116-.0596-.0334-.1134-.057-.1694-.0143-.0341-.0157-.0705-.0347-.1033-.0092-.016-.025-.0246-.0351-.0398-.0317-.0482-.0725-.0875-.114-.1292Z" style="fill:#231f20;"/></svg>