<?xml version="1.0" encoding="UTF-8"?><svg id="a" xmlns="http://www.w3.org/2000/svg" viewBox="0 0 16 16"><path d="m15.9501,1.2557c-.0161-.0536-.0331-.1039-.0586-.1526-.025-.0483-.0562-.0906-.0904-.134-.0378-.0479-.0767-.0907-.1234-.1297-.0193-.0162-.0298-.0388-.0509-.0535-.0251-.0176-.0545-.0206-.0807-.0352-.0519-.0292-.1042-.0526-.162-.0708-.0574-.0181-.1131-.0289-.172-.0347-.0301-.0031-.0562-.0176-.0871-.0176H.875c-.0309,0-.057.0145-.0871.0176-.0589.0059-.1146.0167-.172.0347-.0579.0182-.1101.0416-.162.0708-.0262.0146-.0556.0176-.0807.0352-.0211.0147-.0316.0373-.0509.0535-.0468.039-.0856.0818-.1234.1297-.0342.0435-.0654.0857-.0904.134-.0255.0487-.0425.0991-.0586.1526-.0173.0578-.03.1137-.0351.1738-.0022.0253-.0148.0471-.0148.0731,0,.0309.0145.057.0176.087.0058.059.0167.1147.0348.1722.0182.0577.0414.1098.0706.1616.0146.0263.0178.0558.0354.0811l5.004,7.1465v3.248c0,.0276.0132.0508.0157.0778.0046.04.0134.0771.0235.1162.0201.0859.0484.1647.0917.2387.0048.0078.0101.0147.0151.0223.0873.1393.204.2554.353.3273l3.7994,2.6604c.0252.0176.0547.0208.0811.0354.0518.0292.1039.0523.1616.0706.0575.0181.1132.029.1722.0348.03.0031.0562.0176.087.0176.0259,0,.0477-.0126.0731-.0148.0601-.0051.116-.0178.1738-.0351.0536-.0161.1039-.0331.1526-.0586.0483-.025.0906-.0562.134-.0903.0479-.0378.0908-.0768.1298-.1236.0162-.0193.0387-.0298.0534-.0508.0175-.025.0206-.0544.0352-.0806.0293-.0521.0526-.1043.0709-.1622.018-.0574.0289-.113.0347-.1719.0031-.0301.0176-.0562.0176-.0871v-5.974l5.004-7.1465c.0176-.0252.0208-.0547.0354-.0811.0292-.0518.0523-.1039.0706-.1616.0181-.0575.029-.1132.0348-.1722.0031-.03.0176-.0562.0176-.087,0-.0259-.0126-.0477-.0148-.0731-.0051-.0601-.0178-.116-.0351-.1738Zm-6.7042,7.1174c-.0176.0252-.0208.0547-.0354.0811-.0292.0519-.0523.1039-.0706.1616-.0181.0575-.029.1132-.0348.1722-.0031.03-.0176.0562-.0176.087v4.5691l-2.1753-1.5231v-3.046c0-.0309-.0145-.057-.0176-.087-.0058-.059-.0167-.1147-.0348-.1722-.0182-.0577-.0414-.1097-.0706-.1616-.0146-.0263-.0178-.0558-.0354-.0811L2.5559,2.3775h10.8882l-4.1981,5.9955Z" style="fill:#231f20;"/></svg>