<?xml version="1.0" encoding="UTF-8"?><svg id="a" xmlns="http://www.w3.org/2000/svg" viewBox="0 0 16 16"><path d="m15.9501,1.2556c-.0161-.0535-.033-.1037-.0585-.1523-.0251-.0484-.0563-.0908-.0906-.1344-.0378-.0477-.0765-.0905-.1232-.1295-.0193-.0162-.0299-.0388-.051-.0535-.0251-.0176-.0545-.0206-.0807-.0352-.0519-.0292-.1042-.0526-.162-.0708-.0574-.018-.1131-.0289-.172-.0347-.0301-.0031-.0562-.0176-.0871-.0176H3.2791l1.75,1.75h8.415l-3.4656,4.9494,1.2565,1.2565,4.6066-6.579c.0176-.0252.0208-.0547.0354-.0811.0292-.0519.0523-.1039.0706-.1616.0181-.0575.029-.1132.0348-.1722.0031-.03.0176-.0562.0176-.087,0-.0259-.0126-.0477-.0148-.0731-.0051-.0601-.0178-.116-.0351-.1739Z" style="fill:#231f20;"/><path d="m5.178,12.4767c.0046.04.0134.0771.0235.1162.0201.0859.0484.1647.0917.2387.0048.0078.0101.0147.0151.0223.0873.1393.204.2554.353.3273l3.7994,2.6604c.0252.0176.0547.0208.0811.0354.0518.0292.1039.0523.1616.0706.0575.0181.1132.029.1722.0348.03.0031.0562.0176.087.0176.0259,0,.0477-.0126.0731-.0148.0601-.0051.116-.0178.1738-.0351.0536-.0161.1039-.0331.1526-.0586.0483-.025.0906-.0562.134-.0904.0479-.0378.0907-.0767.1297-.1234.0162-.0193.0388-.0298.0535-.0509.0176-.0251.0206-.0545.0352-.0807.0292-.0519.0526-.1042.0708-.162.018-.0575.0289-.1132.0347-.1721.0031-.03.0176-.0561.0176-.087v-1.6357l-1.75-1.75v1.7048l-2.1753-1.5231v-2.357L2.0396,4.6912l3.1227,4.4598v3.248c0,.0276.0132.0508.0157.0778Z" style="fill:#231f20;"/><path d="m.929,2.1664l12.9047,12.9047.0345.0345c.3417.3417.8957.3417,1.2374,0,.3417-.3417.3417-.8958,0-1.2375l-6.6421-6.6421L2.1664.9289s-.0001,0-.0002-.0001l-.6725-.6725C1.152-.0854.598-.0854.2563.2563-.0854.598-.0854,1.152.2563,1.4937l.6727.6727Z" style="fill:#231f20;"/></svg>