<?xml version="1.0" encoding="UTF-8"?><svg id="a" xmlns="http://www.w3.org/2000/svg" viewBox="0 0 16 16"><path d="m8,0C3.5817,0,0,3.5817,0,8s3.5817,8,8,8,8-3.5817,8-8S12.4183,0,8,0Zm3.7375,3.0007c-.317.2374-.6632.4341-1.0221.6093-.1421-.5314-.3101-1.0148-.4981-1.4478.5486.2086,1.0587.4929,1.5202.8384Zm-3.7375-1.2507c.4771,0,.9012.9311,1.176,2.3776-.3818.0737-.7723.1224-1.176.1224s-.7941-.0486-1.176-.1224c.2747-1.4465.6989-2.3776,1.176-2.3776Zm-4.9896,2.4974c.5795.4634,1.2273.8427,1.9215,1.1328-.0786.5571-.1348,1.1394-.1616,1.7448H1.8183c.1505-1.0709.5707-2.0527,1.1921-2.8776Zm-1.1921,4.6276h2.952c.0268.6054.0831,1.1877.1616,1.7448-.6942.2902-1.342.6694-1.9215,1.1328-.6215-.825-1.0417-1.8067-1.1921-2.8776Zm2.4442,4.1242c.3171-.2372.6631-.4341,1.022-.6093.1421.5314.3101,1.0149.4982,1.4478-.5486-.2086-1.0587-.4929-1.5202-.8385Zm1.0221-9.3892c-.3589-.1752-.705-.372-1.0221-.6093.4615-.3456.9716-.6299,1.5202-.8385-.188.4329-.356.9163-.4981,1.4478Zm2.7154,10.64c-.4771,0-.9013-.9311-1.176-2.3776.3818-.0737.7724-.1224,1.176-.1224s.7942.0486,1.176.1224c-.2747,1.4465-.6989,2.3776-1.176,2.3776Zm1.4091-4.1245c-.4574-.0817-.928-.1255-1.4091-.1255s-.9517.0438-1.4091.1255c-.0347-.3998-.0599-.8176-.0745-1.2505h2.9673c-.0146.4329-.0398.8507-.0745,1.2505Zm-2.8928-3.0005c.0146-.4329.0398-.8507.0745-1.2505.4574.0817.928.1255,1.4091.1255s.9517-.0438,1.4091-.1255c.0347.3998.0599.8176.0745,1.2505h-2.9673Zm3.7009,6.7127c.188-.4329.3561-.9164.4982-1.4478.3589.1752.7051.3719,1.022.6094-.4615.3456-.9716.6299-1.5202.8384Zm2.7723-2.0851c-.5795-.4634-1.2273-.8427-1.9215-1.1328.0786-.5571.1348-1.1394.1616-1.7448h2.952c-.1505,1.0709-.5707,2.0527-1.1921,2.8776Zm-1.7599-4.6276c-.0268-.6054-.0831-1.1877-.1616-1.7448.6942-.2902,1.342-.6694,1.9215-1.1328.6215.825,1.0417,1.8067,1.1921,2.8776h-2.952Z" style="fill:#231f20;"/></svg>