<?xml version="1.0" encoding="UTF-8"?><svg id="a" xmlns="http://www.w3.org/2000/svg" viewBox="0 0 16 16"><rect y="0" width="3.25" height="3.25" rx=".875" ry=".875" style="fill:#231f20;"/><rect x="12.75" y="0" width="3.25" height="3.25" rx=".875" ry=".875" style="fill:#231f20;"/><rect x="4.25" y="0" width="3.25" height="3.25" rx=".875" ry=".875" style="fill:#231f20;"/><rect x="8.5" y="0" width="3.25" height="3.25" rx=".875" ry=".875" style="fill:#231f20;"/><rect y="12.75" width="3.25" height="3.25" rx=".875" ry=".875" style="fill:#231f20;"/><rect x="12.75" y="12.75" width="3.25" height="3.25" rx=".875" ry=".875" style="fill:#231f20;"/><rect x="4.25" y="12.75" width="3.25" height="3.25" rx=".875" ry=".875" style="fill:#231f20;"/><rect x="8.5" y="12.75" width="3.25" height="3.25" rx=".875" ry=".875" style="fill:#231f20;"/><rect y="8.5" width="3.25" height="3.25" rx=".875" ry=".875" style="fill:#231f20;"/><rect x="12.75" y="8.5" width="3.25" height="3.25" rx=".875" ry=".875" style="fill:#231f20;"/><rect x="4.25" y="8.5" width="3.25" height="3.25" rx=".875" ry=".875" style="fill:#231f20;"/><rect x="8.5" y="8.5" width="3.25" height="3.25" rx=".875" ry=".875" style="fill:#231f20;"/><rect y="4.25" width="3.25" height="3.25" rx=".875" ry=".875" style="fill:#231f20;"/><rect x="12.75" y="4.25" width="3.25" height="3.25" rx=".875" ry=".875" style="fill:#231f20;"/><rect x="4.25" y="4.25" width="3.25" height="3.25" rx=".875" ry=".875" style="fill:#231f20;"/><rect x="8.5" y="4.25" width="3.25" height="3.25" rx=".875" ry=".875" style="fill:#231f20;"/></svg>