<?xml version="1.0" encoding="UTF-8"?><svg id="a" xmlns="http://www.w3.org/2000/svg" viewBox="0 0 16 16"><path d="m15.125,7.125H.875c-.4833,0-.875.3917-.875.875s.3917.875.875.875h14.25c.4833,0,.875-.3918.875-.875s-.3917-.875-.875-.875Z" style="fill:#231f20;"/><path d="m15.125,2.75H.875c-.4833,0-.875.3917-.875.875s.3917.875.875.875h14.25c.4833,0,.875-.3918.875-.875s-.3917-.875-.875-.875Z" style="fill:#231f20;"/><path d="m15.125,11.5H.875c-.4833,0-.875.3917-.875.875s.3917.875.875.875h14.25c.4833,0,.875-.3918.875-.875s-.3917-.875-.875-.875Z" style="fill:#231f20;"/></svg>