<?xml version="1.0" encoding="UTF-8"?><svg id="a" xmlns="http://www.w3.org/2000/svg" viewBox="0 0 16 16"><path d="m6,16h2.4578c2.2205,0,4.1546-1.2094,5.1921-3.0023l-.0005-.0003,1.9985-3.4615c.7249-1.2555.2946-2.861-.9609-3.5858-.7758-.4479-1.6843-.4524-2.437-.096v-2.3541h-.0126c-.0667-1.3904-1.2054-2.5-2.6124-2.5-.4488,0-.8647.1231-1.2342.3216-.4534-.7862-1.293-1.3216-2.2658-1.3216-1.2956,0-2.3653.9406-2.5796,2.1749-.2874-.1081-.5953-.1749-.9204-.1749C1.2181,2,.0793,3.1096.0126,4.5h-.0126v5.75h.0126c.132,3.1968,2.7581,5.75,5.9874,5.75ZM1.75,4.625c0-.4833.3917-.875.875-.875s.875.3917.875.875v2.5c0,.4833.3917.875.875.875s.875-.3917.875-.875V2.625c0-.4833.3917-.875.875-.875s.875.3917.875.875v4.5c0,.4833.3917.875.875.875s.875-.3917.875-.875v-3.5c0-.4833.3917-.875.875-.875s.875.3917.875.875v4.57c0,.4833.3917.875.875.875.3177,0,.5836-.1781.7368-.4315l.0095.0055.4954-.8582c.2416-.4185.7767-.5619,1.1953-.3203.4185.2416.562.7767.3203,1.1953l-1.9985,3.4615-.0107-.0062c-.735,1.2698-2.0926,2.1338-3.6653,2.1338h-2.4578c-2.3472,0-4.25-1.9028-4.25-4.25v-5.375Z" style="fill:#231f20;"/></svg>