<?xml version="1.0" encoding="UTF-8"?><svg id="a" xmlns="http://www.w3.org/2000/svg" viewBox="0 0 16 16"><path d="m13.375,2c-.3251,0-.633.0668-.9204.1749-.2143-1.2343-1.284-2.1749-2.5796-2.1749-.9728,0-1.8124.5354-2.2658,1.3216-.3694-.1985-.7854-.3216-1.2342-.3216-1.4069,0-2.5457,1.1096-2.6124,2.5h-.0126v2.3541c-.7527-.3564-1.6612-.3519-2.4371.096C.0574,6.6749-.3727,8.2803.3521,9.5359l1.9985,3.4614-.0006.0004c1.0375,1.793,2.9716,3.0023,5.1921,3.0023h2.4579c3.2293,0,5.8553-2.5532,5.9874-5.75h.0126v-5.75h-.0126c-.0667-1.3904-1.2054-2.5-2.6124-2.5Zm.875,8c0,2.3472-1.9028,4.25-4.25,4.25h-2.4579c-1.5727,0-2.9303-.864-3.6653-2.1338l-.0107.0062-1.9985-3.4615c-.2416-.4185-.0982-.9537.3203-1.1953.4185-.2416.9536-.0983,1.1953.3203l.4955.8581.0095-.0055c.1533.2534.4191.4315.7368.4315.4833,0,.875-.3918.875-.875V3.625c0-.4833.3918-.875.875-.875s.875.3917.875.875v3.5c0,.4832.3917.875.875.875s.875-.3918.875-.875V2.625c0-.4833.3918-.875.875-.875s.875.3917.875.875v4.5c0,.4832.3917.875.875.875s.875-.3918.875-.875v-2.5c0-.4833.3918-.875.875-.875s.875.3917.875.875v5.375Z" style="fill:#231f20;"/></svg>