<?xml version="1.0" encoding="UTF-8"?><svg id="a" xmlns="http://www.w3.org/2000/svg" viewBox="0 0 16 16"><path d="m14.5407,2.5309c-1.8062-1.8062-4.7346-1.8062-6.5407,0C6.1938.7248,3.2654.7248,1.4593,2.5309s-1.8062,4.7346,0,6.5407l5.3033,5.3033.6187.6187c.3417.3417.8957.3417,1.2374,0l.6187-.6187,5.3033-5.3033c1.8062-1.8062,1.8062-4.7346,0-6.5407Zm-1.2374,5.3033l-5.3033,5.3033L2.6967,7.8342c-1.1228-1.1227-1.1227-2.9431,0-4.0659s2.9431-1.1227,4.0659,0l.6187.6187c.3417.3417.8957.3417,1.2374,0l.6187-.6187c1.1228-1.1227,2.9431-1.1227,4.0659,0s1.1228,2.9431,0,4.0659Z" style="fill:#231f20;"/></svg>