<?xml version="1.0" encoding="UTF-8"?><svg id="a" xmlns="http://www.w3.org/2000/svg" viewBox="0 0 16 16"><path d="m11.7815,9.1298l1.2374,1.2374,1.5153-1.5153c1.8062-1.8062,1.8062-4.7346,0-6.5407-1.8062-1.8062-4.7346-1.8062-6.5407,0-1.1587-1.1588-2.7772-1.5644-4.267-1.2365l1.7428,1.7428c.4703.1264.9176.3619,1.2867.7311l.6187.6187c.3417.3417.8957.3417,1.2374,0l.6187-.6187c1.1228-1.1228,2.9431-1.1228,4.0659,0,1.1227,1.1227,1.1228,2.9431,0,4.0659l-1.5153,1.5153Z" style="fill:#231f20;"/><path d="m.6964,3.348C-.2791,5.1069-.0403,7.3589,1.4528,8.852l5.3033,5.3033.6187.6187c.3417.3417.8957.3417,1.2374,0l.6187-.6187,1.1364-1.1364-1.2374-1.2374-1.1364,1.1364L2.6902,7.6146c-.7993-.7993-1.0184-1.9494-.6797-2.9524l-1.3141-1.3141Z" style="fill:#231f20;"/><path d="m.2563.2563C-.0854.598-.0854,1.152.2563,1.4937l.3732.3732,11.4905,11.4905s.0001,0,.0002.0001l1.0408,1.0408c.3417.3417.8957.3417,1.2374,0s.3417-.8957,0-1.2374L1.4937.2563C1.152-.0854.598-.0854.2563.2563Z" style="fill:#231f20;"/></svg>