<?xml version="1.0" encoding="UTF-8"?><svg id="a" xmlns="http://www.w3.org/2000/svg" viewBox="0 0 16 16"><path d="m14,1.75v-.875c0-.4833-.3918-.875-.875-.875H2.875c-.4833,0-.875.3917-.875.875v.875c0,2.2154,1.2042,4.1448,2.9904,5.1841l-.0004.0007c.3727.2164.635.6032.635,1.0652s-.2623.8488-.635,1.0652l.0004.0007c-1.7861,1.0393-2.9904,2.9688-2.9904,5.1841v.875c0,.4833.3917.875.875.875h10.25c.4832,0,.875-.3917.875-.875v-.875c0-2.2153-1.2042-4.145-2.9904-5.1842l.0004-.0006c-.3727-.2164-.635-.6032-.635-1.0652s.2623-.8488.635-1.0652l-.0004-.0006c1.7861-1.0392,2.9904-2.9689,2.9904-5.1842Zm-3.8839,3.6653l.0031.0054c-.8895.5204-1.4943,1.4743-1.4943,2.5793s.6048,2.0589,1.4943,2.5793l-.0031.0054c1.2698.735,2.1339,2.0927,2.1339,3.6653H3.75c0-1.5727.8641-2.9304,2.1339-3.6653l-.0031-.0054c.8895-.5204,1.4943-1.4743,1.4943-2.5793s-.6048-2.0589-1.4943-2.5793l.0031-.0054c-1.2698-.735-2.1339-2.0927-2.1339-3.6653h8.5c0,1.5727-.8641,2.9304-2.1339,3.6653Z" style="fill:#231f20;"/><path d="m4.585,13.5h6.8301c-.2092-.9559-.8109-1.7617-1.6246-2.25h-3.5809c-.8137.4883-1.4153,1.2941-1.6246,2.25Z" style="fill:#231f20;"/></svg>