<?xml version="1.0" encoding="UTF-8"?><svg id="a" xmlns="http://www.w3.org/2000/svg" viewBox="0 0 16 16"><path d="m9.7678,1.2322c-.9763-.9764-2.5592-.9764-3.5355,0L.2925,7.1719c-.3417.3417-.3417.8957,0,1.2374.3417.3417.8958.3417,1.2375,0l.47-.47v6.6855h0c0,.4833.3918.8751.875.8751h10.25c.4832,0,.875-.3917.875-.875v-6.6857l.47.47c.3417.3417.8958.3417,1.2374,0,.3417-.3417.3417-.8958,0-1.2374L9.7678,1.2322Zm-.7678,12.5178h-2v-2.75c0-.4142.3358-.75.75-.75h.5c.4142,0,.75.3358.75.75v2.75Zm3.25-7.375v7.375h-1.5v-2.75c0-1.3807-1.1193-2.5-2.5-2.5h-.5c-1.3807,0-2.5,1.1193-2.5,2.5v2.75h-1.5v-7.3751c0-.0547-.0215-.1024-.0312-.1544l3.7509-3.7509c.2929-.2929.7678-.2929,1.0607,0l3.7508,3.7508c-.0096.052-.0312.0997-.0312.1545Z" style="fill:#231f20;"/></svg>