<?xml version="1.0" encoding="UTF-8"?><svg id="a" xmlns="http://www.w3.org/2000/svg" viewBox="0 0 16 16"><path d="m.2925,8.4094c.3417.3417.8958.3417,1.2374,0l.47-.47v6.6857c0,.4832.3917.875.875.875h10.25c.4832,0,.875-.3917.875-.875v-6.6857l.47.47c.3417.3417.8957.3417,1.2374,0,.3417-.3417.3417-.8958,0-1.2375l-2.2075-2.2075V1.875c0-.4833-.3917-.875-.875-.875h-.75c-.4833,0-.875.3917-.875.875v.5894l-1.2322-1.2322c-.9763-.9763-2.5592-.9763-3.5355,0L.2925,7.1719c-.3417.3417-.3417.8957,0,1.2374Zm8.7075,5.3406h-2v-2.75c0-.4142.3358-.75.75-.75h.5c.4142,0,.75.3358.75.75v2.75Zm-1.5303-11.2803c.2929-.2929.7677-.2929,1.0607,0l3.7508,3.7509c-.0096.052-.0312.0997-.0312.1545v7.375h-1.5v-2.75c0-1.3807-1.1193-2.5-2.5-2.5h-.5c-1.3807,0-2.5,1.1193-2.5,2.5v2.75h-1.5v-7.375c0-.0548-.0215-.1025-.0312-.1545l3.7509-3.7509Z" style="fill:#231f20;"/></svg>