<?xml version="1.0" encoding="UTF-8"?><svg id="a" xmlns="http://www.w3.org/2000/svg" viewBox="0 0 16 16"><path d="m13.5,1.5H2.5C1.1193,1.5,0,2.6193,0,4v8c0,1.3807,1.1193,2.5,2.5,2.5h11c1.3807,0,2.5-1.1193,2.5-2.5V4c0-1.3807-1.1193-2.5-2.5-2.5Zm-6.287,11.0151c-.0693.0693-.1147.1516-.1559.2349H2.5c-.4142,0-.75-.3358-.75-.75v-.8117l2.8259-2.8259,3.3949,3.3949-.7578.7578Zm6.287.2349h-4.047l2.2838-2.2839,2.1565,2.1566c-.116.0736-.2457.1273-.3933.1273Zm.75-2.2455l-1.8945-1.8945c-.3417-.3417-.8958-.3417-1.2374,0l-1.9099,1.9099-4.0136-4.0136c-.3417-.3417-.8957-.3417-1.2374,0l-2.2072,2.2072v-4.7134c0-.4142.3358-.75.75-.75h11c.4142,0,.75.3358.75.75v6.5045Z" style="fill:#231f20;"/><path d="m9.3661,4.3661c-.4881.4882-.4881,1.2796,0,1.7678.4882.4882,1.2797.4882,1.7678,0,.4881-.4882.4881-1.2796,0-1.7678-.4882-.4882-1.2797-.4882-1.7678,0Z" style="fill:#231f20;"/></svg>