<?xml version="1.0" encoding="UTF-8"?><svg id="a" xmlns="http://www.w3.org/2000/svg" viewBox="0 0 16 16"><path d="m8,0C3.5817,0,0,3.5817,0,8s3.5817,8,8,8,8-3.5817,8-8S12.4183,0,8,0Zm0,14.25c-3.4518,0-6.25-2.7982-6.25-6.25S4.5482,1.75,8,1.75s6.25,2.7982,6.25,6.25-2.7983,6.25-6.25,6.25Z" style="fill:#231f20;"/><path d="m9.375,10.25h-.375v-2.625c0-.4833-.3917-.875-.875-.875h-1.25c-.4833,0-.875.3917-.875.875s.3917.875.875.875h.375v1.75h-.375c-.4833,0-.875.3917-.875.875s.3917.875.875.875h2.5c.4833,0,.875-.3918.875-.875s-.3917-.875-.875-.875Z" style="fill:#231f20;"/><circle cx="7.875" cy="5.125" r="1.125" style="fill:#231f20;"/></svg>