<?xml version="1.0" encoding="UTF-8"?><svg id="a" xmlns="http://www.w3.org/2000/svg" viewBox="0 0 16 16"><path d="m6.4105,5.8047L.8812,9.6763c-.9048.6335-1.1247,1.8807-.4911,2.7855l1.5773,2.2527c.6335.9048,1.8806,1.1248,2.7855.4911.9048-.6335,1.1247-1.8807.4911-2.7855-.0792-.1131-.0517-.269.0614-.3481.1131-.0792.269-.0518.3482.0613.6335.9048,1.8806,1.1248,2.7855.4911.9048-.6335,1.1247-1.8806.4911-2.7855-.0792-.113-.0517-.269.0614-.3481.0728-.051.1569-.0437.2333-.0118l.0032-.0068c1.4858.6884,3.2797.6085,4.7177-.3984,2.1489-1.5047,2.6711-4.4666,1.1664-6.6155C13.6077.3094,10.6458-.2128,8.4969,1.2919c-1.438,1.0069-2.1266,2.6653-1.9879,4.297l-.0076.0007c.0038.0827-.0181.1642-.0909.2151Zm1.0038,1.4335c.6033-.4224.8938-1.1172.8381-1.8019l-.0074.0006c-.0867-1.0298.3481-2.0761,1.2556-2.7115,1.3572-.9503,3.2278-.6205,4.1782.7368.9503,1.3572.6205,3.2278-.7368,4.1782-.9075.6354-2.0394.6862-2.9774.2525l.0031-.0067c-.6243-.2865-1.3766-.2512-1.9799.1713-.9048.6336-1.1247,1.8807-.4911,2.7855.0792.1131.0517.269-.0614.3482-.1131.0792-.269.0517-.3481-.0614-.6336-.9048-1.8807-1.1247-2.7855-.4911-.9048.6335-1.1247,1.8807-.4911,2.7855.0792.1131.0517.269-.0614.3481-.1131.0792-.269.0517-.3482-.0614l-1.5773-2.2526c-.0792-.1131-.0517-.269.0614-.3482l5.5293-3.8716Z" style="fill:#231f20;"/><path d="m12.6446,5.2545c.3958-.2773.492-.8231.2149-1.219-.2771-.3959-.8225-.4922-1.2183-.2148-.3958.2773-.4921.823-.215,1.2189.277.3959.8226.4921,1.2183.2149Z" style="fill:#231f20;"/></svg>