<?xml version="1.0" encoding="UTF-8"?><svg id="a" xmlns="http://www.w3.org/2000/svg" viewBox="0 0 16 16"><path d="m10.8541,5.4655c-.0223.0222-.0338.0547-.0537.0796-.0515.0645-.1035.1288-.1349.2045-.0012.0029-.0038.0046-.0049.0074l-3.6524,9.04c-.181.4481.0354.958.4835,1.139s.9581-.0355,1.1391-.4835l.5869-1.4525h4.509l.5869,1.4525c.181.4481.691.6646,1.1391.4835s.6645-.691.4835-1.139l-3.6524-9.04c-.0012-.0029-.0037-.0046-.0049-.0074-.0314-.0757-.0834-.14-.1349-.2045-.02-.0248-.0314-.0574-.0537-.0796-.0068-.0068-.0174-.0099-.0245-.0166-.0771-.0717-.1636-.1317-.2598-.1714-.0024-.001-.0038-.0031-.0062-.004-.0353-.0143-.0718-.0107-.1077-.0201-.0724-.0192-.1437-.0411-.2198-.0411s-.1473.0219-.2198.0411c-.0359.0094-.0724.0059-.1077.0201-.0024.001-.0038.0031-.0062.004-.0962.0397-.1826.0997-.2598.1714-.0071.0067-.0177.0098-.0245.0166Zm.618,2.9544l1.5475,3.8301h-3.095l1.5475-3.8301Z" style="fill:#231f20;"/><path d="m.875,3.5h6.767c-.3806,1.7832-1.1011,3.4914-2.1443,5.0275-.5547-.8118-1.0289-1.6736-1.4037-2.5785v-.0002c-.1849-.4464-.6968-.6584-1.1432-.4735-.4465.1849-.6585.6968-.4736,1.1432.4914,1.1863,1.1421,2.3019,1.907,3.342-.7281.8218-1.5504,1.5806-2.4893,2.238-.3959.2772-.492.8228-.2148,1.2186.2772.3959.8228.4921,1.2186.2148.9748-.6826,1.8416-1.4599,2.6143-2.3018.146.1584.2805.3257.4333.4786.3417.3417.8958.3417,1.2375,0,.3416-.3417.3417-.8957,0-1.2374,0,0-.0002,0-.0002-.0001-.1951-.1952-.3706-.4059-.5533-.6111,1.4179-1.9401,2.3667-4.1498,2.8038-6.46h.691c.4833,0,.875-.3918.875-.875s-.3917-.875-.875-.875h-3.75v-.875c0-.4833-.3917-.875-.875-.875s-.875.3917-.875.875v.875H.875c-.4833,0-.875.3917-.875.875s.3917.875.875.875Z" style="fill:#231f20;"/></svg>