<?xml version="1.0" encoding="UTF-8"?><svg id="a" xmlns="http://www.w3.org/2000/svg" viewBox="0 0 16 16"><path d="m15.7867,5.5c-.0201-.8707-.4858-1.6715-1.2425-2.1084L9.25.335c-.7735-.4466-1.7265-.4466-2.5,0L1.4558,3.3916c-.7567.4369-1.2224,1.2377-1.2425,2.1084.0201.8707.4858,1.6715,1.2425,2.1084l.6783.3916-.6783.3916c-.7567.4369-1.2224,1.2377-1.2425,2.1084.0201.8707.4858,1.6715,1.2425,2.1084l5.2942,3.0566c.7735.4466,1.7265.4466,2.5,0l5.2943-3.0566c.7567-.4369,1.2224-1.2377,1.2425-2.1084-.0201-.8707-.4858-1.6715-1.2425-2.1084l-.6783-.3916.6783-.3916c.7567-.4369,1.2224-1.2377,1.2425-2.1084Zm-1.7577,5c-.0197.2443-.1453.4691-.3598.5929l-5.2943,3.0566c-.2321.134-.5179.134-.75,0l-5.2943-3.0566c-.2145-.1238-.3401-.3486-.3598-.5929.0197-.2443.1453-.4691.3598-.5929l1.5532-.8968,2.866,1.6547c.7735.4466,1.7265.4466,2.5,0l2.866-1.6547,1.5532.8968c.2145.1238.3401.3486.3598.5929Zm-.3598-4.4071l-5.2943,3.0566c-.2321.134-.5179.134-.75,0l-5.2943-3.0566c-.2145-.1238-.3401-.3486-.3598-.5929.0197-.2443.1453-.4691.3598-.5929L7.625,1.8505c.2321-.134.5179-.134.75,0l5.2943,3.0566c.2145.1238.3401.3486.3598.5929-.0197.2443-.1453.4691-.3598.5929Z" style="fill:#231f20;"/></svg>