<?xml version="1.0" encoding="UTF-8"?><svg id="a" xmlns="http://www.w3.org/2000/svg" viewBox="0 0 16 16"><path d="m14,8.5c0-1.3807-1.1193-2.5-2.5-2.5h-5.75v-2c0-1.2426,1.0073-2.25,2.25-2.25s2.25,1.0074,2.25,2.25c0,.4832.3917.875.875.875s.875-.3918.875-.875c0-2.2091-1.7909-4-4-4s-4,1.7909-4,4v2.0504c-1.1411.2317-2,1.2401-2,2.4496v5c0,1.3807,1.1193,2.5,2.5,2.5h7c1.3807,0,2.5-1.1193,2.5-2.5v-5Zm-1.75,5c0,.4142-.3358.75-.75.75h-7c-.4142,0-.75-.3358-.75-.75v-5c0-.4142.3358-.75.75-.75h7c.4142,0,.75.3358.75.75v5Z" style="fill:#231f20;"/></svg>