<?xml version="1.0" encoding="UTF-8"?><svg id="a" xmlns="http://www.w3.org/2000/svg" viewBox="0 0 16 16"><path d="m4,6.0504c-1.1411.2317-2,1.2401-2,2.4496v5c0,1.3807,1.1193,2.5,2.5,2.5h7c1.3807,0,2.5-1.1193,2.5-2.5v-5c0-1.2095-.8589-2.2179-2-2.4496v-2.0504c0-2.2091-1.7909-4-4-4s-4,1.7909-4,4v2.0504Zm1.75-2.0504c0-1.2426,1.0073-2.25,2.25-2.25s2.25,1.0074,2.25,2.25v2h-4.5v-2Zm5.75,3.75c.4142,0,.75.3358.75.75v5c0,.4142-.3358.75-.75.75h-7c-.4142,0-.75-.3358-.75-.75v-5c0-.4142.3358-.75.75-.75h7Z" style="fill:#231f20;"/></svg>