<?xml version="1.0" encoding="UTF-8"?><svg id="a" xmlns="http://www.w3.org/2000/svg" viewBox="0 0 16 16"><path d="m13.5,2H2.5c-1.3807,0-2.5,1.1193-2.5,2.5v.2897c-.0134.0777-.0076.1534,0,.2305v6.4797c0,1.3807,1.1193,2.5,2.5,2.5h11c1.3807,0,2.5-1.1193,2.5-2.5v-6.4797c.0076-.0772.0134-.1528,0-.2305v-.2898c0-1.3807-1.1193-2.5-2.5-2.5ZM2.5,3.75h11c.3963,0,.7125.3102.7398.6996l-6.2397,3.6025L1.7602,4.4496c.0273-.3893.3434-.6996.7398-.6996Zm11.75,7.75c0,.4142-.3358.75-.75.75H2.5c-.4142,0-.75-.3358-.75-.75v-5.0355l5.8124,3.3558c.0327.0189.0691.0204.103.0346.0562.0237.1102.0455.1699.0571.0554.0107.1086.0116.1642.0115.056.0002.1097-.0007.1655-.0115.0593-.0115.1129-.0333.1687-.0567.0342-.0143.0709-.0159.1038-.0349l5.8124-3.3558v5.0355Z" style="fill:#231f20;"/></svg>