<?xml version="1.0" encoding="UTF-8"?><svg id="a" xmlns="http://www.w3.org/2000/svg" viewBox="0 0 16 16"><path d="m15.9554,1.285c-.0156-.0581-.0296-.1143-.0562-.167-.008-.016-.0076-.0336-.0166-.0493-.0186-.0322-.0488-.0513-.0707-.0801-.0372-.0493-.0735-.0959-.1202-.1362-.0423-.0366-.0876-.0637-.1353-.0912-.0487-.0283-.0958-.0545-.1499-.0731-.0572-.0197-.1146-.0277-.1747-.0353-.0366-.0047-.069-.0216-.1069-.0216-.0185,0-.0339.0094-.0521.0105-.058.0034-.1127.0192-.17.0344-.0576.0155-.1134.0294-.1657.0557-.0162.0081-.034.0076-.0499.0168l-4.3103,2.4885L6.0668.7485c-.0185-.0107-.0392-.0104-.0581-.0195-.0374-.0186-.0759-.0307-.1161-.0438-.032-.0107-.0623-.0203-.0953-.0273-.0403-.008-.0786-.0138-.1191-.016-.0186-.0012-.0342-.0107-.0531-.0107-.0192,0-.0352.0097-.0541.0109-.0415.0021-.0809.0076-.1222.0158-.0341.0073-.0652.0175-.0982.0287-.0363.0121-.0711.023-.105.0396-.0216.0103-.0452.0101-.0663.0223L.4376,3.486c-.0328.0189-.0522.0497-.0816.072-.0485.0367-.0943.0725-.1342.1184-.0371.0427-.0645.0884-.0922.1368-.0281.0484-.0541.0952-.0726.1489-.0197.0573-.0277.1146-.0353.1747-.0047.0367-.0217.0692-.0217.1072v10.25c0,.0185.0094.0339.0106.0522.0034.0576.019.112.0341.1688.0156.0582.0297.1144.0562.1671.0079.0159.0075.0336.0165.0492.0186.0321.0487.0512.0706.08.0372.0494.0736.0959.1203.1364.0423.0366.0875.0637.1353.0911.0488.0284.0959.0546.1501.0733.0569.0196.1141.0276.174.0352.0368.0047.0693.0217.1074.0217.0186,0,.0341-.0094.0523-.0106.0578-.0034.1124-.0191.1694-.0342.0578-.0155.1137-.0294.1661-.0558.0162-.0081.034-.0076.0498-.0168l4.3103-2.4885,4.3103,2.4885c.0184.0107.0392.0104.0581.0195.0375.0186.076.0307.1163.0438.0319.0107.0622.0203.0951.0272.0402.0079.0785.0138.119.0161.0186.0012.0344.0107.0533.0107.0193,0,.0354-.0098.0544-.011.0414-.0021.0807-.0076.122-.0158.0339-.0072.0651-.0175.098-.0286.0363-.0121.0712-.0231.1052-.0397.0216-.0102.0452-.0101.0663-.0223l4.7415-2.7375c.0328-.0189.0522-.0497.0816-.072.0485-.0367.0943-.0725.1342-.1184.0371-.0427.0645-.0884.0922-.1368.0281-.0484.0541-.0952.0726-.1489.0197-.0573.0277-.1146.0353-.1747.0047-.0367.0217-.0692.0217-.1072V1.5061c0-.0185-.0094-.0339-.0106-.0522-.0034-.0576-.019-.1121-.0341-.1689ZM4.75,11.2462l-3,1.7321V4.749l3-1.7321v8.2293Zm4.75,1.7344l-3-1.7321V3.0193l3,1.7321v8.2292Zm4.75-1.7297l-3,1.7321V4.7538l3-1.7321v8.2293Z" style="fill:#231f20;"/></svg>