<?xml version="1.0" encoding="UTF-8"?><svg id="a" xmlns="http://www.w3.org/2000/svg" viewBox="0 0 16 16"><path d="m11.8773,9.2256l1.2975,1.2975c.5212-.8877.8252-1.9185.8252-3.0231,0-.4833-.3918-.875-.875-.875s-.875.3917-.875.875c0,.6158-.1371,1.1973-.3727,1.7256Z" style="fill:#231f20;"/><path d="m10.125,14.25h-1.25v-.8209c.5168-.0757,1.0013-.2375,1.4666-.4359l-1.3665-1.3665c-.3144.0742-.6381.1232-.9752.1232-2.3472,0-4.25-1.9028-4.25-4.25,0-.4833-.3918-.875-.875-.875s-.875.3917-.875.875c0,3.0157,2.2272,5.5045,5.125,5.9291v.8209h-1.25c-.4833,0-.875.3917-.875.875s.3917.875.875.875h4.25c.4832,0,.875-.3918.875-.875s-.3918-.875-.875-.875Z" style="fill:#231f20;"/><path d="m11.2935,8.6418c.1248-.3596.2065-.7397.2065-1.1418V3.5c0-1.933-1.567-3.5-3.5-3.5-1.446,0-2.6863.8774-3.22,2.1284l1.47,1.47v-.0984c0-.9665.7835-1.75,1.75-1.75s1.75.7835,1.75,1.75v3.5983l1.5435,1.5435Z" style="fill:#231f20;"/><path d="m8,11c.1084,0,.2106-.0223.3165-.0319l-3.8165-3.8165v.3484c0,1.933,1.567,3.5,3.5,3.5Z" style="fill:#231f20;"/><path d="m.929.9289c-.3417.3417-.3417.8958,0,1.2375l.7071.7071,11.4905,11.4905.7071.7071c.3417.3417.8958.3417,1.2374,0,.3417-.3417.3417-.8957,0-1.2374L2.1664.9289c-.3417-.3417-.8958-.3417-1.2374,0Z" style="fill:#231f20;"/></svg>