<?xml version="1.0" encoding="UTF-8"?><svg id="a" xmlns="http://www.w3.org/2000/svg" viewBox="0 0 16 16"><path d="m14,7.5c0-.4833-.3917-.875-.875-.875s-.875.3917-.875.875c0,2.3472-1.9028,4.25-4.25,4.25s-4.25-1.9028-4.25-4.25c0-.4833-.3917-.875-.875-.875s-.875.3917-.875.875c0,3.0157,2.2272,5.5045,5.125,5.9291v.8209h-1.25c-.4833,0-.875.3917-.875.875s.3917.875.875.875h4.25c.4833,0,.875-.3918.875-.875s-.3917-.875-.875-.875h-1.25v-.8209c2.8978-.4246,5.125-2.9134,5.125-5.9291Z" style="fill:#231f20;"/><path d="m8,0c-1.933,0-3.5,1.567-3.5,3.5v4c0,1.933,1.567,3.5,3.5,3.5s3.5-1.567,3.5-3.5V3.5c0-1.933-1.567-3.5-3.5-3.5Zm1.75,7.5c0,.9665-.7835,1.75-1.75,1.75s-1.75-.7835-1.75-1.75V3.5c0-.9665.7835-1.75,1.75-1.75s1.75.7835,1.75,1.75v4Z" style="fill:#231f20;"/></svg>