<?xml version="1.0" encoding="UTF-8"?><svg id="a" xmlns="http://www.w3.org/2000/svg" viewBox="0 0 16 16"><path d="m13.5,3H2.5c-1.3807,0-2.5,1.1193-2.5,2.5v5c0,1.3807,1.1193,2.5,2.5,2.5h11c1.3807,0,2.5-1.1193,2.5-2.5v-5c0-1.3807-1.1193-2.5-2.5-2.5ZM1.75,5.5c0-.4142.3358-.75.75-.75h.4999c0,.6904-.5596,1.25-1.2499,1.25v-.5Zm.75,5.75c-.4142,0-.75-.3358-.75-.75v-.5c.6903,0,1.2499.5596,1.2499,1.25h-.4999Zm11.75-.75c0,.4142-.3358.75-.75.75h-.4999c0-.6904.5596-1.25,1.2499-1.25v.5Zm0-2.25c-1.6568,0-2.9999,1.3431-2.9999,3h-6.5001c0-1.6569-1.3431-3-2.9999-3v-.5c1.6568,0,2.9999-1.3431,2.9999-3h6.5001c0,1.6569,1.3431,3,2.9999,3v.5Zm0-2.25c-.6903,0-1.2499-.5596-1.2499-1.25h.4999c.4142,0,.75.3358.75.75v.5Z" style="fill:#231f20;"/><circle cx="8" cy="8" r="2.25" style="fill:#231f20;"/></svg>