<?xml version="1.0" encoding="UTF-8"?><svg id="a" xmlns="http://www.w3.org/2000/svg" viewBox="0 0 16 16"><path d="m9.9673.7075s-.0003-.0006-.0004-.001c-.0001-.0004,0-.0007,0-.001-.0867-.3912-.425-.6476-.8062-.6694-.0876-.0093-.1746-.0219-.2634-.0256-.681-.0288-1.3754.0202-2.0725.1747C2.5113,1.1415-.2103,5.4136.746,9.7271s5.2283,7.0352,9.5419,6.0789c2.0566-.4559,3.7443-1.6703,4.851-3.2789.0521-.0758.0966-.1563.1436-.2353.1358-.1939.1981-.438.1428-.6874-.1046-.4718-.5718-.7695-1.0436-.6649-.0566.0126-.1013.0453-.1525.0676l-.007-.0314c-.0807.033-.1553.0753-.2382.1046-.199.0701-.3914.152-.6025.1988-2.8307.6276-5.6343-1.1584-6.2619-3.9893-.4819-2.1739.4672-4.3217,2.2122-5.4903.0784-.0525.1685-.0891.2497-.1378l-.0069-.0313c.304-.1913.475-.5522.3928-.923Zm2.126,12.438c-.6425.4417-1.3764.7729-2.1843.952-3.37.7471-6.7075-1.3792-7.4547-4.7491-.699-3.1528,1.1177-6.2765,4.1143-7.2778-1.1225,1.5618-1.6068,3.5725-1.1577,5.5981.7126,3.2144,3.5308,5.4105,6.6824,5.4768Z" style="fill:#231f20;"/></svg>