<?xml version="1.0" encoding="UTF-8"?><svg id="a" xmlns="http://www.w3.org/2000/svg" viewBox="0 0 16 16"><path d="m.0676,7.6655c-.0886.2139-.0886.455,0,.6689.0444.1069.1082.2037.1887.2843l2.2981,2.2981c.3417.3417.8958.3417,1.2374,0s.3417-.8958,0-1.2374l-.8044-.8044h4.1376v4.1376l-.8044-.8044c-.3417-.3417-.8958-.3417-1.2374,0-.3417.3417-.3417.8957,0,1.2374l2.2981,2.2981c.0806.0806.1772.1443.2842.1887.2139.0886.455.0886.6689,0,.1069-.0444.2037-.1082.2843-.1887l2.2981-2.2981c.3417-.3417.3417-.8958,0-1.2374s-.8958-.3417-1.2374,0l-.8044.8044v-4.1376h4.1376l-.8044.8044c-.3417.3417-.3417.8957,0,1.2374s.8957.3417,1.2374,0l2.2981-2.2981c.0806-.0806.1444-.1774.1887-.2843.0886-.2139.0886-.455,0-.6689-.0443-.1069-.1082-.2036-.1887-.2842l-2.2981-2.2981c-.3417-.3417-.8958-.3417-1.2374,0-.3417.3417-.3417.8957,0,1.2374l.8044.8044h-4.1376V2.9874l.8044.8044c.3417.3417.8957.3417,1.2374,0s.3417-.8957,0-1.2374L8.6187.2563c-.0806-.0806-.1774-.1444-.2843-.1887-.2139-.0886-.455-.0886-.6689,0-.1069.0443-.2036.1082-.2842.1887l-2.2981,2.2981c-.3417.3417-.3417.8958,0,1.2374.3417.3417.8957.3417,1.2374,0l.8044-.8044v4.1376H2.9874l.8044-.8044c.3417-.3417.3417-.8958,0-1.2374-.3417-.3417-.8957-.3417-1.2374,0L.2563,7.3813c-.0806.0806-.1443.1772-.1887.2842Z" style="fill:#231f20;"/></svg>