<?xml version="1.0" encoding="UTF-8"?><svg id="a" xmlns="http://www.w3.org/2000/svg" viewBox="0 0 16 16"><path d="m15.9866.7602c-.0059-.0333-.0261-.0589-.0355-.0906-.0171-.0581-.0364-.1121-.0646-.1646-.0262-.0491-.0562-.092-.0907-.1345-.0359-.0444-.0727-.084-.1165-.1207-.0427-.0357-.087-.0645-.1357-.0915-.0489-.0273-.0975-.0498-.1516-.0674-.0555-.0182-.1111-.0276-.1703-.0344-.0333-.0038-.0624-.0195-.0968-.0195-.0269,0-.0496.0129-.0758.0153-.0259.0022-.0502-.0065-.0763-.0019L5.4695,1.7261c-.0352.0062-.0624.0274-.0958.0375-.0526.0161-.1016.0334-.1495.0587-.0565.0294-.1058.0635-.1539.1037-.0363.0304-.0692.0608-.1001.0966-.0439.0506-.0787.104-.11.1633-.0206.039-.0386.0771-.0532.1193-.0234.0669-.0352.1345-.0417.2066-.0024.0264-.0154.0491-.0154.0761v7.2579c-.4506-.2365-.9558-.3829-1.5-.3829-1.7949,0-3.25,1.4551-3.25,3.25s1.4551,3.25,3.25,3.25,3.25-1.4551,3.25-3.25V3.3214l7.75-1.3665v6.215c-.4506-.2365-.9558-.3829-1.5-.3829-1.7949,0-3.25,1.4551-3.25,3.25s1.4551,3.25,3.25,3.25,3.25-1.4551,3.25-3.25V.912c0-.0269-.0129-.0495-.0153-.0757-.0022-.0259.0065-.05.0019-.076ZM3.25,14.213c-.8284,0-1.5-.6716-1.5-1.5s.6716-1.5,1.5-1.5,1.5.6716,1.5,1.5-.6716,1.5-1.5,1.5Zm9.5-1.676c-.8284,0-1.5-.6716-1.5-1.5s.6716-1.5,1.5-1.5,1.5.6716,1.5,1.5-.6716,1.5-1.5,1.5Z" style="fill:#231f20;"/></svg>