<?xml version="1.0" encoding="UTF-8"?><svg id="a" xmlns="http://www.w3.org/2000/svg" viewBox="0 0 16 16"><path d="m8.875,7.125V.875c0-.4833-.3917-.875-.875-.875s-.875.3917-.875.875v6.25c0,.4832.3917.875.875.875s.875-.3918.875-.875Z" style="fill:#231f20;"/><path d="m4.998,3.0594c.0016-.0009.0033-.0007.0049-.0016.4186-.2416.5619-.7768.3203-1.1953-.2416-.4186-.7767-.562-1.1953-.3203-1.1415.6575-2.1337,1.6086-2.8396,2.8315-2.1401,3.7068-.8701,8.4467,2.8367,10.5867,3.7068,2.1401,8.4466.8701,10.5867-2.8367,2.1401-3.7067.87-8.4465-2.8368-10.5866-.4185-.2416-.9536-.0983-1.1953.3203s-.0982.9537.3203,1.1953c2.8698,1.6569,3.853,5.3264,2.1962,8.1962-1.6569,2.8698-5.3264,3.853-8.1962,2.1961S1.147,8.1185,2.8038,5.2487c.5457-.9451,1.3124-1.6804,2.1942-2.1893Z" style="fill:#231f20;"/></svg>