<?xml version="1.0" encoding="UTF-8"?><svg id="a" xmlns="http://www.w3.org/2000/svg" viewBox="0 0 16 16"><path d="m15.125,2.75h-1.0305c-.367-1.0871-1.3835-1.875-2.5945-1.875s-2.2275.7879-2.5945,1.875H.875c-.4833,0-.875.3917-.875.875s.3917.875.875.875h8.0305c.367,1.0871,1.3835,1.875,2.5945,1.875s2.2275-.7879,2.5945-1.875h1.0305c.4833,0,.875-.3918.875-.875s-.3917-.875-.875-.875Zm-3.625,1.875c-.5523,0-1-.4478-1-1s.4477-1,1-1,1,.4477,1,1-.4477,1-1,1Z" style="fill:#231f20;"/><path d="m15.125,7.125H7.0945c-.367-1.0871-1.3835-1.875-2.5945-1.875s-2.2275.7879-2.5945,1.875H.875c-.4833,0-.875.3917-.875.875s.3917.875.875.875h1.0305c.367,1.0871,1.3835,1.875,2.5945,1.875s2.2275-.7879,2.5945-1.875h8.0305c.4833,0,.875-.3918.875-.875s-.3917-.875-.875-.875Zm-10.625,1.875c-.5523,0-1-.4478-1-1s.4477-1,1-1,1,.4477,1,1-.4477,1-1,1Z" style="fill:#231f20;"/><path d="m15.125,11.5h-1.0305c-.367-1.0871-1.3835-1.875-2.5945-1.875s-2.2275.7879-2.5945,1.875H.875c-.4833,0-.875.3917-.875.875s.3917.875.875.875h8.0305c.367,1.0871,1.3835,1.875,2.5945,1.875s2.2275-.7879,2.5945-1.875h1.0305c.4833,0,.875-.3918.875-.875s-.3917-.875-.875-.875Zm-3.625,1.875c-.5523,0-1-.4478-1-1s.4477-1,1-1,1,.4477,1,1-.4477,1-1,1Z" style="fill:#231f20;"/></svg>