<?xml version="1.0" encoding="UTF-8"?><svg id="a" xmlns="http://www.w3.org/2000/svg" viewBox="0 0 16 16"><path d="m8,0C3.5817,0,0,3.5817,0,8s3.5817,8,8,8c1.1046,0,2-.8954,2-2s-.8954-2-2-2c-.1381,0-.25-.1119-.25-.25s.1119-.25.25-.25h4.5c1.933,0,3.5-1.567,3.5-3.5C16,3.5817,12.4183,0,8,0Zm4.5,9.75h-4.5c-1.1046,0-2,.8954-2,2s.8954,2,2,2c.1381,0,.25.1119.25.25s-.1119.25-.25.25c-3.4518,0-6.25-2.7982-6.25-6.25S4.5482,1.75,8,1.75s6.25,2.7982,6.25,6.25c0,.9665-.7835,1.75-1.75,1.75Z" style="fill:#231f20;"/><path d="m11.4518,5.7804c-.6002.1608-.9563.7777-.7955,1.3779.1608.6002.7776.9563,1.3778.7955s.9563-.7776.7955-1.3778c-.1608-.6002-.7777-.9563-1.3779-.7955Z" style="fill:#231f20;"/><path d="m3.9659,7.7863c-.6002.1608-.9563.7777-.7955,1.3779.1608.6001.7777.9563,1.3779.7955s.9563-.7777.7955-1.3779c-.1608-.6001-.7776-.9563-1.3778-.7955Z" style="fill:#231f20;"/><path d="m9.2941,3.0404c-.6001-.1608-1.217.1953-1.3778.7955s.1954,1.217.7955,1.3778c.6002.1608,1.217-.1953,1.3779-.7955s-.1954-1.217-.7955-1.3778Z" style="fill:#231f20;"/><path d="m4.4645,4.3345c-.4393.4393-.4393,1.1517,0,1.591s1.1516.4393,1.591,0c.4393-.4393.4393-1.1517,0-1.591-.4394-.4393-1.1517-.4393-1.591,0Z" style="fill:#231f20;"/></svg>