<?xml version="1.0" encoding="UTF-8"?><svg id="a" xmlns="http://www.w3.org/2000/svg" viewBox="0 0 16 16"><path d="m1.75,2.5v11c0,1.3807,1.1193,2.5,2.5,2.5h7.5c1.3807,0,2.5-1.1193,2.5-2.5V2.5c0-1.3807-1.1193-2.5-2.5-2.5h-7.5C2.8693,0,1.75,1.1193,1.75,2.5Zm10.75,0v11c0,.4142-.3358.75-.75.75h-7.5c-.4142,0-.75-.3358-.75-.75V2.5c0-.4142.3358-.75.75-.75h7.5c.4142,0,.75.3358.75.75Z" style="fill:#231f20;"/><path d="m5.375,4.5h5.2501c.4832,0,.875-.3918.875-.875s-.3918-.875-.875-.875h-5.2501c-.4832,0-.8749.3917-.8749.875s.3917.875.8749.875Z" style="fill:#231f20;"/><path d="m5.375,7.5h5.2501c.4832,0,.875-.3918.875-.875s-.3918-.875-.875-.875h-5.2501c-.4832,0-.8749.3917-.8749.875s.3917.875.8749.875Z" style="fill:#231f20;"/><path d="m5.375,10.5h2.7501c.4832,0,.875-.3918.875-.875s-.3918-.875-.875-.875h-2.7501c-.4832,0-.8749.3917-.8749.875s.3917.875.8749.875Z" style="fill:#231f20;"/></svg>