<?xml version="1.0" encoding="UTF-8"?><svg id="a" xmlns="http://www.w3.org/2000/svg" viewBox="0 0 16 16"><path d="m8,0C3.5817,0,0,3.5817,0,8s3.5817,8,8,8,8-3.5817,8-8S12.4183,0,8,0Zm0,14.25c-3.4518,0-6.25-2.7982-6.25-6.25S4.5482,1.75,8,1.75s6.25,2.7982,6.25,6.25-2.7982,6.25-6.25,6.25Z" style="fill:#231f20;"/><path d="m6.25,5c-.4833,0-.875.3917-.875.875v4.25c0,.4832.3917.875.875.875s.875-.3918.875-.875v-4.25c0-.4833-.3917-.875-.875-.875Z" style="fill:#231f20;"/><path d="m9.75,5c-.4833,0-.875.3917-.875.875v4.25c0,.4832.3917.875.875.875s.875-.3918.875-.875v-4.25c0-.4833-.3917-.875-.875-.875Z" style="fill:#231f20;"/></svg>