<?xml version="1.0" encoding="UTF-8"?><svg id="a" xmlns="http://www.w3.org/2000/svg" viewBox="0 0 16 16"><path d="m.7521,6.0554l9.1924,9.1924c.9763.9764,2.5593.9763,3.5355,0l1.7678-1.7678c.9764-.9763.9764-2.5592,0-3.5355l-1.4142-1.4142c-.6834-.6834-1.7914-.6834-2.4749,0l-.7072.7071-3.889-3.8891.7071-.7071c.6834-.6834.6835-1.7914,0-2.4749l-1.4142-1.4142C5.0792-.2241,3.4962-.2242,2.5199.7521l-1.7678,1.7678c-.9763.9763-.9763,2.5593,0,3.5355Zm1.2374-2.2981l1.7678-1.7678c.2929-.2929.7678-.2928,1.0607,0l1.4142,1.4142-.7072.7071c-.6834.6834-.6834,1.7914,0,2.4749l3.8891,3.8891c.6835.6835,1.7915.6834,2.4749,0l.7071-.7071,1.4142,1.4142c.2929.2929.2929.7678,0,1.0607l-1.7678,1.7678c-.2928.2929-.7678.2929-1.0607,0L1.9896,4.818c-.2928-.2928-.2928-.7678,0-1.0607Z" style="fill:#231f20;"/></svg>