<?xml version="1.0" encoding="UTF-8"?><svg id="a" xmlns="http://www.w3.org/2000/svg" viewBox="0 0 16 16"><path d="m3.1275,2.8134c-1.0249,1.7751-.9632,3.8723-.0358,5.5428.0114.0247.0115.0515.0254.0755l4.125,7.1447c.0093.0162.0253.0249.0355.0402.0316.0481.0724.0873.1138.129.0425.0425.0826.0842.132.1165.015.0099.0236.0256.0393.0347.0323.0187.0683.0201.1019.0342.0565.0239.1109.0458.171.0575.0555.0107.1088.0116.1645.0115.0557.0001.109-.0008.1645-.0115.0601-.0117.1145-.0336.171-.0575.0336-.0141.0695-.0156.1019-.0342.0157-.0091.0243-.0247.0393-.0347.0493-.0323.0894-.074.132-.1165.0414-.0416.0822-.0809.1138-.129.0102-.0153.0261-.024.0355-.0402l4.125-7.1447c.0097-.0168.0093-.0357.0178-.0529,1.5064-2.6816.5815-6.0824-2.0894-7.6244C8.121-.7988,4.6808.123,3.1275,2.8134Zm6.8088-.5433c1.8534,1.0701,2.4885,3.4399,1.4184,5.2933l.0066.0038-3.3613,5.822-3.3619-5.8229.0189-.0109c-.6677-1.1592-.7309-2.6252-.014-3.867,1.0701-1.8534,3.4399-2.4884,5.2933-1.4183Z" style="fill:#231f20;"/><path d="m8,8.375c1.5188,0,2.75-1.2313,2.75-2.75s-1.2312-2.75-2.75-2.75-2.75,1.2312-2.75,2.75,1.2312,2.75,2.75,2.75Zm0-3.75c.5523,0,1,.4477,1,1s-.4477,1-1,1-1-.4478-1-1,.4477-1,1-1Z" style="fill:#231f20;"/></svg>