<?xml version="1.0" encoding="UTF-8"?><svg id="a" xmlns="http://www.w3.org/2000/svg" viewBox="0 0 16 16"><path d="m13.25,5.25h-1.2905L9.3326.7002c-.0158-.0273-.0419-.0432-.0601-.0682-.1488-.2706-.4261-.4611-.7568-.4611h-2.25c-.0595,0-.1116.0226-.1677.0339-.0197.0038-.0388-.0016-.0585.0037h0c-.0104.0028-.0175.0106-.0277.0137-.0846.0262-.159.0656-.2305.1145-.0246.0167-.0502.0301-.0728.049-.0591.0499-.1052.1082-.1494.1718-.0219.0312-.0452.0595-.0629.0933-.0294.057-.0458.1176-.0623.181-.014.052-.0273.1017-.0316.1561-.0014.0202-.0117.0375-.0117.058,0,.0391.0173.0725.0223.1102.0049.0417-.0034.0823.0078.124l1.0637,3.9698h-1.9794l-.8725-1.5112c-.0186-.0322-.0488-.0513-.0707-.0801-.0372-.0493-.0735-.0959-.1202-.1362-.0423-.0366-.0876-.0637-.1353-.0912-.0487-.0283-.0958-.0545-.1499-.0731-.0572-.0197-.1146-.0277-.1747-.0353-.0366-.0047-.069-.0216-.1069-.0216H.875c-.0403,0-.0748.0177-.1138.023-.0378.0049-.0746-.0031-.1125.007-.02.0054-.0339.0198-.0532.0264-.0589.0201-.1101.0491-.1626.0807-.0462.0278-.0915.0532-.1311.0884-.0429.0379-.0759.0818-.1107.1274-.0336.044-.0663.0855-.091.1349-.0246.049-.0381.101-.0532.1547-.0162.0572-.0306.1124-.0349.1726-.0015.0208-.0121.0386-.0121.0598,0,.0403.0177.0747.0229.1136.0049.038-.0031.0751.0071.1131l.9639,3.5971L.03,11.5972c-.0102.0381-.0021.0751-.0071.1131-.0052.0389-.0229.0733-.0229.1136,0,.0212.0106.039.0121.0598.0042.0602.0187.1153.0349.1725.0151.0538.0286.1059.0533.1549.0246.0493.0573.0908.0908.1346.0349.0457.068.0897.111.1277.0396.035.0847.0604.1307.0881.0527.0317.104.0608.1631.081.0192.0066.0331.021.053.0263.0377.0101.0743.0021.112.007.0391.0053.0737.0231.1143.0231h2c.0382,0,.0707-.017.1076-.0217.0598-.0076.1167-.0154.1735-.035.0544-.0187.1019-.045.1508-.0735.0475-.0274.0927-.0544.1348-.0909.0468-.0405.0832-.0871.1205-.1365.0218-.0288.0519-.0479.0705-.08l.8725-1.5112h1.9794l-1.0637,3.9698c-.0112.0417-.0029.0823-.0078.124-.0049.0377-.0223.0711-.0223.1102,0,.0206.0103.0378.0117.058.0042.0544.0176.1041.0316.1561.0164.0634.0328.124.0623.181.0177.0338.041.0621.0629.0933.0441.0637.0903.1219.1494.1718.0226.0189.0482.0323.0728.049.0715.049.1459.0883.2305.1145.0102.0031.0173.0109.0277.0137h0c.0197.0052.0388-.0002.0585.0037.0562.0113.1082.0339.1677.0339h2.25c.3306,0,.608-.1906.7568-.4611.0182-.025.0443-.0408.0601-.0682l2.6268-4.5498h1.2905c1.5188,0,2.75-1.2313,2.75-2.75h0c0-1.5188-1.2312-2.75-2.75-2.75Zm0,3.75h-1.8v.0217c-.3018.0007-.5962.1434-.7579.4235l-2.6754,4.6339h-.6125l1.0657-3.9774c.1251-.4668-.1519-.9465-.6187-1.0717-.0761-.0204-.151-.0142-.2263-.0142v-.0159h-3.625v.0142c-.3017.0007-.5962.1434-.7579.4235l-.8725,1.5112h-.3541l.7269-2.7126c.0394-.1472.027-.2913-.0068-.4296-.0048-.03.0024-.059-.0056-.089l-.7145-2.6666h.3541l.8725,1.5112c.1617.2801.4562.4229.7579.4235v.0142h3.625v-.0159c.0753,0,.1501.0062.2263-.0142.4668-.1251.7438-.6049.6187-1.0717l-1.0657-3.9774h.6125l2.6754,4.6339c.1617.2801.4562.4228.7579.4235v.0217h1.8c.5523,0,1,.4477,1,1s-.4477,1-1,1Z" style="fill:#231f20;"/></svg>