<?xml version="1.0" encoding="UTF-8"?><svg id="a" xmlns="http://www.w3.org/2000/svg" viewBox="0 0 16 16"><path d="m8,0C3.5817,0,0,3.5817,0,8s3.5817,8,8,8,8-3.5817,8-8S12.4183,0,8,0Zm0,14.25c-3.4518,0-6.25-2.7982-6.25-6.25S4.5482,1.75,8,1.75s6.25,2.7982,6.25,6.25-2.7982,6.25-6.25,6.25Z" style="fill:#231f20;"/><path d="m11.14,7.666c-.0143-.0342-.0158-.0707-.0349-.1036-.0093-.0161-.0251-.0247-.0352-.0399-.0316-.0481-.0723-.0873-.1136-.1288-.0427-.0428-.0831-.0846-.1326-.117-.0148-.0098-.0232-.0252-.0388-.0342l-3.6807-2.125c-.0159-.0092-.0337-.0087-.0499-.0168-.0523-.0264-.1081-.0402-.1657-.0557-.0573-.0152-.112-.031-.17-.0344-.0182-.0011-.0336-.0105-.0521-.0105-.0379,0-.0703.0169-.1069.0216-.0601.0076-.1175.0156-.1747.0353-.0541.0186-.1012.0448-.1499.0731-.0477.0275-.093.0546-.1353.0912-.0466.0403-.083.087-.1202.1362-.0219.0289-.0521.048-.0707.0801-.009.0157-.0086.0333-.0166.0493-.0266.0527-.0406.1089-.0562.167-.0151.0568-.0307.1113-.0341.1689-.0012.0182-.0106.0337-.0106.0522v4.25c0,.0185.0094.0339.0106.0522.0034.0576.019.112.0341.1688.0156.0582.0297.1144.0562.1671.0079.0159.0075.0336.0165.0492.0186.0321.0487.0511.0705.08.0373.0494.0737.0961.1205.1365.0422.0365.0873.0635.1349.0909.0488.0285.0962.0547.1505.0734.0569.0196.1141.0276.174.0352.0368.0047.0693.0217.1074.0217.0186,0,.0341-.0094.0523-.0106.0578-.0034.1124-.0191.1694-.0342.0578-.0155.1137-.0294.1661-.0558.0162-.0081.034-.0076.0498-.0168l3.6807-2.125c.0156-.009.0241-.0245.0389-.0343.0494-.0324.0896-.074.1322-.1166.0414-.0417.0823-.081.114-.1292.0101-.0152.0259-.0239.0352-.0399.019-.0329.0205-.0693.0348-.1035.0236-.056.0453-.1097.0569-.1693.0107-.0557.0116-.1091.0115-.1649.0001-.0558-.0007-.1093-.0115-.165-.0115-.0594-.0333-.1132-.0568-.1691Z" style="fill:#231f20;"/></svg>