<?xml version="1.0" encoding="UTF-8"?><svg id="a" xmlns="http://www.w3.org/2000/svg" viewBox="0 0 16 16"><path d="m13.5,6.75v-1.75c0-1.3807-1.1193-2.5-2.5-2.5h-1.75c0-1.3807-1.1193-2.5-2.5-2.5s-2.5,1.1193-2.5,2.5h-1.75c-1.3807,0-2.5,1.1193-2.5,2.5v1.75c0,.9665.7835,1.75,1.75,1.75.4142,0,.75.3358.75.75s-.3358.75-.75.75c-.9665,0-1.75.7835-1.75,1.75v1.75c0,1.3807,1.1193,2.5,2.5,2.5h1.75c.9665,0,1.75-.7835,1.75-1.75,0-.4142.3358-.75.75-.75s.75.3358.75.75c0,.9665.7835,1.75,1.75,1.75h1.75c1.3807,0,2.5-1.1193,2.5-2.5v-1.75c1.3807,0,2.5-1.1193,2.5-2.5s-1.1193-2.5-2.5-2.5Zm0,3.25c-.9665,0-1.75.7835-1.75,1.75v1.75c0,.4142-.3358.75-.75.75h-1.75c0-1.3807-1.1193-2.5-2.5-2.5s-2.5,1.1193-2.5,2.5h-1.75c-.4142,0-.75-.3358-.75-.75v-1.75c1.3807,0,2.5-1.1193,2.5-2.5s-1.1193-2.5-2.5-2.5v-1.75c0-.4142.3358-.75.75-.75h1.75c.9665,0,1.75-.7835,1.75-1.75,0-.4142.3358-.75.75-.75s.75.3358.75.75c0,.9665.7835,1.75,1.75,1.75h1.75c.4142,0,.75.3358.75.75v1.75c0,.9665.7835,1.75,1.75,1.75.4142,0,.75.3358.75.75s-.3358.75-.75.75Z" style="fill:#231f20;"/></svg>