<?xml version="1.0" encoding="UTF-8"?><svg id="a" xmlns="http://www.w3.org/2000/svg" viewBox="0 0 16 16"><path d="m1.875.125H.125v5.25h5.25V.125H1.875Zm1.75,3.5h-1.75v-1.75h1.75v1.75Z" style="fill:#231f20;"/><path d="m.125,12.375v3.5h5.25v-5.25H.125v1.75Zm1.75,0h1.75v1.75h-1.75v-1.75Z" style="fill:#231f20;"/><path d="m15.875,5.375V.125h-5.25v5.25h5.25Zm-3.5-3.5h1.75v1.75h-1.75v-1.75Z" style="fill:#231f20;"/><rect x="7.125" y=".125" width="1.75" height="3.5" style="fill:#231f20;"/><rect x=".125" y="7.125" width="3.5" height="1.75" style="fill:#231f20;"/><polygon points="7.125 7.125 5.375 7.125 5.375 8.875 7.125 8.875 8.875 8.875 8.875 7.125 8.875 5.375 7.125 5.375 7.125 7.125" style="fill:#231f20;"/><rect x="8.875" y="8.875" width="1.75" height="1.75" style="fill:#231f20;"/><polygon points="8.875 10.625 7.125 10.625 7.125 15.875 8.875 15.875 10.625 15.875 10.625 14.125 8.875 14.125 8.875 10.625" style="fill:#231f20;"/><polygon points="14.125 10.625 15.875 10.625 15.875 8.875 15.875 7.125 10.625 7.125 10.625 8.875 14.125 8.875 14.125 10.625" style="fill:#231f20;"/><polygon points="12.375 14.125 12.375 15.875 14.125 15.875 15.875 15.875 15.875 14.125 15.875 12.375 14.125 12.375 14.125 14.125 12.375 14.125" style="fill:#231f20;"/><polygon points="10.625 12.375 10.625 14.125 12.375 14.125 12.375 12.375 14.125 12.375 14.125 10.625 10.625 10.625 10.625 12.375" style="fill:#231f20;"/></svg>