<?xml version="1.0" encoding="UTF-8"?><svg id="a" xmlns="http://www.w3.org/2000/svg" viewBox="0 0 16 16"><path d="m.125,13.375c0,1.3807,1.1193,2.5,2.5,2.5h1.5c.4833,0,.875-.3918.875-.875s-.3917-.875-.875-.875h-1.5c-.4142,0-.75-.3358-.75-.75v-1.5c0-.4833-.3917-.875-.875-.875s-.875.3917-.875.875v1.5Z" style="fill:#231f20;"/><path d="m11.875,15.875h1.5c1.3807,0,2.5-1.1193,2.5-2.5v-1.5c0-.4833-.3917-.875-.875-.875s-.875.3917-.875.875v1.5c0,.4142-.3358.75-.75.75h-1.5c-.4833,0-.875.3917-.875.875s.3917.875.875.875Z" style="fill:#231f20;"/><path d="m1,5c.4833,0,.875-.3917.875-.875v-1.5c0-.4142.3358-.75.75-.75h1.5c.4833,0,.875-.3917.875-.875s-.3917-.875-.875-.875h-1.5C1.2443.125.125,1.2443.125,2.625v1.5c0,.4833.3917.875.875.875Z" style="fill:#231f20;"/><path d="m15.875,2.625c0-1.3807-1.1193-2.5-2.5-2.5h-1.5c-.4833,0-.875.3918-.875.875s.3917.875.875.875h1.5c.4142,0,.75.3358.75.75v1.5c0,.4833.3917.875.875.875s.875-.3917.875-.875v-1.5Z" style="fill:#231f20;"/><rect x="3.625" y="3.625" width="3.5" height="3.5" style="fill:#231f20;"/><rect x="3.625" y="8.875" width="3.5" height="3.5" style="fill:#231f20;"/><rect x="8.875" y="3.625" width="3.5" height="3.5" style="fill:#231f20;"/><polygon points="8.875 10.625 8.875 12.375 10.625 12.375 12.375 12.375 12.375 10.625 10.625 10.625 10.625 8.875 8.875 8.875 8.875 10.625" style="fill:#231f20;"/></svg>