<?xml version="1.0" encoding="UTF-8"?><svg id="a" xmlns="http://www.w3.org/2000/svg" viewBox="0 0 16 16"><path d="m1.0832,14c.4833,0,.875-.3918.875-.875,0-1.2427,2.7982-2.25,6.25-2.25v2.9586c0,.2239.0854.4478.2563.6187.3417.3417.8957.3417,1.2374,0l5.8336-5.8336c.3417-.3417.3417-.8958,0-1.2374L9.7019,1.5476c-.3417-.3417-.8958-.3417-1.2374,0-.1708.1708-.2563.3948-.2563.6187v2.9587C3.7899,5.125.2082,8.7067.2082,13.125c0,.4832.3917.875.875.875Zm7.125-7.125h.875c.4832,0,.875-.3918.875-.875v-1.7212l3.7212,3.7212-3.7212,3.7212v-1.7212c0-.4833-.3918-.875-.875-.875h-.875c-2.154,0-4.1052.4277-5.5435,1.12,1.0419-2.0012,3.1312-3.37,5.5435-3.37Z" style="fill:#231f20;"/></svg>