<?xml version="1.0" encoding="UTF-8"?><svg id="a" xmlns="http://www.w3.org/2000/svg" viewBox="0 0 16 16"><path d="m.1302,5.373c0,.4832.3917.875.875.875h4.25c.4833,0,.875-.3918.875-.875s-.3917-.875-.875-.875h-1.9875c.6293-.8735,1.4862-1.599,2.5539-2.0413,3.0615-1.2681,6.5713.1857,7.8394,3.2471,1.2681,3.0615-.1857,6.5713-3.2471,7.8394-3.0615,1.2681-6.5713-.1857-7.8394-3.2472-.1849-.4465-.6968-.6585-1.1432-.4735-.4465.1849-.6584.6967-.4735,1.1432,1.6379,3.9544,6.1714,5.8322,10.1259,4.1943,3.9543-1.6379,5.8322-6.1714,4.1943-10.1259C13.6398,1.0798,9.1063-.798,5.1519.8399c-1.357.5621-2.4619,1.4701-3.2717,2.5737V1.123c0-.4833-.3917-.875-.875-.875S.1302.6397.1302,1.123v4.25Z" style="fill:#231f20;"/></svg>