<?xml version="1.0" encoding="UTF-8"?><svg id="a" xmlns="http://www.w3.org/2000/svg" viewBox="0 0 16 16"><path d="m2.5744,10.2961c-.1849-.4465-.6968-.6585-1.1432-.4735-.4465.1849-.6585.6967-.4736,1.1432,1.638,3.9544,6.1714,5.8322,10.1259,4.1943s5.8322-6.1714,4.1943-10.1259C13.6398,1.0798,9.1063-.798,5.1519.8399c-1.357.5621-2.4619,1.4701-3.2717,2.5737V1.123c0-.4833-.3917-.875-.875-.875S.1302.6397.1302,1.123v4.25c0,.4832.3918.875.875.875h4.25c.4833,0,.875-.3918.875-.875s-.3917-.875-.875-.875h-1.9875c.6293-.8735,1.4862-1.599,2.5539-2.0413,3.0615-1.2681,6.5713.1857,7.8394,3.2471,1.2681,3.0615-.1857,6.5713-3.2472,7.8394-3.0615,1.2681-6.5713-.1857-7.8394-3.2472Z" style="fill:#231f20;"/><path d="m8,3.375c-.4833,0-.875.3917-.875.875v3.75c0,.038.017.0704.0217.1072.0076.0601.0156.1175.0353.1747.0185.0537.0446.1005.0726.1489.0277.0483.0551.0941.0922.1368.0399.046.0859.0818.1345.1186.0293.0223.0488.0529.0814.0718l2.0568,1.1875c.4185.2416.9537.0983,1.1953-.3203.2416-.4185.0982-.9536-.3203-1.1953l-1.6194-.935v-3.2449c0-.4833-.3917-.875-.875-.875Z" style="fill:#231f20;"/></svg>