<?xml version="1.0" encoding="UTF-8"?><svg id="a" xmlns="http://www.w3.org/2000/svg" viewBox="0 0 16 16"><path d="m.875,15.1519c.4833,0,.875-.3917.875-.875v-2.2194c1.6965,3.0053,5.2585,4.611,8.7462,3.6765,2.7698-.7422,4.7782-2.8967,5.4738-5.4798,0-.0002.0002-.0004.0003-.0005v-.0004s.0002-.0006.0003-.0009h-.0002c.1243-.4665-.1525-.9454-.6188-1.0704-.4669-.1251-.9466.1519-1.0717.6187-.0004.0015.0001.003-.0003.0045-.5395,1.9979-2.0934,3.6642-4.2363,4.2384-2.8135.7539-5.6945-.6236-6.9333-3.1417h2.0151c.4833,0,.875-.3917.875-.875s-.3917-.875-.875-.875H.875c-.4833,0-.875.3918-.875.875v4.25c0,.4833.3917.875.875.875Z" style="fill:#231f20;"/><path d="m15.125.848c-.4833,0-.875.3918-.875.875v2.2194C12.5535.9371,8.9915-.6685,5.5038.266,2.7341,1.0082.7256,3.1627.0301,5.7458c0,.0002-.0002.0004-.0003.0005v.0004s-.0002.0006-.0003.0009h.0002c-.1243.4665.1525.9454.6188,1.0704.4669.1251.9466-.1519,1.0717-.6187.0004-.0015-.0001-.003.0003-.0045.5395-1.9979,2.0934-3.6642,4.2363-4.2384,2.8135-.7539,5.6945.6237,6.9333,3.1417h-2.0151c-.4833,0-.875.3918-.875.875s.3917.875.875.875h4.25c.4833,0,.875-.3917.875-.875V1.723c0-.4832-.3917-.875-.875-.875Z" style="fill:#231f20;"/></svg>