<?xml version="1.0" encoding="UTF-8"?><svg id="a" xmlns="http://www.w3.org/2000/svg" viewBox="0 0 16 16"><path d="m.7222,10.9658c1.638,3.9543,6.1715,5.8322,10.1259,4.1943,1.357-.5621,2.4619-1.4701,3.2717-2.5737v2.2906c0,.4833.3917.875.875.875s.875-.3917.875-.875v-4.25c0-.4832-.3917-.875-.875-.875h-4.25c-.4833,0-.875.3918-.875.875s.3917.875.875.875h1.9875c-.6293.8735-1.4862,1.599-2.5539,2.0413-3.0615,1.2681-6.5713-.1857-7.8394-3.2471-1.2681-3.0615.1857-6.5713,3.2471-7.8394,3.0615-1.2681,6.5713.1857,7.8394,3.2472.1849.4465.6968.6585,1.1432.4735.4465-.1849.6584-.6967.4735-1.1432C13.4044,1.0798,8.871-.798,4.9165.8399.9622,2.4778-.9157,7.0114.7222,10.9658Z" style="fill:#231f20;"/></svg>