<?xml version="1.0" encoding="UTF-8"?><svg id="a" xmlns="http://www.w3.org/2000/svg" viewBox="0 0 16 16"><path d="m4.9165,15.16c3.9545,1.6379,8.4879-.2399,10.1259-4.1943.1849-.4465-.027-.9583-.4735-1.1432-.4465-.185-.9583.027-1.1432.4735-1.2681,3.0615-4.7779,4.5153-7.8394,3.2472-3.0615-1.2681-4.5153-4.778-3.2471-7.8394,1.2681-3.0614,4.7779-4.5153,7.8394-3.2471,1.0677.4423,1.9246,1.1678,2.5539,2.0413h-1.9875c-.4833,0-.875.3917-.875.875s.3917.875.875.875h4.25c.4833,0,.875-.3918.875-.875V1.123c0-.4833-.3917-.875-.875-.875s-.875.3917-.875.875v2.2906c-.8098-1.1036-1.9147-2.0117-3.2717-2.5737C6.8937-.798,2.3602,1.0798.7222,5.0342c-1.6379,3.9544.2399,8.4879,4.1943,10.1259Z" style="fill:#231f20;"/></svg>