<?xml version="1.0" encoding="UTF-8"?><svg id="a" xmlns="http://www.w3.org/2000/svg" viewBox="0 0 16 16"><path d="m9.8698,5.373c0,.4832.3917.875.875.875h4.25c.4833,0,.875-.3918.875-.875V1.123c0-.4833-.3917-.875-.875-.875s-.875.3917-.875.875v2.2906c-.8098-1.1036-1.9147-2.0117-3.2717-2.5737C6.8937-.798,2.3602,1.0798.7222,5.0342c-1.6379,3.9544.2399,8.4879,4.1943,10.1259,3.9545,1.6379,8.4879-.2399,10.1259-4.1943.1849-.4465-.027-.9583-.4735-1.1432-.4465-.185-.9583.027-1.1432.4735-1.2681,3.0615-4.7779,4.5153-7.8394,3.2472-3.0615-1.2681-4.5153-4.778-3.2471-7.8394,1.2681-3.0614,4.7779-4.5153,7.8394-3.2471,1.0677.4423,1.9246,1.1678,2.5539,2.0413h-1.9875c-.4833,0-.875.3917-.875.875Z" style="fill:#231f20;"/><path d="m7.125,4.25v3.2449l-1.6194.935c-.4185.2416-.5619.7767-.3203,1.1953.2416.4185.7768.5619,1.1953.3203l2.0568-1.1875c.0327-.0189.0521-.0495.0814-.0718.0486-.0368.0945-.0726.1345-.1186.0371-.0427.0645-.0885.0922-.1368.0281-.0484.0541-.0952.0726-.1489.0197-.0572.0277-.1146.0353-.1747.0047-.0367.0217-.0692.0217-.1072v-3.75c0-.4833-.3917-.875-.875-.875s-.875.3917-.875.875Z" style="fill:#231f20;"/></svg>