<?xml version="1.0" encoding="UTF-8"?><svg id="a" xmlns="http://www.w3.org/2000/svg" viewBox="0 0 16 16"><path d="m15.125,9.152h-4.25c-.4833,0-.875.3917-.875.875s.3917.875.875.875h2.0151c-1.2388,2.518-4.1198,3.8956-6.9333,3.1417-2.1429-.5742-3.6968-2.2405-4.2363-4.2384-.0004-.0015.0001-.003-.0003-.0045-.1251-.4669-.6048-.7438-1.0717-.6187-.4663.1249-.743.6039-.6188,1.0703h-.0002s.0002.0007.0003.001v.0004s.0002.0003.0003.0005c.6956,2.5831,2.704,4.7376,5.4738,5.4798,3.4877.9345,7.0497-.6711,8.7462-3.6765v2.2194c0,.4832.3917.875.875.875s.875-.3918.875-.875v-4.25c0-.4833-.3918-.875-.875-.875Z" style="fill:#231f20;"/><path d="m.875,6.8481h4.25c.4832,0,.875-.3918.875-.875s-.3918-.875-.875-.875h-2.0151c1.2388-2.5181,4.1198-3.8956,6.9333-3.1417,2.1429.5742,3.6968,2.2405,4.2363,4.2384.0004.0015-.0001.003.0003.0045.1251.4669.6048.7438,1.0717.6187.4663-.1249.743-.6039.6188-1.0703h.0002s-.0002-.0007-.0003-.001v-.0004s-.0002-.0003-.0003-.0005c-.6956-2.5831-2.704-4.7376-5.4738-5.4798C7.0085-.6685,3.4465.9371,1.75,3.9424V1.7231c0-.4833-.3918-.875-.875-.875s-.875.3917-.875.875v4.25c0,.4832.3917.875.875.875Z" style="fill:#231f20;"/></svg>