<?xml version="1.0" encoding="UTF-8"?><svg id="a" xmlns="http://www.w3.org/2000/svg" viewBox="0 0 16 16"><path d="m11.0835.8399C7.129-.798,2.5956,1.0798.9576,5.0342c-.1849.4465.027.9583.4735,1.1432.4465.185.9583-.027,1.1432-.4735,1.2681-3.0615,4.7779-4.5153,7.8394-3.2472,3.0615,1.2681,4.5153,4.778,3.2471,7.8394-1.2681,3.0614-4.7779,4.5153-7.8394,3.2471-1.0677-.4423-1.9246-1.1678-2.5539-2.0413h1.9875c.4833,0,.875-.3917.875-.875s-.3917-.875-.875-.875H1.0052c-.4833,0-.875.3918-.875.875v4.25c0,.4833.3917.875.875.875s.875-.3917.875-.875v-2.2906c.8098,1.1036,1.9147,2.0117,3.2717,2.5737,3.9543,1.6379,8.4879-.2399,10.1259-4.1943,1.6379-3.9544-.2399-8.4879-4.1943-10.1259Z" style="fill:#231f20;"/><path d="m8,3.375c-.4833,0-.875.3917-.875.875v3.75c0,.038.017.0704.0217.1072.0076.0601.0156.1175.0353.1747.0185.0537.0446.1005.0726.1489.0277.0483.0551.0941.0922.1368.0399.046.0859.0818.1345.1186.0293.0223.0488.0529.0814.0718l2.0568,1.1875c.4185.2416.9537.0983,1.1953-.3203.2416-.4185.0982-.9536-.3203-1.1953l-1.6194-.935v-3.2449c0-.4833-.3917-.875-.875-.875Z" style="fill:#231f20;"/></svg>