<?xml version="1.0" encoding="UTF-8"?><svg id="a" xmlns="http://www.w3.org/2000/svg" viewBox="0 0 16 16"><path d="m2.5,16h2.5c.4833,0,.875-.3918.875-.875s-.3917-.875-.875-.875h-2.5c-.4142,0-.75-.3358-.75-.75v-2.5c0-.4833-.3917-.875-.875-.875s-.875.3917-.875.875v2.5c0,1.3807,1.1193,2.5,2.5,2.5Z" style="fill:#231f20;"/><path d="m15.125,10.125c-.4833,0-.875.3917-.875.875v2.5c0,.4142-.3358.75-.75.75h-2.5c-.4833,0-.875.3917-.875.875s.3917.875.875.875h2.5c1.3807,0,2.5-1.1193,2.5-2.5v-2.5c0-.4833-.3917-.875-.875-.875Z" style="fill:#231f20;"/><path d="m13.5,0h-2.5c-.4833,0-.875.3917-.875.875s.3917.875.875.875h2.5c.4142,0,.75.3358.75.75v2.5c0,.4832.3917.875.875.875s.875-.3918.875-.875v-2.5c0-1.3807-1.1193-2.5-2.5-2.5Z" style="fill:#231f20;"/><path d="m.875,5.875c.4833,0,.875-.3918.875-.875v-2.5c0-.4142.3358-.75.75-.75h2.5c.4833,0,.875-.3918.875-.875s-.3917-.875-.875-.875h-2.5C1.1193,0,0,1.1193,0,2.5v2.5c0,.4832.3917.875.875.875Z" style="fill:#231f20;"/></svg>