<?xml version="1.0" encoding="UTF-8"?><svg id="a" xmlns="http://www.w3.org/2000/svg" viewBox="0 0 16 16"><path d="m15.6813,5.704l-1.875-3.2476c-.2416-.4185-.7768-.5619-1.1953-.3203l-.2115.1221c-.1219.047-.249.0817-.3885.0817-.6904,0-1.25-.5596-1.25-1.25h-.0062c0-.4833-.3918-.875-.875-.875h-3.75c-.4833,0-.875.3917-.875.875h-.0076c.0005.2131-.0333.4272-.1475.625-.3452.5978-1.1097.8027-1.7075.4575l-.0031.0054c-.4185-.2416-.9537-.0982-1.1953.3203L.3187,5.7457c-.2365.4096-.0999.9272.2982,1.1757l-.0004.0006c.002.0012.0037.0028.0056.004.0067.0041.0101.011.0169.015l.021.0121c.1667.1021.3194.2279.4241.4092.3452.5978.1403,1.3623-.4575,1.7075l.0031.0054c-.4185.2416-.562.7768-.3203,1.1953l1.875,3.2476c.2416.4185.7768.5619,1.1953.3203l.0038.0065c.1843-.107.3866-.1848.615-.1848.6904,0,1.25.5596,1.25,1.25h.0062c0,.4832.3917.875.875.875h3.75c.4832,0,.875-.3918.875-.875h.0076c-.0005-.2131.0332-.4272.1474-.625.3452-.5979,1.1097-.8027,1.7075-.4575l.0031-.0054c.4185.2416.9537.0983,1.1953-.3203l1.875-3.2476c.2416-.4185.0982-.9537-.3203-1.1953l.0038-.0065c-.1848-.1061-.3533-.2424-.4675-.4402-.3452-.5979-.1403-1.3624.4575-1.7075l-.0031-.0054c.4185-.2416.5619-.7767.3203-1.1953Zm-3.0193,6.2959c-1.2507-.2876-2.5927.2407-3.2678,1.4101-.1163.2015-.1988.4117-.2614.625h-2.2792c-.3764-1.2269-1.5048-2.125-2.8551-2.125-.2327,0-.456.0337-.672.0861l-1.1396-1.9738c.8745-.9395,1.0879-2.3657.4127-3.5351-.1107-.1917-.2514-.3517-.3958-.5066l1.1435-1.9806c1.2508.2876,2.5927-.2407,3.2679-1.4101.1163-.2015.1988-.4117.2614-.625h2.2792c.3764,1.2269,1.5048,2.125,2.8551,2.125.2314,0,.4535-.0335.6685-.0854l1.1244,1.9475c-.8745.9394-1.088,2.3658-.4128,3.5352.116.201.2621.3706.415.5311l-1.144,1.9816Z" style="fill:#231f20;"/><path d="m8,4.75c-1.7949,0-3.25,1.4551-3.25,3.25s1.4551,3.25,3.25,3.25,3.25-1.4551,3.25-3.25-1.4551-3.25-3.25-3.25Zm0,4.75c-.8284,0-1.5-.6716-1.5-1.5s.6716-1.5,1.5-1.5,1.5.6716,1.5,1.5-.6716,1.5-1.5,1.5Z" style="fill:#231f20;"/></svg>