<?xml version="1.0" encoding="UTF-8"?><svg id="a" xmlns="http://www.w3.org/2000/svg" viewBox="0 0 16 16"><path d="m14.2625,5.6736c1.4763-.7522,2.0632-2.5587,1.311-4.035C14.8214.1624,13.0148-.4246,11.5386.3276c-1.2031.6131-1.8009,1.9254-1.5792,3.1896l-4.7169,2.4033c-.8925-.9194-2.3035-1.2057-3.5051-.5935C.2612,6.0792-.3257,7.8857.4265,9.3619c.7522,1.4763,2.5587,2.0633,4.035,1.3111.303-.1544.558-.3618.7823-.593l4.7157,2.4028c-.2217,1.2641.376,2.5765,1.5792,3.1896,1.4763.7522,3.2828.1652,4.035-1.311s.1652-3.2828-1.311-4.035c-1.2031-.6131-2.6163-.3253-3.5087.5972l-4.7114-2.4006c.0612-.3425.0594-.6938-.0027-1.0446l4.7141-2.402c.8924.9224,2.3055,1.2103,3.5087.5972Zm-1.9294-3.7868c.6151-.3134,1.3678-.0688,1.6812.5463.3134.6151.0688,1.3678-.5463,1.6812s-1.3678.0688-1.6812-.5463-.0688-1.3678.5463-1.6813ZM3.6669,9.1138c-.6151.3134-1.3678.0688-1.6812-.5463-.3134-.6151-.0688-1.3678.5463-1.6812s1.3678-.0688,1.6812.5463.0688,1.3678-.5463,1.6813Zm8.1198,3.3181c.3135-.6152,1.0662-.8597,1.6813-.5463.6151.3135.8597,1.0662.5463,1.6813s-1.0661.8597-1.6812.5463c-.6152-.3134-.8597-1.0661-.5463-1.6812Z" style="fill:#231f20;"/></svg>