<?xml version="1.0" encoding="UTF-8"?><svg id="a" xmlns="http://www.w3.org/2000/svg" viewBox="0 0 16 16"><circle cx="8" cy="8" r="1.5" style="fill:#231f20;"/><path d="m10.5811,9.4901c-.2416.4185-.0983.9537.3203,1.1953.4185.2416.9537.0983,1.1953-.3203.0001-.0002,0-.0004.0002-.0005.4045-.6987.6532-1.4991.6532-2.3646s-.2488-1.666-.6533-2.3647c0-.0001,0-.0002-.0001-.0004-.2416-.4185-.7767-.5619-1.1953-.3203-.4185.2416-.5619.7768-.3203,1.1953.0049.0085.0135.0129.0186.0211.2474.4357.4003.9321.4003,1.469s-.153,1.0334-.4003,1.4691c-.0051.0082-.0137.0126-.0186.0211Z" style="fill:#231f20;"/><path d="m13.7277,3.6828c-.4185.2416-.5619.7767-.3203,1.1953.0009.0016.0025.0024.0034.0039.5305.9185.8392,1.9811.8392,3.118s-.3086,2.1996-.8393,3.1182c-.0009.0015-.0025.0023-.0034.0038-.2416.4185-.0983.9537.3203,1.1953.4185.2416.9537.0982,1.1953-.3203,0,0,0-.0001,0-.0002.681-1.1769,1.077-2.5392,1.077-3.9968s-.3961-2.8199-1.0771-3.9969c-.2416-.4185-.7768-.5619-1.1953-.3203Z" style="fill:#231f20;"/><path d="m5.4189,6.5098c.2416-.4185.0983-.9537-.3203-1.1953-.4185-.2416-.9537-.0982-1.1953.3203,0,.0001,0,.0002-.0001.0004-.4045.6988-.6533,1.4992-.6533,2.3647s.2487,1.6659.6532,2.3646c.0001.0002,0,.0004.0002.0005.2416.4185.7767.5619,1.1953.3203.4185-.2416.5619-.7767.3203-1.1953-.0049-.0084-.0134-.0128-.0186-.0211-.2474-.4357-.4003-.9322-.4003-1.4691s.1529-1.0333.4003-1.469c.0051-.0082.0137-.0126.0186-.0211Z" style="fill:#231f20;"/><path d="m2.5927,4.8781c.2416-.4185.0982-.9536-.3203-1.1953-.4185-.2416-.9536-.0983-1.1953.3203-.681,1.1769-1.0771,2.5393-1.0771,3.9969s.396,2.8199,1.077,3.9968c0,0,0,.0001,0,.0002.2416.4185.7768.5619,1.1953.3203.4185-.2416.5619-.7768.3203-1.1953-.0009-.0015-.0024-.0023-.0034-.0038-.5307-.9186-.8393-1.9812-.8393-3.1182s.3087-2.1995.8392-3.118c.0009-.0015.0025-.0023.0034-.0039Z" style="fill:#231f20;"/></svg>