<?xml version="1.0" encoding="UTF-8"?><svg id="a" xmlns="http://www.w3.org/2000/svg" viewBox="0 0 16 16"><path d="m8,0C3.5817,0,0,3.5817,0,8s3.5817,8,8,8,8-3.5817,8-8S12.4183,0,8,0Zm0,14.25c-3.4518,0-6.25-2.7982-6.25-6.25S4.5482,1.75,8,1.75s6.25,2.7982,6.25,6.25-2.7982,6.25-6.25,6.25Z" style="fill:#231f20;"/><path d="m11.2054,5.6539c-.0156-.0581-.0296-.1143-.0562-.167-.008-.016-.0076-.0336-.0166-.0493-.0186-.0322-.0488-.0513-.0707-.0801-.0372-.0493-.0735-.0959-.1202-.1362-.0423-.0366-.0876-.0637-.1353-.0912-.0487-.0283-.0958-.0545-.1499-.0731-.0572-.0197-.1146-.0277-.1747-.0353-.0366-.0047-.069-.0216-.1069-.0216-.0185,0-.0339.0094-.0521.0105-.058.0034-.1127.0192-.17.0344-.0576.0155-.1134.0294-.1657.0557-.0162.0081-.034.0076-.0499.0168l-3.4374,1.9846v-1.2269c0-.4833-.3917-.875-.875-.875s-.875.3917-.875.875v4.25c0,.4832.3918.875.875.875s.875-.3918.875-.875v-1.2269l3.4374,1.9846c.0158.0092.0336.0087.0498.0168.0524.0264.1083.0403.1661.0558.057.0151.1116.0308.1694.0342.0182.0012.0338.0106.0523.0106.0381,0,.0706-.017.1074-.0217.0599-.0076.117-.0156.174-.0352.0543-.0187.1016-.0449.1505-.0734.0476-.0274.0927-.0544.1349-.0909.0468-.0405.0832-.0871.1205-.1365.0218-.0288.0519-.0479.0705-.08.009-.0156.0086-.0333.0165-.0492.0266-.0527.0406-.1089.0562-.1671.0151-.0568.0307-.1113.0341-.1688.0012-.0182.0106-.0337.0106-.0522v-4.25c0-.0185-.0094-.0339-.0106-.0522-.0034-.0576-.019-.1121-.0341-.1689Z" style="fill:#231f20;"/></svg>