<?xml version="1.0" encoding="UTF-8"?><svg id="a" xmlns="http://www.w3.org/2000/svg" viewBox="0 0 16 16"><path d="m1.0718,12.0035c.2416.4185.7767.5619,1.1953.3203l.8648-.4993v.7346c0,.4833.3917.8751.875.8751.4832,0,.875-.3918.8749-.8751v-1.7449l2.2432-1.2951v2.5866l-1.5112.8725c-.4185.2416-.5619.7767-.3203,1.1953s.7767.5619,1.1953.3203l.6362-.3673v.9986c0,.4833.3918.875.875.875s.875-.3917.875-.875v-.9986l.6362.3673c.4185.2416.9537.0983,1.1953-.3203.2416-.4185.0982-.9537-.3203-1.1953l-1.5112-.8725v-2.5866l2.2432,1.2951v1.745c0,.4832.3917.875.875.8749.4833,0,.875-.3917.875-.8749v-.7346l.8648.4993c.4185.2416.9536.0982,1.1953-.3203h0c.2416-.4185.0983-.9537-.3203-1.1953l-.8648-.4993.6362-.3672c.4185-.2416.562-.7768.3203-1.1953-.2416-.4185-.7768-.5619-1.1953-.3203l-1.5112.8725-2.2432-1.2951,2.2555-1.3022,1.5112.8725c.4185.2416.9536.0983,1.1953-.3203s.0983-.9537-.3203-1.1953l-.6362-.3673.8525-.4922c.4185-.2416.5619-.7768.3203-1.1953s-.7767-.5619-1.1953-.3203l-.8525.4922v-.7346c0-.4833-.3917-.875-.875-.875s-.875.3917-.875.875v1.745l-2.2554,1.3022v-2.6079l1.5112-.8725c.4185-.2416.5619-.7767.3203-1.1953-.2416-.4185-.7767-.5619-1.1953-.3203l-.6362.3673v-.9844c0-.4832-.3917-.875-.875-.875s-.875.3918-.875.875v.9844l-.6362-.3673c-.4185-.2416-.9537-.0983-1.1953.3203-.2416.4185-.0983.9536.3203,1.1953l1.5112.8725v2.6078l-2.2554-1.3021v-1.745c0-.4832-.3918-.875-.875-.875s-.875.3918-.875.875v.7346l-.8525-.4922c-.4185-.2416-.9536-.0982-1.1953.3203-.2416.4185-.0983.9537.3203,1.1953l.8525.4922-.6362.3673c-.4185.2416-.5619.7768-.3203,1.1953.2416.4185.7767.5619,1.1953.3203l1.5112-.8725,2.2554,1.3021-2.2431,1.2951-1.5112-.8725c-.4185-.2416-.9536-.0983-1.1953.3203s-.0983.9536.3203,1.1953l.6362.3674-.8648.4993c-.4185.2416-.5619.7767-.3203,1.1953Z" style="fill:#231f20;"/></svg>