<?xml version="1.0" encoding="UTF-8"?><svg id="a" xmlns="http://www.w3.org/2000/svg" viewBox="0 0 16 16"><path d="m15.9462,6.1347c-.0189-.0579-.0439-.1095-.0739-.1614-.0159-.028-.0201-.0596-.0395-.0862-.0136-.0187-.0343-.0278-.0491-.0452-.0395-.0465-.0838-.084-.1321-.1213-.0436-.0337-.0854-.0657-.1337-.0902-.0485-.0248-.0992-.0399-.1523-.0555-.0582-.017-.1143-.0307-.1747-.0353-.0229-.0018-.0425-.0133-.0659-.0133h-4.8073l-1.4855-4.5721c-.0072-.0222-.0242-.0373-.033-.0585-.0231-.0562-.0535-.1053-.0877-.1555-.0311-.0456-.061-.0891-.0995-.1274-.0385-.0386-.0821-.0687-.1279-.0999-.0501-.0341-.0992-.0645-.1552-.0875-.0212-.0088-.0363-.0258-.0586-.033-.0316-.0103-.0632-.0045-.095-.011-.0582-.0123-.1146-.0201-.1751-.0202-.0609,0-.1177.008-.1763.0204-.0316.0065-.0629.0007-.0943.0109-.0221.0072-.037.024-.0582.0328-.0564.0232-.1058.0538-.1562.0881-.0454.031-.0887.0608-.1268.0991-.0388.0386-.069.0822-.1003.1282-.0339.05-.0642.0989-.0872.1547-.0089.0213-.0259.0364-.0331.0587l-1.4856,4.5722H.875c-.0234,0-.043.0115-.0659.0133-.0604.0046-.1164.0184-.1746.0353-.0532.0156-.1039.0306-.1525.0555-.0483.0245-.0901.0565-.1337.0901-.0483.0374-.0926.0748-.1321.1213-.0148.0173-.0355.0264-.0491.0452-.0194.0267-.0235.0582-.0394.0862-.0299.0519-.0551.1035-.0739.1614-.0186.0576-.0286.1136-.0349.1728-.0036.0323-.0189.0605-.0189.0938,0,.0234.0115.0431.0134.066.0046.0604.0183.1163.0352.1746.0156.0531.0306.1038.0554.1522.0246.0485.0568.0906.0906.1343.0372.048.0746.0921.1208.1313.0175.0149.0266.0357.0454.0494l3.889,2.8256-1.4855,4.5718c-.0072.0222-.0023.0444-.0077.0668-.0143.0591-.0187.1169-.0206.1777-.0016.0549-.0029.1074.0057.1608.0084.0543.0261.1047.045.1573.0204.0565.0421.1094.0735.1605.0121.0198.0143.0427.0283.0618.0198.0272.0489.0411.0711.0654.0395.0436.08.0828.1284.118.0499.0363.1011.0636.1566.0883.029.0131.0506.0359.0815.046.0219.0071.0436.0023.0656.0076.0599.0146.1183.019.1801.0208.0543.0015.1063.0029.159-.0056.0546-.0084.1053-.0262.1582-.0453.0563-.0204.1091-.0419.1602-.0733.0198-.0121.0426-.0143.0616-.0282l3.8892-2.8257,3.8892,2.8257c.019.0139.0418.0161.0616.0282.0511.0314.1041.053.1605.0734.0527.019.1032.0367.1577.0452.053.0085.1051.0071.1597.0056.0614-.0018.1198-.0062.1795-.0208.022-.0053.0438-.0004.0657-.0076.0311-.0101.0527-.033.0818-.0461.0552-.0246.1063-.0518.1561-.088.0485-.0353.0891-.0745.1287-.1183.0221-.0242.0513-.0381.071-.0652.0139-.0191.0161-.0419.0282-.0616.0315-.0512.0532-.1043.0736-.1609.0189-.0526.0366-.1028.045-.157.0085-.0533.0072-.1057.0056-.1605-.0019-.0611-.0062-.119-.0206-.1783-.0054-.0222-.0005-.0443-.0077-.0664l-1.4855-4.5719,3.8891-2.8256c.0189-.0137.028-.0345.0454-.0494.0462-.0392.0836-.0834.1208-.1313.0339-.0438.066-.0858.0906-.1343.0248-.0483.0399-.0989.0554-.152.017-.0583.0307-.1144.0353-.175.0018-.0229.0133-.0425.0133-.0659,0-.0332-.0153-.0614-.0189-.0936-.0063-.0593-.0163-.1154-.0349-.173Z" style="fill:#231f20;"/></svg>