<?xml version="1.0" encoding="UTF-8"?><svg id="a" xmlns="http://www.w3.org/2000/svg" viewBox="0 0 16 16"><path d="m.3986,3.4038c-.3417.3417-.3417.8958,0,1.2374l4.4194,4.4194c.3417.3417.8957.3417,1.2374,0l2.3865-2.3865,4.4283,4.4283h-2.1376c-.4832,0-.875.3918-.875.875s.3918.875.875.875h4.25c.114,0,.2276-.0233.3345-.0676.2139-.0887.3842-.2591.4729-.473.0443-.107.0676-.2204.0676-.3344v-4.25c0-.4832-.3917-.875-.875-.875s-.875.3918-.875.875v2.1376l-5.047-5.0471c-.3417-.3417-.8958-.3417-1.2374,0l-2.3865,2.3865L1.636,3.4038c-.3417-.3417-.8958-.3417-1.2374,0Z" style="fill:#231f20;"/></svg>