<?xml version="1.0" encoding="UTF-8"?><svg id="a" xmlns="http://www.w3.org/2000/svg" viewBox="0 0 16 16"><path d="m.3986,12.5962c.3417.3417.8957.3417,1.2374,0l3.8007-3.8007,2.3865,2.3865c.3417.3417.8957.3417,1.2374,0l5.047-5.0471v2.1376c0,.4832.3918.875.875.875s.875-.3918.875-.875v-4.25c0-.114-.0233-.2274-.0676-.3344-.0887-.2139-.259-.3843-.4729-.473-.1069-.0443-.2205-.0676-.3345-.0676h-4.25c-.4832,0-.875.3917-.875.875s.3918.875.875.875h2.1376l-4.4283,4.4283-2.3865-2.3865c-.3417-.3417-.8958-.3417-1.2374,0L.3986,11.3588c-.3417.3417-.3417.8958,0,1.2374Z" style="fill:#231f20;"/></svg>