<?xml version="1.0" encoding="UTF-8"?><svg id="a" xmlns="http://www.w3.org/2000/svg" viewBox="0 0 16 16"><path d="m8.875,2.625V.875c0-.4833-.3917-.875-.875-.875s-.875.3917-.875.875v1.75c0,.4832.3917.875.875.875s.875-.3918.875-.875Z" style="fill:#231f20;"/><path d="m8.875,15.125v-1.75c0-.4833-.3917-.875-.875-.875s-.875.3917-.875.875v1.75c0,.4832.3917.875.875.875s.875-.3918.875-.875Z" style="fill:#231f20;"/><path d="m0,8c0,.4832.3917.875.875.875h1.75c.4833,0,.875-.3918.875-.875s-.3917-.875-.875-.875H.875c-.4833,0-.875.3917-.875.875Z" style="fill:#231f20;"/><path d="m15.125,7.125h-1.75c-.4833,0-.875.3917-.875.875s.3917.875.875.875h1.75c.4833,0,.875-.3918.875-.875s-.3917-.875-.875-.875Z" style="fill:#231f20;"/><path d="m13.3164,2.3431c-.3417-.3417-.8957-.3417-1.2374,0l-1.2374,1.2374c-.3417.3417-.3417.8958,0,1.2374.3417.3417.8958.3417,1.2374,0l1.2374-1.2374c.3417-.3417.3417-.8958,0-1.2374Z" style="fill:#231f20;"/><path d="m3.2402,11.1819l-1.2374,1.2375c-.3417.3417-.3417.8957,0,1.2374s.8957.3417,1.2374,0l1.2374-1.2375c.3417-.3417.3417-.8957,0-1.2374-.3417-.3417-.8958-.3417-1.2374,0Z" style="fill:#231f20;"/><path d="m3.5806,2.3431c-.3417-.3417-.8957-.3417-1.2374,0s-.3417.8957,0,1.2374l1.2374,1.2374c.3417.3417.8958.3417,1.2374,0,.3417-.3417.3417-.8957,0-1.2374l-1.2374-1.2374Z" style="fill:#231f20;"/><path d="m12.4194,11.1819c-.3417-.3417-.8958-.3417-1.2374,0s-.3417.8958,0,1.2374l1.2374,1.2375c.3417.3417.8957.3417,1.2374,0,.3417-.3417.3417-.8958,0-1.2375l-1.2374-1.2374Z" style="fill:#231f20;"/><path d="m4.5,8c0,1.933,1.567,3.5,3.5,3.5s3.5-1.567,3.5-3.5-1.567-3.5-3.5-3.5-3.5,1.567-3.5,3.5Zm3.5-1.75c.9665,0,1.75.7835,1.75,1.75s-.7835,1.75-1.75,1.75-1.75-.7835-1.75-1.75.7835-1.75,1.75-1.75Z" style="fill:#231f20;"/></svg>