<?xml version="1.0" encoding="UTF-8"?><svg id="a" xmlns="http://www.w3.org/2000/svg" viewBox="0 0 16 16"><path d="m13.5,2.25H2.5c-1.3807,0-2.5,1.1193-2.5,2.5v6.5c0,1.3807,1.1193,2.5,2.5,2.5h11c1.3807,0,2.5-1.1193,2.5-2.5v-6.5c0-1.3807-1.1193-2.5-2.5-2.5ZM4.75,12h-2.25c-.4142,0-.75-.3358-.75-.75v-.75h3v1.5Zm0-3.25H1.75v-1.5h3v1.5Zm0-3.25H1.75v-.75c0-.4142.3358-.75.75-.75h2.25v1.5Zm4.75,6.5h-3v-1.5h3v1.5Zm0-3.25h-3v-1.5h3v1.5Zm0-3.25h-3v-1.5h3v1.5Zm4.75,5.75c0,.4142-.3358.75-.75.75h-2.25v-1.5h3v.75Zm0-2.5h-3v-1.5h3v1.5Zm0-3.25h-3v-1.5h2.25c.4142,0,.75.3358.75.75v.75Z" style="fill:#231f20;"/></svg>