<?xml version="1.0" encoding="UTF-8"?><svg id="a" xmlns="http://www.w3.org/2000/svg" viewBox="0 0 16 16"><path d="m13.5,2.25H2.5c-1.3807,0-2.5,1.1193-2.5,2.5v6.5c0,1.3807,1.1193,2.5,2.5,2.5h11c1.3807,0,2.5-1.1193,2.5-2.5v-6.5c0-1.3807-1.1193-2.5-2.5-2.5Zm-6.375,9.75H2.5c-.4142,0-.75-.3358-.75-.75v-.75h5.375v1.5Zm0-3.25H1.75v-1.5h5.375v1.5Zm0-3.25H1.75v-.75c0-.4142.3358-.75.75-.75h4.625v1.5Zm7.125,5.75c0,.4142-.3358.75-.75.75h-4.625v-1.5h5.375v.75Zm0-2.5h-5.375v-1.5h5.375v1.5Zm0-3.25h-5.375v-1.5h4.625c.4142,0,.75.3358.75.75v.75Z" style="fill:#231f20;"/></svg>