<?xml version="1.0" encoding="UTF-8"?><svg id="a" xmlns="http://www.w3.org/2000/svg" viewBox="0 0 16 16"><path d="m13.5,2.25H2.5c-1.3807,0-2.5,1.1193-2.5,2.5v6.5c0,1.3807,1.1193,2.5,2.5,2.5h11c1.3807,0,2.5-1.1193,2.5-2.5v-6.5c0-1.3807-1.1193-2.5-2.5-2.5ZM3.5625,12h-1.0625c-.4142,0-.75-.3358-.75-.75v-.75h1.8125v1.5Zm0-3.25h-1.8125v-1.5h1.8125v1.5Zm0-3.25h-1.8125v-.75c0-.4142.3358-.75.75-.75h1.0625v1.5Zm3.5625,6.5h-1.8125v-1.5h1.8125v1.5Zm0-3.25h-1.8125v-1.5h1.8125v1.5Zm0-3.25h-1.8125v-1.5h1.8125v1.5Zm3.5625,6.5h-1.8125v-1.5h1.8125v1.5Zm0-3.25h-1.8125v-1.5h1.8125v1.5Zm0-3.25h-1.8125v-1.5h1.8125v1.5Zm3.5625,5.75c0,.4142-.3358.75-.75.75h-1.0625v-1.5h1.8125v.75Zm0-2.5h-1.8125v-1.5h1.8125v1.5Zm0-3.25h-1.8125v-1.5h1.0625c.4142,0,.75.3358.75.75v.75Z" style="fill:#231f20;"/></svg>