<?xml version="1.0" encoding="UTF-8"?><svg id="a" xmlns="http://www.w3.org/2000/svg" viewBox="0 0 16 16"><path d="m13.5,2.25H2.5c-1.3807,0-2.5,1.1193-2.5,2.5v6.5c0,1.3807,1.1193,2.5,2.5,2.5h11c1.3807,0,2.5-1.1193,2.5-2.5v-6.5c0-1.3807-1.1193-2.5-2.5-2.5ZM4.75,12h-2.25c-.4142,0-.75-.3358-.75-.75v-2.375h3v3.125Zm0-4.875H1.75v-2.375c0-.4142.3358-.75.75-.75h2.25v3.125Zm4.75,4.875h-3v-3.125h3v3.125Zm0-4.875h-3v-3.125h3v3.125Zm4.75,4.125c0,.4142-.3358.75-.75.75h-2.25v-3.125h3v2.375Zm0-4.125h-3v-3.125h2.25c.4142,0,.75.3358.75.75v2.375Z" style="fill:#231f20;"/></svg>