<?xml version="1.0" encoding="UTF-8"?><svg id="a" xmlns="http://www.w3.org/2000/svg" viewBox="0 0 16 16"><path d="m13.5,2.25H2.5c-1.3807,0-2.5,1.1193-2.5,2.5v6.5c0,1.3807,1.1193,2.5,2.5,2.5h11c1.3807,0,2.5-1.1193,2.5-2.5v-6.5c0-1.3807-1.1193-2.5-2.5-2.5Zm-6.375,9.75H2.5c-.4142,0-.75-.3358-.75-.75v-2.375h5.375v3.125Zm0-4.875H1.75v-2.375c0-.4142.3358-.75.75-.75h4.625v3.125Zm7.125,4.125c0,.4142-.3358.75-.75.75h-4.625v-3.125h5.375v2.375Zm0-4.125h-5.375v-3.125h4.625c.4142,0,.75.3358.75.75v2.375Z" style="fill:#231f20;"/></svg>