<?xml version="1.0" encoding="UTF-8"?><svg id="a" xmlns="http://www.w3.org/2000/svg" viewBox="0 0 16 16"><path d="m1.7496,13.4598h0s.7927.792.7927.792h0l1.0175,1.0167c.9761.9752,2.5585.9752,3.5347,0l1.0175-1.0167,7.1828-7.177c.4059-.4056.6329-.9168.7012-1.4448v-.1785c.0056-.0957.0056-.1895,0-.2852v-2.6519C15.9958,1.1351,14.8769.0171,13.4965.0171h-2.5394c-.1926-.0204-.3864-.025-.5795,0h0c-.5282.0683-1.0396.2952-1.4453.7006l-1.0484,1.0475L1.7496,7.8947l-1.0176,1.0167C.2441,9.3988.0001,10.0377,0,10.6766v.0012c.0001.6389.2441,1.2778.732,1.7653l1.0176,1.0167Zm.2196-3.3124L10.1694,1.9538c.1052-.1052.2361-.1591.3715-.1886.106-.0231.2114-.0231.3173,0h2.6382c.0084,0,.0153.0045.0236.0048.3943.0129.7085.3269.7215.7209.0002.0083.0048.0152.0048.0236v2.6364c.023.1055.0231.2108,0,.3164-.0296.1354-.0834.2663-.1888.3716L5.8572,14.0323c-.1464.1464-.3384.2195-.5302.2195s-.3837-.0731-.5302-.2195l-2.8277-2.8253c-.1464-.1464-.2196-.338-.2196-.5298s.0732-.3835.2196-.5298Z" style="fill:#231f20;"/><circle cx="12" cy="4" r="1.25" style="fill:#231f20;"/></svg>