<?xml version="1.0" encoding="UTF-8"?><svg id="a" xmlns="http://www.w3.org/2000/svg" viewBox="0 0 16 16"><path d="m8,13.5c.8284,0,1.5-.6716,1.5-1.5,0-.6522-.4188-1.2016-1-1.4082v-6.0918c0-.2762-.2239-.5-.5-.5s-.5.2238-.5.5v6.0918c-.5812.2066-1,.756-1,1.4082,0,.8284.6716,1.5,1.5,1.5Z" style="fill:#231f20;"/><path d="m8,16c2.2092,0,4-1.7909,4-4,0-1.0366-.4045-1.9685-1.0535-2.6741.017.0187.0369.0345.0535.0536V3c0-1.6569-1.3431-3-3-3s-3,1.3431-3,3v6.3795c.0167-.0191.0365-.0349.0535-.0536-.649.7056-1.0535,1.6375-1.0535,2.6741,0,2.2091,1.7908,4,4,4Zm-1.25-5.8701V3c0-.6903.5597-1.25,1.25-1.25s1.25.5597,1.25,1.25v7.1299c.6028.4037,1,1.0901,1,1.8701,0,1.2426-1.0074,2.25-2.25,2.25s-2.25-1.0074-2.25-2.25c0-.7799.3972-1.4664,1-1.8701Z" style="fill:#231f20;"/></svg>