<?xml version="1.0" encoding="UTF-8"?><svg id="a" xmlns="http://www.w3.org/2000/svg" viewBox="0 0 16 16"><path d="m10.125,6.75c-.4833,0-.875.3917-.875.875v.75c0,.4832.3917.875.875.875s.875-.3918.875-.875v-.75c0-.4833-.3917-.875-.875-.875Z" style="fill:#231f20;"/><path d="m15.125,3H.875c-.4833,0-.875.3917-.875.875v2.5c0,.4833.3917.875.875.875.4142,0,.75.3358.75.75s-.3358.75-.75.75c-.4833,0-.875.3917-.875.875v2.5c0,.4832.3917.875.875.875h14.25c.4833,0,.875-.3918.875-.875v-2.5c0-.4833-.3917-.875-.875-.875-.4142,0-.75-.3358-.75-.75s.3358-.75.75-.75c.4833,0,.875-.3918.875-.875v-2.5c0-.4833-.3917-.875-.875-.875Zm-.875,2.666c-.9474.3556-1.625,1.2624-1.625,2.334s.6776,1.9784,1.625,2.334v.916h-3.25v-.375c0-.4833-.3917-.875-.875-.875s-.875.3917-.875.875v.375H1.75v-.916c.9474-.3556,1.625-1.2623,1.625-2.334s-.6776-1.9784-1.625-2.334v-.916h7.5v.375c0,.4832.3917.875.875.875s.875-.3918.875-.875v-.375h3.25v.916Z" style="fill:#231f20;"/></svg>