<?xml version="1.0" encoding="UTF-8"?><svg id="a" xmlns="http://www.w3.org/2000/svg" viewBox="0 0 16 16"><path d="m5,16h6c1.3807,0,2.5-1.1193,2.5-2.5V4.75h.125c.4833,0,.875-.3918.875-.875s-.3917-.875-.875-.875h-1.875v-.5c0-1.3807-1.1193-2.5-2.5-2.5h-2.5c-1.3807,0-2.5,1.1193-2.5,2.5v.5h-1.875c-.4833,0-.875.3917-.875.875s.3917.875.875.875h.125v8.75c0,1.3807,1.1193,2.5,2.5,2.5Zm1-13.5c0-.4142.3358-.75.75-.75h2.5c.4142,0,.75.3358.75.75v.5h-4v-.5Zm-1.75,2.25h7.5v8.75c0,.4142-.3358.75-.75.75h-6c-.4142,0-.75-.3358-.75-.75V4.75Z" style="fill:#231f20;"/><path d="m6.5,13.25c.4833,0,.875-.3918.875-.875v-5.75c0-.4833-.3917-.875-.875-.875s-.875.3917-.875.875v5.75c0,.4832.3917.875.875.875Z" style="fill:#231f20;"/><path d="m9.5,13.25c.4833,0,.875-.3918.875-.875v-5.75c0-.4833-.3917-.875-.875-.875s-.875.3917-.875.875v5.75c0,.4832.3917.875.875.875Z" style="fill:#231f20;"/></svg>