<?xml version="1.0" encoding="UTF-8"?><svg id="a" xmlns="http://www.w3.org/2000/svg" viewBox="0 0 16 16"><path d="m13.5,1.875H2.5C1.1193,1.875,0,2.9943,0,4.375v5c0,1.3807,1.1193,2.5,2.5,2.5h11c1.3807,0,2.5-1.1193,2.5-2.5v-5c0-1.3807-1.1193-2.5-2.5-2.5Zm.75,7.5c0,.4142-.3358.75-.75.75H2.5c-.4142,0-.75-.3358-.75-.75v-5c0-.4142.3358-.75.75-.75h11c.4142,0,.75.3358.75.75v5Z" style="fill:#231f20;"/><path d="m3.375,14.125h9.25c.4833,0,.875-.3918.875-.875s-.3917-.875-.875-.875H3.375c-.4833,0-.875.3917-.875.875s.3917.875.875.875Z" style="fill:#231f20;"/></svg>