<?xml version="1.0" encoding="UTF-8"?><svg id="a" xmlns="http://www.w3.org/2000/svg" viewBox="0 0 16 16"><path d="m15.375,9.125h0v-1.0001c0-3.7814-2.8475-6.8936-6.5143-7.3206-.0378-.4484-.4025-.8044-.8607-.8044s-.8229.356-.8607.8044C3.4725,1.2314.625,4.3435.625,8.1249v1h0c0,.4833.3917.8751.875.8751s.875-.3918.875-.875c0-.4142.3358-.75.75-.75s.75.3358.75.75c0,.4832.3917.875.875.875s.875-.3918.875-.875c0-.4142.3358-.75.75-.75s.75.3358.75.75v4.25c0,.4833-.3917.875-.875.875s-.875-.3917-.875-.875-.3917-.875-.875-.875-.875.3917-.875.875c0,1.4498,1.1753,2.625,2.625,2.625s2.625-1.1752,2.625-2.625v-4.25c0-.4142.3358-.75.75-.75s.75.3358.75.75c0,.4832.3917.875.875.875s.875-.3918.875-.875c0-.4142.3358-.75.75-.75s.75.3358.75.75c0,.4832.3917.875.875.875s.875-.3918.875-.875Zm-2.5-2.5c-.6238,0-1.1871.2366-1.625.6144-.4379-.3778-1.0012-.6144-1.625-.6144s-1.1871.2366-1.625.6144c-.4379-.3778-1.0012-.6144-1.625-.6144s-1.1871.2366-1.625.6144c-.4379-.3778-1.0012-.6144-1.625-.6144-.1929,0-.3787.0266-.559.0679.6343-2.4117,2.8232-4.1929,5.434-4.1929s4.7997,1.7812,5.434,4.1929c-.1804-.0413-.3661-.0679-.559-.0679Z" style="fill:#231f20;"/></svg>