<?xml version="1.0" encoding="UTF-8"?><svg id="a" xmlns="http://www.w3.org/2000/svg" viewBox="0 0 16 16"><path d="m3.875,14.25c-.4833,0-.875.3917-.875.875s.3917.875.875.875h8.25c.4833,0,.875-.3918.875-.875s-.3917-.875-.875-.875H3.875Z" style="fill:#231f20;"/><path d="m13,.875c0-.4833-.3917-.875-.875-.875s-.875.3917-.875.875v7.125c0,1.7949-1.4551,3.25-3.25,3.25s-3.25-1.4551-3.25-3.25V.875c0-.4833-.3917-.875-.875-.875s-.875.3917-.875.875v7.125c0,2.7614,2.2386,5,5,5s5-2.2386,5-5V.875Z" style="fill:#231f20;"/></svg>