<?xml version="1.0" encoding="UTF-8"?><svg id="a" xmlns="http://www.w3.org/2000/svg" viewBox="0 0 16 16"><path d="m14.9168,14c.4833,0,.875-.3918.875-.875,0-4.4183-3.5817-8-8-8v-2.9587c0-.2239-.0854-.4479-.2563-.6187-.3417-.3417-.8957-.3417-1.2374,0L.4645,7.3813c-.3417.3417-.3417.8958,0,1.2374l5.8336,5.8336c.3417.3417.8958.3417,1.2374,0,.1708-.1709.2563-.3948.2563-.6187v-2.9586c3.4518,0,6.25,1.0073,6.25,2.25,0,.4832.3917.875.875.875Zm-7.125-4.875h-.875c-.4832,0-.875.3917-.875.875v1.7212l-3.7212-3.7212,3.7212-3.7212v1.7212c0,.4832.3918.875.875.875h.875c2.4122,0,4.5015,1.3688,5.5435,3.37-1.4382-.6923-3.3895-1.12-5.5435-1.12Z" style="fill:#231f20;"/></svg>