<?xml version="1.0" encoding="UTF-8"?><svg id="a" xmlns="http://www.w3.org/2000/svg" viewBox="0 0 16 16"><path d="m4.125,12.125h1.875c.4833,0,.875-.3918.875-.875s-.3917-.875-.875-.875h-1.875c-1.3117,0-2.375-1.0634-2.375-2.375s1.0633-2.375,2.375-2.375h1.875c.4833,0,.875-.3918.875-.875s-.3917-.875-.875-.875h-1.875C1.8468,3.875,0,5.7218,0,8s1.8468,4.125,4.125,4.125Z" style="fill:#231f20;"/><path d="m11.875,3.875h-1.875c-.4833,0-.875.3917-.875.875s.3917.875.875.875h1.875c1.3116,0,2.375,1.0633,2.375,2.375s-1.0634,2.375-2.375,2.375h-1.875c-.4833,0-.875.3917-.875.875s.3917.875.875.875h1.875c2.2781,0,4.125-1.8469,4.125-4.125s-1.8469-4.125-4.125-4.125Z" style="fill:#231f20;"/></svg>