<?xml version="1.0" encoding="UTF-8"?><svg id="a" xmlns="http://www.w3.org/2000/svg" viewBox="0 0 16 16"><path d="m15.9554,4.6541c-.0155-.0582-.0296-.1144-.0562-.1672-.0079-.0159-.0075-.0336-.0165-.0492-.0186-.0321-.0487-.0511-.0705-.08-.0373-.0494-.0737-.0961-.1205-.1365-.0422-.0365-.0873-.0635-.1349-.0909-.0488-.0285-.0962-.0547-.1505-.0734-.0569-.0196-.1141-.0276-.174-.0352-.0368-.0047-.0693-.0217-.1074-.0217-.0186,0-.0341.0094-.0523.0106-.0578.0034-.1124.0191-.1694.0342-.0578.0155-.1137.0294-.1661.0558-.0162.0081-.034.0076-.0498.0168l-3.2476,1.875c-.0328.0189-.0522.0497-.0816.072-.0485.0367-.0943.0725-.1342.1184-.0371.0427-.0645.0884-.0922.1368-.0281.0484-.0541.0952-.0726.1489-.0197.0573-.0277.1147-.0353.1749-.0047.0367-.0216.069-.0216.107v1.6002l3.3231,3.3231.3622.2091c.0159.0092.0337.0087.0499.0168.0523.0264.1081.0402.1657.0557.0572.0152.112.031.17.0344.0182.0012.0336.0105.0521.0105.038,0,.0704-.017.1072-.0217.0599-.0076.1172-.0155.1742-.0352.0542-.0187.1014-.0449.1501-.0733.0477-.0275.093-.0545.1353-.0911.0466-.0403.083-.087.1202-.1362.0219-.0289.0521-.048.0707-.0801.009-.0157.0086-.0333.0166-.0493.0266-.0527.0406-.1089.0562-.167.0151-.0568.0307-.1113.0341-.1689.0012-.0182.0106-.0337.0106-.0522v-6.25c0-.0185-.0094-.0339-.0106-.0522-.0034-.0575-.019-.1119-.0341-.1687Zm-1.7054,4.9553l-1.4979-.8648v-1.4892l1.4979-.8648v3.2188Z" style="fill:#231f20;"/><path d="m8,4h-1.3483l3.8483,3.8483v-1.3483c0-1.3807-1.1193-2.5-2.5-2.5Z" style="fill:#231f20;"/><path d="m2.5,12h5.5c.3923,0,.7586-.0983,1.089-.2593l-1.4906-1.4907H2.5c-.4142,0-.75-.3358-.75-.75v-3c0-.4142.3358-.75.75-.75h.5983l-1.5578-1.5578c-.9043.3764-1.5405,1.2673-1.5405,2.3078v3c0,1.3807,1.1193,2.5,2.5,2.5Z" style="fill:#231f20;"/><path d="m15.071,13.8336L2.1664.9289c-.3417-.3417-.8958-.3417-1.2374,0s-.3417.8958,0,1.2375l.7071.7071,11.4905,11.4905.7071.7071c.3417.3417.8958.3417,1.2374,0,.3417-.3417.3417-.8957,0-1.2374Z" style="fill:#231f20;"/></svg>