<?xml version="1.0" encoding="UTF-8"?><svg id="a" xmlns="http://www.w3.org/2000/svg" viewBox="0 0 16 16"><path d="m15.9554,4.6539c-.0156-.0581-.0296-.1143-.0562-.167-.008-.016-.0076-.0336-.0166-.0493-.0186-.0322-.0488-.0513-.0707-.0801-.0372-.0493-.0735-.0959-.1202-.1362-.0423-.0366-.0876-.0637-.1353-.0912-.0487-.0283-.0958-.0545-.1499-.0731-.0572-.0197-.1146-.0277-.1747-.0353-.0366-.0047-.069-.0216-.1069-.0216-.0185,0-.0339.0094-.0521.0105-.058.0034-.1127.0192-.17.0344-.0576.0155-.1134.0294-.1657.0557-.0162.0081-.034.0076-.0499.0168l-3.2476,1.875c-.0328.0189-.0522.0497-.0816.072-.0485.0367-.0943.0725-.1342.1184-.0371.0427-.0645.0884-.0922.1368-.0281.0484-.0541.0952-.0726.1489-.0197.0573-.0277.1147-.0353.1749-.0047.0367-.0216.069-.0216.107v2.4994c0,.038.0169.0703.0216.107.0076.0602.0156.1176.0353.1749.0185.0537.0446.1005.0726.1489.0277.0483.0551.0941.0922.1368.0399.0459.0857.0817.1342.1184.0294.0223.0488.0531.0816.072l3.2476,1.875c.0158.0092.0336.0087.0498.0168.0524.0264.1083.0403.1661.0558.057.0151.1116.0308.1694.0342.0182.0012.0338.0106.0523.0106.0381,0,.0706-.017.1074-.0217.0599-.0076.117-.0156.174-.0352.0543-.0187.1016-.0449.1505-.0734.0476-.0274.0927-.0544.1349-.0909.0468-.0405.0832-.0871.1205-.1365.0218-.0288.0519-.0479.0705-.08.009-.0156.0086-.0333.0165-.0492.0266-.0527.0406-.1089.0562-.1671.0151-.0568.0307-.1113.0341-.1688.0012-.0182.0106-.0337.0106-.0522v-6.25c0-.0185-.0094-.0339-.0106-.0522-.0034-.0576-.019-.1121-.0341-.1689Zm-1.7054,4.9554l-1.4979-.8648v-1.4892l1.4979-.8648v3.2188Z" style="fill:#231f20;"/><path d="m2.5,12h5.5c1.3807,0,2.5-1.1193,2.5-2.5v-3c0-1.3807-1.1193-2.5-2.5-2.5H2.5c-1.3807,0-2.5,1.1193-2.5,2.5v3c0,1.3807,1.1193,2.5,2.5,2.5Zm-.75-5.5c0-.4142.3358-.75.75-.75h5.5c.4142,0,.75.3358.75.75v3c0,.4142-.3358.75-.75.75H2.5c-.4142,0-.75-.3358-.75-.75v-3Z" style="fill:#231f20;"/></svg>