<?xml version="1.0" encoding="UTF-8"?><svg id="a" xmlns="http://www.w3.org/2000/svg" viewBox="0 0 16 16"><path d="m5.3874,5.283c-.0244,0-.0449.0119-.0687.0139-.331.0271-.6136.2275-.7374.5205-.0443.1047-.0688.2198-.0688.3406h0v3.6841c0,.3624.2203.6734.5344.8062.1047.0443.2198.0688.3406.0688h1.9529l2.7395,2.1021c.0289.0222.0636.0281.0943.0461.0519.0309.1025.059.1606.0787.0577.0196.1144.0281.174.0352.0356.0044.067.0209.1038.0209.0197,0,.0361-.0099.0554-.0112.0606-.0039.1168-.0191.1754-.0354.0529-.0148.1046-.0272.1529-.0512.048-.0236.0886-.0565.1321-.0891.0491-.0369.0959-.0726.1362-.1188.0126-.0144.0303-.0213.0422-.0367.0222-.0289.028-.0635.0461-.0942.0309-.0519.059-.1025.0787-.1606.0196-.0578.0281-.1147.0352-.1744.0044-.0355.0209-.0667.0209-.1034V3.875c0-.0367-.0165-.0679-.0209-.1033-.0071-.0597-.0157-.1167-.0353-.1746-.0197-.058-.0477-.1085-.0785-.1603-.0181-.0307-.024-.0654-.0462-.0944-.0118-.0154-.0295-.0224-.0422-.0369-.0402-.0461-.0869-.0816-.1358-.1184-.0437-.0327-.0845-.0658-.1327-.0894-.0481-.0239-.0995-.0362-.1522-.051-.0588-.0164-.1153-.0317-.1761-.0356-.0192-.0013-.0356-.0111-.0551-.0111-.0367,0-.0679.0165-.1033.0209-.0598.0071-.1168.0156-.1746.0353-.0579.0197-.1085.0476-.1602.0784-.0308.0181-.0656.024-.0946.0463l-2.7395,2.1021h-1.9529Zm.8751,1.75h1.375c.0368,0,.0681-.0165.1038-.0209.0594-.0071.1162-.0156.1739-.0352.0582-.0197.109-.0479.1609-.0788.0306-.018.0652-.0239.0941-.046l1.5674-1.2027v4.7013l-1.5674-1.2028c-.029-.0222-.0637-.0281-.0944-.0462-.0518-.0308-.1023-.0588-.1603-.0785-.0579-.0196-.1149-.0282-.1746-.0353-.0355-.0044-.0667-.0209-.1033-.0209h-1.375v-1.9341Z" style="fill:#231f20;"/></svg>