<?xml version="1.0" encoding="UTF-8"?><svg id="a" xmlns="http://www.w3.org/2000/svg" viewBox="0 0 16 16"><path d="m10.85,6.213c-.3417-.3417-.8958-.3417-1.2375,0-.1432.1433-.2124.3258-.2355.5124l2.1141,2.1141c.2762-.8993.0705-1.915-.6411-2.6265Z" style="fill:#231f20;"/><path d="m14.1013,11.4496c1.5778-2.3785,1.3198-5.6154-.7764-7.7115-.3417-.3417-.8957-.3417-1.2374,0s-.3417.8958,0,1.2374c1.4067,1.4067,1.6357,3.5254.7261,5.1864l1.2878,1.2877Z" style="fill:#231f20;"/><path d="m7.8354,3.7717c-.0071-.0597-.0157-.1167-.0353-.1746-.0197-.058-.0477-.1085-.0785-.1603-.0181-.0307-.024-.0654-.0462-.0944-.0118-.0154-.0295-.0224-.0422-.0369-.0402-.0461-.0869-.0816-.1358-.1184-.0437-.0327-.0845-.0658-.1327-.0894-.0481-.0239-.0995-.0362-.1522-.051-.0588-.0164-.1153-.0317-.1761-.0356-.0192-.0013-.0356-.0111-.0551-.0111-.0367,0-.0679.0165-.1033.0209-.0598.0071-.1168.0156-.1746.0353-.0579.0197-.1085.0476-.1602.0784-.0308.0181-.0656.024-.0946.0463l-.3486.2675,1.7563,1.7563v-1.3296c0-.0367-.0165-.0679-.0209-.1033Z" style="fill:#231f20;"/><path d="m4.0062,7.033c.0368,0,.0681-.0165.1038-.0209.0594-.0071.1162-.0156.1739-.0352.0101-.0034.0182-.0097.0278-.0136l-1.6803-1.6803h-.8752c-.3624,0-.6734.2203-.8062.5344-.0443.1047-.0688.2198-.0688.3406h0v3.6841c0,.4833.3917.875.875.875h1.9529l2.7395,2.1021c.0289.0222.0636.0281.0943.0461.0519.0309.1025.059.1606.0787.0577.0196.1144.0281.174.0352.0356.0044.067.0209.1038.0209.0197,0,.0361-.0099.0554-.0112.0606-.0039.1168-.0191.1754-.0354.0529-.0148.1046-.0272.1529-.0512.048-.0236.0886-.0565.1321-.0891.0491-.0369.0959-.0726.1362-.1188.0126-.0144.0303-.0213.0422-.0367.0222-.0289.028-.0635.0461-.0942.0309-.0519.059-.1025.0787-.1606.0196-.0578.0281-.1147.0352-.1744.0044-.0355.0209-.0667.0209-.1034v-1.6171l-1.75-1.75v1.5928l-1.5674-1.2028c-.029-.0222-.0637-.0281-.0944-.0462-.0518-.0308-.1023-.0588-.1603-.0785-.0579-.0196-.1149-.0282-.1746-.0353-.0355-.0044-.0667-.0209-.1033-.0209h-1.375v-1.9341h1.375Z" style="fill:#231f20;"/><path d="m13.8336,15.071c.3417.3417.8958.3417,1.2374,0,.3417-.3417.3417-.8957,0-1.2374L2.1664.9289c-.3417-.3417-.8958-.3417-1.2374,0s-.3417.8958,0,1.2375l.7071.7071,11.4905,11.4905.7071.7071Z" style="fill:#231f20;"/></svg>