<?xml version="1.0" encoding="UTF-8"?><svg id="a" xmlns="http://www.w3.org/2000/svg" viewBox="0 0 16 16"><path d="m6.7626,11.0125c-.6834.6835-.6834,1.7915,0,2.4749s1.7914.6834,2.4749,0,.6834-1.7914,0-2.4749c-.6834-.6834-1.7914-.6834-2.4749,0Z" style="fill:#231f20;"/><path d="m12.2426,9.2448c.3417-.3417.3417-.8957,0-1.2374-2.3431-2.3431-6.1422-2.3431-8.4852,0-.3417.3417-.3417.8958,0,1.2374.3417.3417.8957.3417,1.2374,0,1.6597-1.6597,4.3506-1.6597,6.0104,0,.3417.3417.8958.3417,1.2374,0Z" style="fill:#231f20;"/><path d="m15.2479,6.2396c.3417-.3417.3417-.8958,0-1.2374C11.245.9993,4.755.9993.7521,5.0021c-.3417.3417-.3417.8958,0,1.2374s.8958.3417,1.2374,0c3.3195-3.3195,8.7014-3.3195,12.0209,0,.3417.3417.8957.3417,1.2374,0Z" style="fill:#231f20;"/></svg>