<?xml version="1.0" encoding="UTF-8"?><svg id="a" xmlns="http://www.w3.org/2000/svg" viewBox="0 0 16 16"><path d="m15.2479,6.2396c.3417-.3417.3417-.8958,0-1.2374-2.7535-2.7535-6.6838-3.6126-10.172-2.5779l1.4586,1.4586c2.6339-.4589,5.4419.3226,7.476,2.3568.3417.3417.8957.3417,1.2374,0Z" style="fill:#231f20;"/><path d="m10.8671,8.2154l1.1675,1.1675c.0726-.0394.1467-.0768.2081-.1382.3417-.3417.3417-.8957,0-1.2374-.9167-.9167-2.0574-1.4623-3.2454-1.6618l1.8699,1.8699Z" style="fill:#231f20;"/><path d="m7.8616,10.5132c-.4005.0317-.7927.193-1.099.4993-.6834.6835-.6834,1.7915,0,2.4749s1.7914.6834,2.4749,0c.3063-.3063.4676-.6985.4993-1.0991l-1.8752-1.8752Z" style="fill:#231f20;"/><path d="m.7521,6.2396c.3417.3417.8958.3417,1.2374,0,.2717-.2717.5613-.5128.8584-.74l-1.2504-1.2504c-.2916.2339-.5751.4825-.8455.7529-.3417.3417-.3417.8958,0,1.2374Z" style="fill:#231f20;"/><path d="m3.7574,9.2448c.3417.3417.8957.3417,1.2374,0,.2786-.2786.5933-.493.9203-.678l-1.278-1.278c-.3088.2098-.606.4448-.8798.7186-.3417.3417-.3417.8958,0,1.2374Z" style="fill:#231f20;"/><path d="m.2563.2563C-.0854.598-.0854,1.152.2563,1.4937l.8798.8798,11.4905,11.4905s.0001,0,.0002.0001l.5343.5343c.3417.3417.8957.3417,1.2374,0s.3417-.8957,0-1.2374L1.4937.2563C1.152-.0854.598-.0854.2563.2563Z" style="fill:#231f20;"/></svg>