<?xml version="1.0" encoding="UTF-8"?><svg id="a" xmlns="http://www.w3.org/2000/svg" viewBox="0 0 16 16"><path d="m14.364.3986L.3986,14.364c-.3417.3417-.3417.8957,0,1.2374.3417.3417.8957.3417,1.2374,0L15.6014,1.636c.3417-.3417.3417-.8958,0-1.2375s-.8957-.3417-1.2374,0Z" style="fill:#231f20;"/><path d="m.3986,10.6516c.3417.3417.8957.3417,1.2374,0L10.6517,1.636c.3417-.3417.3417-.8958,0-1.2375-.3417-.3417-.8958-.3417-1.2375,0L.3986,9.4142c-.3417.3417-.3417.8958,0,1.2374Z" style="fill:#231f20;"/><path d="m.3986,5.7019c.3417.3417.8957.3417,1.2374,0L5.7019,1.636c.3417-.3417.3417-.8958,0-1.2375-.3417-.3417-.8958-.3417-1.2374,0L.3986,4.4645c-.3417.3417-.3417.8957,0,1.2374Z" style="fill:#231f20;"/><path d="m14.364,5.3483L5.3483,14.364c-.3417.3417-.3417.8957,0,1.2374.3417.3417.8958.3417,1.2374,0L15.6014,6.5858c.3417-.3417.3417-.8957,0-1.2374s-.8957-.3417-1.2374,0Z" style="fill:#231f20;"/><path d="m14.364,10.2981l-4.0659,4.0659c-.3417.3417-.3417.8957,0,1.2374s.8958.3417,1.2374,0l4.0659-4.0659c.3417-.3417.3417-.8958,0-1.2374-.3417-.3417-.8957-.3417-1.2374,0Z" style="fill:#231f20;"/></svg>